<?xml version="1.0" encoding="UTF-8"?>
<svg id="Camada_1" data-name="Camada 1" xmlns="http://www.w3.org/2000/svg" viewBox="0 0 500 500">
  <defs>
    <style>
      .cls-1 {
        fill: #000;
        stroke-width: 0px;
      }
    </style>
  </defs>
  <g>
    <rect class="cls-1" x="66.94" y="32.21" width="68.74" height="8.47"/>
    <rect class="cls-1" x="262.47" y="32.21" width="68.74" height="8.47"/>
    <path class="cls-1" d="M437.11,173.31c0-.32-.26-.58-.58-.58h-63c-.07,0-.15.02-.22.05-.07.02-.13.06-.19.12l-10.44,10.44s-.05.06-.07.09c-.07.09-.1.21-.1.32h0v26.8c0,.32.26.58.58.58h2.3v1.72h73.44v-37.23h-1.72v-2.31ZM372.95,174.71v8.46h-8.46l8.46-8.46ZM363.67,184.33h9.86c.32,0,.58-.26.58-.58v-9.86h61.84v36.08h-72.28v-25.64Z"/>
    <path class="cls-1" d="M425.81,180.74h-24.15c-.32,0-.58.26-.58.58s.26.58.58.58h24.15c.32,0,.58-.26.58-.58s-.26-.58-.58-.58Z"/>
    <path class="cls-1" d="M377.61,181.9h18.65c.32,0,.58-.26.58-.58s-.26-.58-.58-.58h-18.65c-.32,0-.58.26-.58.58s.26.58.58.58Z"/>
    <path class="cls-1" d="M425.81,188.41h-10.31c-.32,0-.58.26-.58.58s.26.58.58.58h10.31c.32,0,.58-.26.58-.58s-.26-.58-.58-.58Z"/>
    <path class="cls-1" d="M377.61,189.57h32.49c.32,0,.58-.26.58-.58s-.26-.58-.58-.58h-32.49c-.32,0-.58.26-.58.58s.26.58.58.58Z"/>
    <path class="cls-1" d="M425.81,196.08h-27.75c-.32,0-.58.26-.58.58s.26.58.58.58h27.75c.32,0,.58-.26.58-.58s-.26-.58-.58-.58Z"/>
    <path class="cls-1" d="M377.61,197.24h15.04c.32,0,.58-.26.58-.58s-.26-.58-.58-.58h-15.04c-.32,0-.58.26-.58.58s.26.58.58.58Z"/>
    <path class="cls-1" d="M425.81,203.75h-13.01c-.32,0-.58.26-.58.58s.26.58.58.58h13.01c.32,0,.58-.26.58-.58s-.26-.58-.58-.58Z"/>
    <path class="cls-1" d="M407.4,203.75h-29.79c-.32,0-.58.26-.58.58s.26.58.58.58h29.79c.32,0,.58-.26.58-.58s-.26-.58-.58-.58Z"/>
    <path class="cls-1" d="M321.1,78.81h-22.99c-.32,0-.58.26-.58.58s.26.58.58.58h22.99c.32,0,.58-.26.58-.58s-.26-.58-.58-.58Z"/>
    <path class="cls-1" d="M275.2,79.97h17.76c.32,0,.58-.26.58-.58s-.26-.58-.58-.58h-17.76c-.32,0-.58.26-.58.58s.26.58.58.58Z"/>
    <path class="cls-1" d="M321.1,86.11h-9.82c-.32,0-.58.26-.58.58s.26.58.58.58h9.82c.32,0,.58-.26.58-.58s-.26-.58-.58-.58Z"/>
    <path class="cls-1" d="M275.2,87.27h30.94c.32,0,.58-.26.58-.58s-.26-.58-.58-.58h-30.94c-.32,0-.58.26-.58.58s.26.58.58.58Z"/>
    <path class="cls-1" d="M321.1,93.42h-26.43c-.32,0-.58.26-.58.58s.26.58.58.58h26.43c.32,0,.58-.26.58-.58s-.26-.58-.58-.58Z"/>
    <path class="cls-1" d="M275.2,94.58h14.33c.32,0,.58-.26.58-.58s-.26-.58-.58-.58h-14.33c-.32,0-.58.26-.58.58s.26.58.58.58Z"/>
    <path class="cls-1" d="M321.1,100.73h-12.39c-.32,0-.58.26-.58.58s.26.58.58.58h12.39c.32,0,.58-.26.58-.58s-.26-.58-.58-.58Z"/>
    <path class="cls-1" d="M303.57,100.73h-28.37c-.32,0-.58.26-.58.58s.26.58.58.58h28.37c.32,0,.58-.26.58-.58s-.26-.58-.58-.58Z"/>
    <path class="cls-1" d="M435.14,73.46h-72.04v72.05h72.04v-72.05ZM434.14,144.51h-70.04v-70.05h70.04v70.05Z"/>
    <polygon class="cls-1" points="408.91 107.54 393.3 129.31 384.54 120.71 368.88 139.73 429.36 139.73 408.91 107.54"/>
    <circle class="cls-1" cx="386.69" cy="100.24" r="6.72"/>
    <path class="cls-1" d="M70.1,408.15c-.12-.3-.46-.44-.76-.31l-7.25,3.05c-.3.12-.43.46-.31.75.09.23.31.36.53.36.08,0,.15-.02.23-.05l7.25-3.04c.3-.13.43-.47.31-.76Z"/>
    <circle class="cls-1" cx="164.41" cy="89.72" r="16.65" transform="translate(68.92 250.85) rotate(-87.97)"/>
    <path class="cls-1" d="M385.36,465.05c-.09-.41-.18-.83-.26-1.24-.03-.1-.05-.2-.07-.3-.11-.52-.22-1.05-.32-1.57-.44-2.13-.86-4.27-1.27-6.43-1.37-7.28-2.55-14.6-3.49-21.75-.01-.05-.02-.11-.05-.15-.08-.21-.28-.35-.52-.35h-5.93c-.32,0-.58.26-.58.58s.26.58.58.58h3.01c-.52,5.39-1.17,10.9-1.95,16.49-1.9,13.59-4.38,26.5-7.28,38.3-.07.28-.14.56-.21.84h13.01l.18-.75c.05-.06.08-.13.1-.2,1.71-6.87,3.2-13.78,4.52-21.05,1.67,7.59,3.54,15.01,5.59,22.16.07.25.3.42.56.42.05,0,.1-.01.16-.02.25-.07.41-.3.41-.56,0-.05,0-.11-.02-.16-2.29-7.99-4.35-16.31-6.17-24.84Z"/>
    <path class="cls-1" d="M376.01,281.84c1.09.4,2.25.27,3.19-.27.71-.4,1.3-1.03,1.64-1.82-.42.05-.84.1-1.26.16-1.78.22-3.56.45-5.28.68.43.55,1.01.99,1.71,1.25Z"/>
    <rect class="cls-1" x="166.56" y="32.21" width="68.74" height="8.47"/>
    <rect class="cls-1" x="368.33" y="32.21" width="68.74" height="8.47"/>
  </g>
  <path class="cls-1" d="M483.04,352.84l-19.11-18.03h0l2.6-2.6-9.27-9.24V9.56c0-.32-.25-.58-.57-.58H46.49c-.32,0-.58.26-.58.58v335.43c0,.32.26.58.58.58h11.98l-9.38,20.98c-.06.14-.07.3-.01.45.05.14.16.26.3.32l5.08,2.26-.84,1.26c-.13-.08-.28-.12-.42-.09-.16.02-.3.11-.39.24l-2.35,3.5-1.84-1.81c-.21-.21-.53-.22-.76-.05l-20.62,15.54c-.13.09-.21.24-.23.4-.01.17.04.33.15.45l30.28,33.43c2.34,2.58,5.51,4.26,8.92,4.75l-7.49,8.39c-.07.07-.14.15-.2.23-14.61,15.9-29.15,31.72-43.47,47.29l-6.38,6.94c-.22.23-.2.6.03.82.12.1.26.15.4.15.15,0,.31-.06.42-.19l.56-.61c.05.02.11.03.16.03h105.97c-.05.2.01.41.17.56.11.1.25.15.39.15.16,0,.31-.06.43-.19l.48-.52c.15-.01.29-.08.39-.19l16.18-17.63c.12-.13.17-.29.14-.45l81.35-88.88c.15,34.17.14,68.81-.01,102.98,0,.32.26.58.58.59.32,0,.58-.26.58-.58.16-34.68.16-69.83,0-104.48,0-.07,0-.13-.04-.19,0-.02-.02-.05-.03-.07,0-.03-.03-.05-.04-.07-.01-.01-.01-.02-.02-.03h0v-.02h-.02v-.02h-.01s-.01-.01-.01-.01h0s0-.01-.01-.01h0s0-.01,0-.01h0s-.01-.01-.01-.01c0,0-.01,0-.01-.01h-.01s-.09-.07-.14-.08c-.02-.02-.05-.03-.08-.03h-.03s0-.01-.01-.01h-.01s-.05-.01-.08-.01c-.02,0-.04,0-.07.01h-10.15v-5.24c0-1.63-1.17-2.98-2.72-3.25.01-.01.01-.02.01-.03l.24-4.25c.14-2.4-.62-4.65-2.02-6.4-.07-.09-.14-.19-.22-.28-1.43-1.85-3.56-3.16-6.01-3.5l-12-1.69c-1.8-.26-3.53-.97-5.01-2.07l-2.73-1.88c-3.16-2.17-5.02-4.84-6.1-6.88h99.87c.68,8.65,1.39,17.59,2.29,27.22v.06c.09.41.17.85.25,1.3.35,1.87.74,3.98,1.47,5.69.88,2.03,3.39,6.09,6.4,8.32,4.72,3.51,10.39,5.36,15.87,5.36,2.43,0,4.83-.37,7.09-1.12.03,0,.06-.02.08-.03.39-.2.91-.4,1.41-.6.52-.21,1.06-.43,1.53-.66,2.95-1.69,5.52-3.83,7.63-6.37,2.14-2.59,4.26-5.15,6.34-7.68l9.95,31.6c.07.24.3.4.55.4h3.96c-2.47,10.66-4.55,21.99-6.17,33.67-2.29,16.44-3.52,32.36-3.65,47.31,0,.32.26.59.58.59s.58-.26.58-.58h0c.13-14.91,1.35-30.77,3.64-47.16,1.63-11.75,3.73-23.14,6.21-33.83h47.17c.18,0,.36-.09.47-.23.11-.15.14-.34.08-.52l-4.07-12.94c1.03.21,2.07.35,3.13.43.08.04.17.06.26.06h5.4l2-.06.57-.02.59-.02,35.82-1.15c5.17,15.01,9.65,32.16,13.06,50.22,2.95,15.61,4.9,30.81,5.8,45.22v.04c.02.3.27.54.58.54h.04c.31-.02.56-.3.54-.62-.91-14.46-2.86-29.73-5.82-45.39-3.39-17.98-7.84-35.07-12.98-50.05l39.5-1.26c9.64-.31,17.75-6.1,21.17-15.12s1.18-18.73-5.83-25.35ZM457.26,324.49l7.75,7.72-1.86,1.86-.41.41-.41.41-5.07,5.07-4.45,4.45-1.16,1.16-11.33,11.34h-.01l-.4.41h0l-.41.41h0s-1.66,1.67-1.66,1.67l-13.83-13.83-1.16-1.16-7.69-7.69-.1-.1-.26.27-.12.11-.38.38,7.03,7.03h-.65l1.16,1.16h.65l9.99,9.98v9.78l-15.38,2.44-.59.09-.61.1-24.69,3.91h-.01l-1.88-.92-.63-.31-.63-.31-9.42-4.58-.33-.16c-2.87-1.39-6.03-2.21-9.22-2.41l-4.96-15.76c-.08-.24-.3-.4-.56-.4h-8.63l-.45-1.45-.37-1.16-.78-2.49c-.07-.24-.3-.4-.55-.4h-35.06l-5.21-5.97-.38-.45-.39-.44-7.67-8.8,14.82-12.92c8.71-7.6,19.7-12.07,31.19-12.73.39-.03.77-.04,1.16-.06.61-.02,1.23-.03,1.84-.03h6.88l-6,37.61c-.04.24.07.48.28.6.09.05.19.07.29.07.13,0,.26-.04.37-.13l20.24-16.59s.03.08.06.12l15.99,20.9.02.02c.11.14.27.21.44.21.04,0,.08,0,.12-.01.21-.05.37-.2.43-.41,0-.01.01-.02.01-.03l9.26-42.39h7.31c15.42,0,29.94,5.98,40.88,16.83.03.03.07.07.1.1l6.35,6.33,1.15,1.14ZM445.19,363.32l-6.76,1.07-4.89.77v-7.95l3.77,3.78.22.22,2.73-2.73,4.93,4.84ZM357.85,348.18c-.58.79-1.17,1.64-1.75,2.53l-.8-2.53h2.55ZM299.26,344.41c-.08-.26-.16-.53-.24-.82-1.78-6.04-4.96-16.87-7.79-26.99-.02-.05-.03-.1-.04-.15-1.13-4.04-2.2-7.95-3.1-11.4-.62-2.37-1.16-4.52-1.58-6.33.83-1.12,4.14-6.17.47-12.16-.95-1.56-3.23-4.62-4.97-6.92-2.07-2.74-3.78-5.75-5.07-8.94l-1.5-3.71c-.88-2.16-3.28-3.24-5.47-2.45l-.41.14c-2.2.79-3.39,3.23-2.65,5.44l3.87,11.71h-5.57c-3.13,0-6.19-.86-8.87-2.49l-1.46-6.58c-.48-2.16-2.63-3.55-4.79-3.11-.62.13-1.18.4-1.66.77v-8.78c2.44,1.91,5.51,3.04,8.83,3.04,7.97,0,14.45-6.48,14.45-14.45v-6.88c0-.32-.26-.58-.58-.58h-.95c.02-4.45,1.96-8.73,5.43-11.53,6.82-5.51,11.12-14.04,10.85-23.56-.44-15.91-13.29-28.37-29.2-28.37-3.08,0-6.05.48-8.83,1.36V51.16h92.34l-9.65,4.67.07.07c-.13.1-.25.2-.37.32-2.35,2.35-1.42,7.09,2.03,11.34l-3.05,3.63h-58.48c-.15,0-.3.06-.41.17l-9.95,9.94c-.11.11-.16.26-.16.41v25.51c0,.32.25.58.57.58h2.2v1.61h69.93v-35.45h-1.02l3.61-3.2c1.68,1.35,3.48,2.32,5.22,2.83.89.26,1.72.39,2.49.39,1.43,0,2.62-.44,3.48-1.3.05-.05.1-.09.14-.14l.12.13,2.54-5.25v231.72c-11.75.66-22.98,5.22-31.9,12.99l-15.62,13.62,8.48,9.73-7.68,8.93h-4.1ZM302.36,345.57l-2.06,2.39c-.16-.56-.39-1.34-.7-2.39h2.76ZM247.27,258.97c-2.05-2.33-3.29-5.39-3.29-8.74v-6.3h26.57v6.3c0,7.33-5.96,13.29-13.29,13.29-3.39,0-6.49-1.28-8.83-3.38-.41-.36-.8-.75-1.16-1.17ZM271.32,82.29c.32,0,.58-.26.58-.58v-9.36h56.93l-2.52,3c-.6.71-.4,1.59.11,2.08.27.27.66.44,1.07.44.34,0,.69-.11,1.01-.39l2.23-1.97v31.13h-68.78v-24.35h9.37ZM262.77,81.13l7.97-7.96v7.96h-7.97ZM327.73,76.61c-.23.21-.43.06-.51-.01-.07-.07-.22-.27-.02-.5l3.15-3.75.97-1.16,2.3-2.73c.22.25.45.49.69.73.28.28.57.56.87.82l-3.3,2.92-1.15,1.02-3,2.66ZM334.59,67.3c-.13-.15-.26-.3-.38-.45-.13-.16-.26-.31-.37-.46-2.74-3.53-3.66-7.41-1.96-9.11.23-.23.5-.41.82-.55l1-.45-.03-.02,8.21-3.97.57-1.13.58-1.16,3.34-6.62.05-.13c.11-.34.26-.66.47-.93l.14-.17s.05-.07.08-.1c.69-.69,1.73-.95,2.97-.83.37.03.76.1,1.16.2,2.11.53,4.58,1.98,6.72,4.12,1.41,1.41,2.52,2.96,3.26,4.46.2.39.37.78.51,1.16.83,2.19.81,4.15-.27,5.23-.03.03-.07.05-.1.08l-.17.14c-.28.21-.59.37-.94.47l-9.01,4.53h-.02s-1.14,2.37-1.14,2.37l-3.25,6.72-.15.27c-.14.27-.29.48-.46.65-1.68,1.69-5.5.81-8.99-1.87-.15-.11-.31-.23-.47-.36-.15-.12-.3-.25-.45-.38-.32-.28-.63-.57-.94-.88-.27-.27-.53-.55-.78-.83ZM385.11,283.23c-.01.1-.02.21-.03.31-.11,1.13-.27,2.23-.47,3.29-.63,3.39-1.68,6.42-3,8.86-.7,1.3-1.48,2.43-2.31,3.35h-.01c-.06.08-.14.16-.21.24.05.1.1.19.16.29.1.18.2.36.31.54.03.07.07.13.12.2,1.15,1.93,2.49,3.4,3.92,4.28l-8.19,16.11v-20.59h1.73c-.55-.04-1.13-.09-1.73-.14v-.97c0-.16-.06-.3-.16-.4v-12.01c.55.31,1.12.57,1.72.79.07.02.14.04.2.04.24,0,.46-.15.55-.39.11-.3-.05-.63-.35-.74-.75-.27-1.47-.63-2.12-1.05-1.61-1.04-2.89-2.52-3.72-4.3-.69-1.48-1.02-3.07-.97-4.67.03-1.09.24-2.18.62-3.24.66-1.8,1.78-3.36,3.24-4.53.8,1.68,2.25,3.49,4.17,5.15.53.46,1.1.91,1.7,1.34.38.28.77.55,1.18.81,1.25.81,2.52,1.47,3.76,1.98.09,1.74.06,3.57-.11,5.45ZM387,305.49c2.47-.2,4.57-2.22,6.05-5.39h7.23s-8.93,40.91-8.93,40.91l-15-19.62,8.27-16.28c.78.31,1.58.44,2.38.38ZM374.24,300.11v20.81l-18.9,15.49,5.78-36.29h13.12ZM47.07,344.41V10.14h409.04v311.69l-5.59-5.57c-11.16-11.11-25.98-17.24-41.74-17.24h-7.2s-.04-.09-.07-.13c-.11-.14-.27-.22-.45-.22h-7.42c1.33-3.6,1.94-8.32,1.54-13.43-.41-5.13-1.77-9.73-3.68-13.08,0-.02-.01-.03-.02-.05-1.19-2.85-3.52-5.21-6.65-6.35-2.89-1.05-6.02-.91-8.8.38-2.78,1.3-4.9,3.61-5.95,6.5-.68,1.87-.86,3.84-.55,5.75-2.92,5.61-6.84,9.81-10.5,11.63.51,3.8,1.91,7.02,4.05,8.4h-2.36c-.29,0-.53.2-.57.49l-.02.14h-7.05c-.62,0-1.23.01-1.84.03V65.02l1.11-2.29,8.39-4.23c.47-.15.91-.37,1.3-.65l.76-.72c1.09-1.33,1.31-3.32.63-5.65-.03-.11-.06-.21-.11-.32h76.91c.33,0,.58-.26.58-.58s-.25-.58-.58-.58h-77.35c-.82-1.91-2.15-3.82-3.85-5.52-2.15-2.15-4.63-3.71-7-4.4-.27-.08-.53-.15-.79-.19v-13.05c0-.32-.26-.58-.58-.58s-.58.26-.58.58v12.87c-1.49-.11-2.76.23-3.71.99l-.71.77c-.29.38-.51.82-.65,1.29l-3.65,7.24h-92.93v-23.16c0-.32-.26-.58-.58-.58s-.58.26-.58.58v23.16h-95.34c-.1,0-.21,0-.35,0s-.25,0-.35,0H59.68c-.32,0-.58.26-.58.58s.26.58.58.58h91.33v5.93l-26.07-3.42-7.44,56.64c-1.08.53-1.87,1.34-2.44,2.32.01-.1.01-.21.01-.32v-.05c0-2.28-1.21-4.07-2.76-4.07-.17,0-.33.02-.49.06-.09-.37-.19-.72-.31-1.07h0c2.08-1.05,3.42-2.68,3.42-4.51,0-3.17-4.02-5.75-8.98-5.75-3.68,0-6.85,1.42-8.24,3.44-.03.01-.07.02-.1.04-.03,0-.06,0-.09.01-4.79.11-8.64,4.04-8.64,8.86,0,3.22.53,7.65,3.07,10.31v10.1h-4.54s-8.62.03-8.62.03c-7.97.02-15.33,3.65-20.22,9.96-4.76,6.15-6.39,13.95-4.47,21.39.08.34.17.68.27,1.01l10.83,35.44v.08c0,.08.02.16.05.23v13.41h4.1l9.98,87.69-20.34,45.49h-11.92ZM206.49,104.91s.07.01.1.01c.14,0,.27-.05.37-.13.1-.08.18-.2.2-.34l.08-.41c.23-1.26.6-2.5,1.12-3.67l.05-.13c.07-.15.14-.31.21-.47v-.02c.6-1.38,1.25-2.86,1.36-3.1.26-.58.49-1.12.72-1.64.31-.73.6-1.41.86-2.03.91-2.16,1.58-3.72,2.39-5.18.75.51,1.22,1.36,1.23,2.29v1.06c.02,1.34-.22,2.64-.71,3.88-.03.04-.05.08-.06.13,0,.01,0,.02,0,.04-.02.05-.04.09-.06.14-.02.05-.04.09-.06.14l-1.82,4.08-.96,2.14c-.55,1.24-.96,2.54-1.22,3.86l-.1.49s-.01.07-.01.11h0c0,.06.01.1.03.15.05.21.22.38.44.42.04.01.07.01.11.01.27,0,.52-.19.57-.47l.1-.49c.24-1.24.62-2.45,1.14-3.6l2.61-5.85c2.82,3.12.49,7.89-1.4,11.76-.25.52-.5,1.03-.73,1.51-1.5,2.3-3.55,4.04-6.44,5.47l.07-.53h0s.07-.52.07-.52l-.55,1.25-.04.02c-.23.16-.46.38-.67.66-1.32,1.67-2.38,5.36-3.43,9.36-.02.06-.03.13-.05.19-.17.64-.32,1.23-.45,1.68-.08-.05-.16-.1-.24-.15-.19-.11-.38-.21-.58-.3l-12.92-6.18s-.02-.01-.03-.01c-.08-.04-.16-.08-.24-.11h.01c.22-.46.52-1.04.86-1.71,1.56-3.09,3.92-7.76,4.33-9.45.08-.31.11-.62.11-.91.02-.33,0-.64-.06-.95-.07-.5-.21-.98-.34-1.46-.26-.93-.5-1.8-.27-2.74,1.15-4.75,3.47-8.66,5.94-12.8.83-1.4,1.7-2.85,2.53-4.38.09-.2.29-.31.59-.32.59-.03,1.46.33,1.9,1.01.15.47.16,1.25-.12,1.86-1.24,2.65-2.59,5.56-3.89,8.44-.01.01-.01.02-.01.02-.04.08-.07.16-.1.23-.08.17-.16.34-.23.51-.32.71-.64,1.41-.95,2.11-.07.15-.06.32,0,.45.06.14.16.25.3.32h.01c.3.13.63,0,.76-.3.38-.85.76-1.71,1.15-2.57l1.35-.73.41-.22c2.46-1.33,4.44-3.49,5.56-6.06l1.17-2.67c.28-.63.55-1.21.83-1.73.42-.8.85-1.48,1.28-2.11h0c.48-.71.96-1.35,1.46-2l.27-.36c.45-.6,1.25-.81,1.93-.51l.18.08c.45.2.79.59.91,1.07.13.48.03.99-.27,1.38l-.32.42c-.65.85-1.18,1.66-1.65,2.48-.79,1.35-1.42,2.74-2.16,4.47-.17.39-.34.79-.52,1.22-.31.73-.64,1.51-1.01,2.38-.1.22-.2.46-.31.7h0c-.08.2-.17.39-.25.58-.07.16-.38.88-.76,1.74,0,0,0,.01,0,.01-.1.13-.22.26-.34.37l-.08.61c-.13.29-.26.58-.38.86l-.06.14c-.55,1.25-.95,2.57-1.19,3.93l-.04.21-.04.19c-.06.31.15.62.47.67ZM187.68,172.37l-3.06,6.34c-.19.39-.39.77-.6,1.14-.1.17-.2.35-.31.52-2.67,4.43-7,7.6-12.09,8.81-5.72,1.35-11.66.08-16.32-3.51l-3.13-2.41-1.16-.89-16.63-12.79-.23-.18c-.06-.04-.12-.08-.19-.09,0,0-.01-.01-.02-.01l-.68-.52v.88c-.03.06-.04.13-.04.2,0,.04,0,.09.01.13s.02.07.03.1v40.07h-10.84l-.79-.05c-.09,0-.18.02-.26.05h-55.05v-12.37c.03-.06.04-.13.04-.2v-46.53c0-.32-.26-.58-.58-.58s-.58.26-.58.58v42.86l-9.8-32.15c-.1-.32-.19-.65-.27-.97-1.83-7.13-.27-14.59,4.29-20.47,4.68-6.05,11.74-9.53,19.37-9.54l7.88-.02h5.53s.01,0,.01,0c.09.06.2.1.32.1h11.59c.07,0,.14-.01.2-.04.01,0,.02,0,.03-.01.05-.02.1-.05.14-.09h5.47s.03-.01.03-.01c.07.03.15.05.23.05l6.02-.02h5.77s.08-.01.08-.01c2.96,0,5.91.4,8.75,1.17.24.06.48.13.71.2.14.04.27.08.4.12,3.8,1.17,7.38,3.01,10.55,5.45l8.51,6.54,1.16.9,10.08,7.75.46.36.48.36,12.52,9.63c.06.05.12.09.19.1h0c.05.02.1.03.15.03.17,0,.34-.08.46-.23.14-.2.16-.45.04-.65h-.01c-.03-.07-.08-.12-.14-.16l-12.71-9.78,12.31-25.73.46-.95.24-.51c1.76-3.67,6-5.38,9.77-4.09.06.02.11.04.16.06.23.09.46.18.68.29l12.92,6.19c.8.38,1.5.87,2.1,1.46.36.34.69.72.97,1.13,1.6,2.28,1.96,5.33.68,8.02l-15.87,32.97-.24.5-.24.49.04.02ZM151.01,183.84v28.13l-16.68-1.06v-39.91l16.68,12.84ZM104.7,116.62c-.46-.3-.87-.74-1.16-1.28-.07-.11-.13-.23-.19-.36-.5-1.16-.42-2.4.12-3.27.26-.42.62-.76,1.08-.96.01-.01.02-.02.03-.02.62-.27,1.31-.26,1.95-.01.06-.5.08-.99.08-1.45,0-.29-.01-.58-.05-.87,1.41-.05,2.73-.32,3.88-.75.13.39.24.79.33,1.21.12.58.19,1.18.22,1.79.01.16.01.32.01.48v.29h-.22s-1.17-.1-1.17-.1c-.05.3-.07.61-.07.94,0,.07,0,.15.01.22l1.16.08.26.02c-.02.33-.04.68-.07,1.04h0c-.05.62-.12,1.28-.23,1.94-.56,3.65-2.08,7.63-5.97,7.78-.08.01-.16.01-.24.01-.11,0-.22,0-.34-.01-.19-.01-.38-.03-.58-.05v6.36l-10.43.03v-9.12c1.11.76,2.51,1.23,4.26,1.29.12.01.25.01.38.01.22,0,.44-.01.65-.03.3-.03.58-.07.86-.13h.01c1.76-.39,3.17-1.44,4.27-2.84.44-.56.83-1.17,1.16-1.81.07-.11.12-.22.17-.33-.06-.02-.12-.06-.17-.1ZM112.04,109.39c.09-.02.18-.04.27-.04.66,0,1.39.91,1.56,2.28l-1.71-.12v-.38c0-.59-.04-1.17-.12-1.74ZM112.13,112.67l1.75.13c-.15,1.42-.89,2.37-1.57,2.37-.13,0-.25-.03-.38-.1.1-.75.16-1.56.2-2.4ZM112.31,116.33c.62,0,1.2-.29,1.65-.79-.43,1.85-.54,3.86-.63,5.61-.03.55-.05,1.07-.09,1.57v.08c.17,2.36.88,4.56,2.24,6.79h-5.26c-.07.01-.14.02-.2.05h-5.32s0-5.14,0-5.14c3.67-.12,6.13-3.05,7.05-8.25.18.05.37.08.56.08ZM117.58,121.55c.06.02.12.03.18.03.24,0,.47-.16.55-.4l.14-.44c.39-1.19.64-2.43.74-3.68l.54-6.29c0-.1.03-.2.04-.31h0s0,0,0-.01c.15-1.26.54-2.46,1.16-3.57l.48-.86c.41-.72,1.14-1.17,1.94-1.26,0,1.52-.16,3.07-.38,5.2-.11,1.07-.24,2.27-.37,3.68-.02.21-.13,1.35-.24,2.54l-.11,1.2c-.11,1.18-.36,2.35-.74,3.47l-.12.36c-.1.3.06.63.36.73.06.02.12.03.19.03.24,0,.47-.15.55-.39l.12-.36c.41-1.21.68-2.46.8-3.73l.11-1.2c.11-1.2.22-2.34.24-2.55.13-1.41.25-2.61.36-3.67.37-3.49.58-5.59.16-8.57l-.07-.48c-.06-.44.08-.88.39-1.21.31-.32.74-.48,1.19-.44l.17.02c.67.06,1.21.57,1.3,1.24l.06.41c.27,1.87.53,3.64.28,6.32l-.25,2.69c-.25,2.59.39,5.23,1.8,7.43l.98,1.53h0c-.01.25-.03.49-.05.73-.03.34-.06.67-.09,1-.02.3-.04.59-.07.88-.03.31.2.59.52.62h.01c.14.02.28-.02.39-.1.13-.09.22-.24.23-.42.02-.28.05-.55.07-.83.03-.33.06-.66.09-.99,0-.09.01-.19.02-.28.01-.18.03-.36.05-.55,0,0,0-.02,0-.03.01-.05.01-.1.01-.15,0-.02,0-.04,0-.07h0v-.02c.23-2.93.44-5.88.63-8.57.05-.61.4-1.23.72-1.53.64-.34,1.49-.26,1.95.03.33.21.31.42.31.53-.01,1.57.04,3.13.09,4.65.07,2.21.14,4.35.04,6.49-.01.33-.03.66-.06,1-.13,1.83-.4,3.67-.91,5.53-.23.85-.82,1.45-1.44,2.07-.3.31-.61.62-.88.97-.21.25-.4.53-.55.84h0s-.01,0-.02-.01c-.5-.14-1.01-.27-1.52-.38-2.48-.56-5.02-.85-7.58-.85h-4.64s-.61,0-.61,0c-1.49-2.27-2.26-4.46-2.44-6.82.03-.49.06-1.01.09-1.55.18-3.44.39-7.55,2.82-9.42.32-.25.68-.46,1.09-.62.05-.02.09-.04.14-.05,0,0,0,0,0,0l-.5,5.84c-.1,1.16-.33,2.32-.69,3.43l-.14.44c-.1.3.07.63.37.73ZM152.17,143.2v-19.12c0-.15-.02-.3-.06-.43h.06s22.63,2.98,22.63,2.98l-12.04,25.16-10.59-8.14-1.16-.9-7.8-6c-3.26-2.5-6.94-4.4-10.85-5.61.29-.49.69-.89,1.11-1.32.7-.71,1.42-1.44,1.74-2.58.52-1.93.8-3.81.94-5.69l14.88,1.96h.07s0,.01,0,.01c-.04.1-.06.21-.08.33-.02.07-.02.16-.02.23v18.62c.4.15.78.31,1.16.49ZM202.56,127.89c.15-.49.34-1.22.57-2.1.45-1.73,1.14-4.32,1.91-6.39l-1.27,9.67c-.36-.43-.76-.83-1.21-1.18ZM209.75,83.53h0c-.76,1.12-1.52,2.41-2.27,4.11l-1.16,2.68c-1.02,2.33-2.82,4.29-5.06,5.5l-.4.22c1.09-2.39,2.2-4.77,3.22-6.97.45-.98.4-2.11.14-2.8l-.05-.1c-.61-1-1.87-1.69-2.99-1.62-.72.04-1.3.4-1.56.96-.8,1.47-1.66,2.91-2.49,4.31-2.51,4.21-4.88,8.19-6.07,13.12-.3,1.23,0,2.3.29,3.32.26.93.5,1.8.28,2.74-.38,1.56-2.8,6.34-4.25,9.19-.37.74-.69,1.37-.92,1.84-4.21-1.25-8.84.72-10.8,4.8l-.41.85-39.05-5.13c.11-2.2.04-4.41-.03-6.68-.04-1.5-.09-3.06-.09-4.57.05-.62-.26-1.18-.85-1.55-.89-.56-2.23-.58-3.19-.03l-.09.06c-.52.46-1.08,1.36-1.15,2.37-.16,2.19-.33,4.57-.51,6.96,0,0,0,0,0,0l-.16-.25c-1.27-1.98-1.84-4.36-1.62-6.69l.25-2.69c.27-2.82-.01-4.74-.28-6.6l-.06-.41c-.17-1.2-1.13-2.12-2.34-2.23l-.17-.02c-.81-.08-1.58.22-2.14.8-.56.58-.81,1.38-.7,2.17l.07.48c.1.68.16,1.3.19,1.91-1.21.1-2.31.79-2.92,1.87l-.48.86c-.63,1.11-1.04,2.31-1.24,3.56,0,0,0,0,0,0h-.01s-.07.02-.11.03l7.24-55.11,86.23,11.33-2.29,17.41ZM50.38,366.5l9.36-20.93.52-1.16,20.01-44.75,13.16,2.54s.07.01.11.01c.27,0,.51-.19.57-.47.06-.31-.15-.62-.46-.68l-13.21-2.55-9.92-87.28h50.9s.1.04.15.04l8.15.52,21.3,1.35,1.16.07,27.66,1.75c8.94.54,16.88,5.15,21.79,12.63,4.68,7.14,5.86,15.75,3.31,23.83h0s-.05.08-.07.12h0s-2.76,7.66-2.76,7.66c0,.01,0,.02-.02.03l-.06.17-27.71,76.79-6.74-2.43-27.55-9.94-5.62-2.03,12.32-34.15,33.5-28.85,4.45.24s.02.01.03.01c.3,0,.56-.24.58-.55h0c0-.33-.23-.6-.55-.61l-27.34-1.49-5.22-.28-1.16-.07-32.39-1.76h-.11s-.05-.01-.05-.01c-.14-.01-.29-.02-.43-.03-.2-.01-.39-.03-.59-.04-5.55-.44-10.87-1.97-15.82-4.54-.29-.14-.63-.03-.78.24h0c-.15.3-.04.65.24.79,5.16,2.68,10.71,4.26,16.51,4.68l4.37,33.43c1.43,10.88-.18,21.94-4.64,31.96l-10.58,23.65-.52,1.16-17.08,38.18-5.55-2.47-28.48-12.67-4.73-2.11ZM92.45,398.85c-.06.07-.11.15-.13.23-3.35,3.66-6.7,7.33-10.06,10.99-.96-.27-1.84-.42-2.56-.51-1.69-.21-3.26-.98-4.46-2.18l.86-7.37c.02-.18-.04-.36-.17-.49l-2.22-2.19,4.84-7.35c.16-.26.1-.6-.14-.78l-.03-.02,4.56-6.92,6.26,2.79c.08.03.16.05.24.05.22,0,.43-.13.53-.35l17.52-39.18h20.37l-2.24,26.96c-.89.17-1.56.96-1.57,1.9l-.02,6.61h-14.98c-.16,0-.31.06-.43.18l-16.17,17.63ZM93.22,399.82h16.42v26.43h-15.79c0-.15,0-.29,0-.43,0-.16-.01-.32-.02-.47,0-.16-.01-.31-.03-.46,0-.21-.03-.41-.05-.6-.02-.26-.05-.52-.08-.78-.04-.33-.09-.66-.15-.97-.17-.97-.39-1.87-.67-2.7-.09-.26-.18-.51-.28-.75-.05-.14-.1-.27-.16-.4-.1-.23-.2-.45-.3-.67-2.04-4.38-5.56-6.52-8.6-7.57,3.24-3.54,6.48-7.09,9.72-10.63ZM108.01,344.41l10.36-23.18c4.56-10.22,6.19-21.49,4.74-32.58l-4.34-33.2,32.24,1.75v15.14l-17.9,49.6c-.05.14-.04.3.02.44.07.14.19.25.33.3l6.11,2.21-3.09,7.43h-.19c-.25-.02-.48.12-.57.34l-3.87,9.3h-3.15c-.3,0-.55.23-.58.53l-.16,1.92h-19.95ZM136.63,333.49l29.87,1.94-2.73,6.53h-30.66l3.52-8.47ZM152.17,269.13v-11.87l4.2.23-4.2,11.64ZM53.44,372.14l23.84,17.66-4.42,6.7-21.55-21.18,2.13-3.18ZM58.3,421.67l-29.85-32.96,19.71-14.86,1.65,1.62.42.42.42.41,21.56,21.19.42.41.43.42,1.86,1.83-.87,7.37c-.02.17.04.34.15.46.76.82,1.67,1.48,2.67,1.95l-11.75,9.02c-.26.19-.31.56-.11.81.11.15.29.23.46.23.12,0,.25-.04.35-.12l11.91-9.13c.54.18,1.1.3,1.66.38.57.07,1.13.16,1.66.28.45.08.88.18,1.3.31,5.34,1.46,8.69,4.97,9.87,10.32.06.24.1.49.14.74.08.42.14.84.19,1.28.08.69.12,1.41.14,2.16h-24.16c-.34,0-.68-.01-1.01-.04-3.52-.26-6.84-1.87-9.22-4.5ZM51.78,445.03h57.86v26.43H27.48c8.05-8.75,16.16-17.57,24.3-26.43ZM117.31,489.09H11.71l15.11-16.47h105.57l-15.08,16.47ZM133.45,471.46h-22.65v-26.43h46.84l-24.19,26.43ZM158.45,443.87H53.04l6.51-7.3c.12-.13.24-.26.35-.39,2.69-2.92,5.37-5.84,8.05-8.77h105.62l-15.12,16.46ZM174.82,426.25h-64.02v-26.43h88.21l-24.19,26.43ZM206.09,382.2h9.05l-.43.47-14.68,15.99h-105.75c4.85-5.3,9.68-10.59,14.5-15.88.17-.19.35-.39.53-.58h14.72v.21c0,1.16.94,2.11,2.1,2.11h76.8c1.48,0,2.74-.97,3.16-2.32ZM175.12,353.41l.05.03-7.74,4.51c-.27.16-.37.52-.2.79.1.19.3.29.5.29.1,0,.2-.03.29-.08l7.87-4.59c.11-.06.19-.15.24-.26l1.71,1.17c.73.55,1.52,1,2.35,1.37-.06.05-.11.12-.16.19l-7.43,11.31c-.18.27-.11.62.16.8.27.18.63.1.81-.17l7.43-11.3c.04-.07.13-.1.2-.09l14.41,2.19c2.04.31,3.79,1.33,5.03,2.77.07.08.14.16.19.24.96,1.34,1.52,2.97,1.52,4.7v5.21h-4.08l-71.45-.35,2.21-26.57.09-1.16.11-1.29h34.37s.02,0,.03,0c.09-.02.18-.04.27-.03h.02c.09,0,.19.01.28.03,0,0,.01,0,.02,0h3.12s.03.09.05.13c.11.29.26.69.46,1.16.15.35.32.74.53,1.16,1.09,2.22,3.1,5.34,6.74,7.84ZM169.11,344.41c-.3-.66-.5-1.19-.63-1.56-.11-.29-.18-.47-.24-.59-.11-.18-.3-.3-.51-.3h-2.71l2.86-6.84h0s6.58,2.36,6.58,2.36c.06.02.13.03.19.03.24,0,.46-.14.55-.38l27.91-77.33s0-.01.01-.01c.03-.05.06-.1.09-.16l2.41-6.63c3.18-8.76,2.08-18.25-3.03-26.04-5.12-7.8-13.38-12.59-22.68-13.16l-27.74-1.76v-27.31l2.42,1.86c3.65,2.81,8.03,4.28,12.52,4.28,1.59,0,3.19-.19,4.78-.57,6.05-1.43,11.08-5.47,13.78-11.08l3.24-6.73c.03-.06.05-.12.05-.18,0-.02,0-.03,0-.05l.09-.18,15.97-33.19c1.37-2.86,1.11-6.09-.41-8.63l1.78-13.6h0c.13-.16.26-.29.38-.38,3.27-1.56,5.59-3.49,7.27-6.08l.04-.07c.23-.49.48-1,.74-1.53,2.02-4.13,4.75-9.75.83-13.43.46-1.29.7-2.64.68-4.03v-1.06c-.02-1.34-.71-2.57-1.81-3.28.36-.57.75-1.14,1.21-1.75l.32-.42c.52-.68.69-1.55.47-2.37-.21-.83-.79-1.5-1.57-1.84l-.17-.08c-1.18-.52-2.55-.16-3.33.87l-.27.36c-.07.1-.15.19-.22.29l2.12-16.11.07-.5-60.99-8.01h0v-6.08h95.1v129.9c-11.21,4.08-19.21,14.83-19.21,27.45,0,9.11,4.17,17.24,10.7,22.6,1.76,1.44,3.16,3.23,4.12,5.23.94,1.98,1.46,4.18,1.47,6.43h-.95c-.32,0-.58.26-.58.58v6.88c0,4.09,1.71,7.79,4.45,10.41v11.18c-.23.45-.38.94-.42,1.46l-2.44-6.13c-.83-2.05-3.18-3.07-5.24-2.27-1.96.76-3.03,2.93-2.44,4.95l.9,3.07-4.33-3.17c-1.99-1.36-4.68-.92-6.13,1-1.42,1.87-1.14,4.55.63,6.1l19.47,16.96v19.5c0,.32.26.58.58.58s.58-.26.58-.58v-18.49l18.09,15.77c1.19,11.96,2.03,22.6,2.93,33.84h-100.34ZM312.68,384c-2.02,2.43-4.48,4.48-7.29,6.09-.39.19-.91.4-1.41.6-.51.2-1.03.41-1.46.62-6.98,2.32-15.36.75-21.87-4.08-2.82-2.1-5.19-5.93-6.02-7.85-.69-1.59-1.07-3.63-1.4-5.44-.08-.44-.16-.88-.24-1.28-.89-9.57-1.6-18.48-2.29-27.09-.03-.35-.05-.69-.08-1.04,0-.04-.01-.08-.01-.12-.85-10.74-1.66-20.94-2.77-32.24v-.02c-.05-.5-.1-1-.15-1.5.12-.21.09-.47-.07-.65,0-.05-.01-.09-.01-.14-.01-.09-.03-.16-.07-.23-.11-.19-.33-.3-.56-.29-.03,0-.05.01-.08.01l-13.28-11.57-.12-.1-5.07-4.42-1.16-1.01-18.71-16.3c-1.31-1.14-1.52-3.13-.47-4.52,1.08-1.43,3.08-1.76,4.54-.76l5.55,4.08,2.75,9.33c.37,1.23.96,2.36,1.78,3.35.11.14.28.21.45.21.13,0,.26-.04.36-.13.25-.2.29-.57.09-.81-.72-.88-1.25-1.87-1.56-2.95l-2.72-9.2-.19-.66-.19-.64-1.11-3.75c-.42-1.44.34-3,1.74-3.54,1.48-.57,3.16.16,3.75,1.62l2.12,5.32.35.87.35.89h0l.95,2.39s.02.04.03.05l.13,1.38.8,8.53c.06.69.18,1.34.36,1.97.19.73.45,1.43.76,2.11.54,1.22,1.22,2.38,1.92,3.58l.09.16c.16.27.51.37.79.21.28-.17.37-.52.21-.8l-.09-.15c-.69-1.18-1.36-2.34-1.89-3.53-.5-1.16-.88-2.35-1-3.66l-.76-8.17-.03-.33v-6.27c.41-.67,1.08-1.17,1.89-1.34,1.55-.32,3.09.68,3.43,2.22l1.22,5.52.17.76.17.78,1.3,5.89c.55,2.49,1.8,4.74,3.65,6.55l2.76,2.33,3.21,2.71c.11.09.24.14.37.14.17,0,.33-.07.44-.21.21-.24.18-.61-.07-.82l-5.93-5.01c-1.66-1.62-2.79-3.67-3.29-5.94l-1.08-4.86c2.62,1.4,5.56,2.14,8.54,2.14h5.96l1.72,5.08c.09.24.31.39.55.39.06,0,.13,0,.19-.03.3-.1.46-.43.36-.73l-1.85-5.47-4.13-12.47c-.54-1.62.33-3.41,1.94-3.99l.41-.14c1.6-.57,3.36.22,4,1.8l1.51,3.71c1.33,3.28,3.08,6.38,5.22,9.2,2.47,3.26,4.17,5.62,4.91,6.83,3.68,6.02-.37,10.82-.55,11.02h0c-.05.06-.08.12-.1.18-.02.05-.04.1-.03.16-.02.06-.01.11,0,.17.43,1.87.99,4.12,1.64,6.61.32,1.23.66,2.51,1.02,3.84,3.19,11.84,7.68,27.13,9.93,34.77.05.16.1.33.14.49.12.4.24.8.34,1.16.59,2,.99,3.39,1.07,3.67,0,.02,0,.03,0,.05l4.46,18.55c.07.26.3.44.57.44.04,0,.09,0,.13-.01.31-.08.5-.39.43-.7l-4.39-18.27,3.21-3.73,1-1.16,6.93-8.05,5.1,5.85s0,.04.01.06l.67,2.14.37,1.16.45,1.45h-7.16c-.19,0-.36.08-.47.23-.11.15-.14.34-.09.52l8.81,27.97c-2.24,2.72-4.52,5.48-6.82,8.26ZM339.25,351.66h-5.33v-.26l-.3.26h-12.53l-1.1-3.48-.16-.52-.61-1.94-.05-.15h0l-.37-1.19h0s0,0,0,0l-.39-1.25h0v-.02l-.13-.42h34.09l.55,1.73.36,1.16.46,1.45.18.58.18.58,1.1,3.48h-15.93ZM348.93,367.21s-.11-.01-.16-.01c.03-.06.05-.13.09-.19.02.07.04.13.07.2ZM381.94,407.9h-5.02c-.25-4.59-.38-9.01-.4-13.25.46.16.92.3,1.38.41l4.04,12.84ZM487.79,377.78c-3.25,8.57-10.96,14.08-20.13,14.37l-39.86,1.28-.62.02h-.6s-34.53,1.12-34.53,1.12l-.92.03-.53.02h-.06l-.57.02-1.99.06h-5.17c-.06-.02-.13-.04-.2-.04-.12-.01-.23-.02-.35-.03-1.17-.09-2.32-.27-3.45-.53h0c-.22-.05-.44-.11-.66-.17-.22-.06-.45-.12-.67-.19-.33-.1-.65-.2-.97-.32-.22-.07-.44-.16-.66-.24l-8.48-3.28h5.41c.32,0,.58-.26.58-.58s-.26-.58-.58-.58h-13.51c-.72,0-1.42-.13-2.1-.39l-6.44-2.5c-.81-.31-1.35-1.1-1.35-1.97v-.27c0-.09.01-.18.02-.26,0-.06.02-.12.03-.18.01-.07.03-.13.05-.2.02-.07.04-.13.07-.2.05-.12.11-.23.19-.34.04-.07.09-.14.15-.2.11-.13.23-.24.37-.34.19-.13.4-.24.61-.31.2-.06.41-.09.62-.09.11,0,.23.01.35.03.11.01.23.04.34.09.01,0,.02.01.03.01.02,0,.03.01.05.01l5.17,2.01c1.14.44,2.33.66,3.54.66h11.81c.32,0,.57-.25.58-.57h0c0-.33-.26-.59-.58-.59h-11.81c-1.07,0-2.12-.2-3.12-.58l-5.17-2.01s-.07-.03-.1-.03l-.19-.07-3.47-1.34c-.64-.25-1.11-.79-1.27-1.44-.06-.17-.08-.35-.08-.54v-.26c0-.09.01-.18.02-.27.06-.53.31-1,.72-1.34.47-.4,1.08-.58,1.68-.48h.01l4.71,1.82,1.37.53,1.4.54.72.28c1.1.43,2.24.68,3.41.75.26.02.52.03.78.03h10.39c.21,0,.39-.11.49-.28.17-.47-.21-.52-.21-.52l-5.58-.09-3.37.02c-2.92.39-6.02-.48-9.93-2.35-2.06-.98-3.84-1.84-3.84-1.84l-2.45-.95c-.33-.13-.62-.33-.83-.59-.08-.08-.14-.17-.2-.27.46-1.18.94-2.33,1.41-3.46l.18-.03c.32-.03.66.01.98.14l1.25.48,3.67,1.42.72.28.8.31,3.8,1.47c.84.32,1.71.53,2.59.62.33.03.66.05.99.05h9.54c.08,0,.16-.02.23-.05.2-.08.34-.27.35-.5v-.03c0-.32-.26-.58-.58-.58h-9.54c-1.08,0-2.15-.2-3.16-.59l-4.76-1.84-.62-.24-.6-.23-2.96-1.15s-.01-.01-.02-.01h-.01c-.77-.34-1.27-1.1-1.27-1.93v-.27c0-.71.34-1.34.93-1.74.58-.41,1.3-.49,1.96-.23l2.86,1.11.59.22.6.24,5.72,2.21c.07.01.14.03.21.04h5.13s.09-.01.13-.02h4.81c.31,0,.57-.25.58-.56v-.02c0-.32-.26-.58-.58-.58h-2.69l-.63-2c2.89.22,5.73.99,8.33,2.26l.63.3,1.25.62h.01l.39.19h.02s8.17,4.01,8.17,4.01c.05.37.1.75.14,1.13.02.06.02.13.03.19h1.17c-.02-.13-.03-.25-.05-.37-.01-.11-.03-.23-.04-.34l.53.26.59.29h.01c.1.1.23.15.37.15h.01s.05-.01.08-.01l.87-.14h.05s1.01-.17,1.01-.17h0l23.4-3.71.6-.09.61-.1,14.82-2.35.53-.08.54-.08,4.98-.8s.06,0,.09-.01l.57-.09,22.35-3.47c.32-.05.54-.34.49-.66-.05-.32-.35-.53-.66-.48l-14.72,2.29-5.56-5.46,12.09-12.09h0l.58-.58,2.36-2.36,1.15-1.15,5.85-5.85,19.13,18.05c6.67,6.29,8.79,15.53,5.55,24.1Z"/>
</svg>