<?xml version="1.0" encoding="UTF-8"?>
<svg id="Camada_1" data-name="Camada 1" xmlns="http://www.w3.org/2000/svg" viewBox="0 0 500 500">
  <defs>
    <style>
      .cls-1 {
        fill: #141411;
        stroke-width: 0px;
      }
    </style>
  </defs>
  <path class="cls-1" d="M379.03,306.9l-8.73-1.53c-.17-.03-.33.02-.46.12-.05.04-.09.09-.12.14-.05.09-.08.19-.08.29v8.43c0,.27.2.5.46.55l8.73,1.53s.07.01.1.01c.13,0,.26-.05.36-.13.13-.11.2-.27.2-.43v-8.42s0-.05-.01-.07c-.02-.25-.2-.44-.45-.49ZM378.37,315.21l-7.61-1.33v-7.29l7.61,1.34v7.28Z"/>
  <path class="cls-1" d="M47.7,116.34c-.19.25-.14.6.11.78l2.16,1.65c.1.08.22.11.34.11.17,0,.34-.08.45-.22.19-.25.14-.6-.11-.78l-2.16-1.65c-.25-.19-.6-.14-.78.11Z"/>
  <path class="cls-1" d="M406.13,391.41l-3.07-1.01c-.5-.16-.86-.6-.93-1.11-.06-.53-.16-1.06-.27-1.59-.11-.51.09-1.03.5-1.34l2.57-1.94c.5-.38.67-1.05.41-1.63l-1.08-2.33c-.27-.58-.89-.9-1.52-.77l-3.15.65c-.51.1-1.04-.09-1.35-.51-.33-.42-.68-.84-1.04-1.24-.36-.39-.45-.94-.25-1.42l1.24-2.95c.24-.58.05-1.26-.47-1.62l-2.11-1.5c-.51-.37-1.22-.33-1.69.09l-2.4,2.13c-.38.34-.94.44-1.42.24-.5-.22-1.02-.41-1.53-.58-.5-.16-.85-.6-.92-1.11l-.41-3.18c-.08-.62-.59-1.11-1.22-1.17l-2.57-.25c-.64-.06-1.22.32-1.42.91l-1,3.05c-.16.49-.59.85-1.1.91-.54.07-1.08.15-1.62.26-.5.11-1.03-.09-1.34-.51l-1.97-2.55c-.38-.51-1.07-.68-1.64-.42l-2.35,1.06c-.57.26-.89.88-.76,1.5l.67,3.13c.11.51-.08,1.03-.5,1.35-.43.32-.84.66-1.24,1.02-.39.35-.95.44-1.43.24l-2.98-1.25c-.59-.25-1.26-.06-1.63.45l-1.49,2.09c-.37.51-.33,1.21.1,1.68l2.15,2.39c.35.39.45.94.25,1.42-.21.5-.4,1.01-.57,1.52-.16.49-.6.84-1.11.9l-3.2.39c-.63.08-1.11.58-1.17,1.21l-.24,2.55c-.06.63.33,1.22.93,1.41l3.07,1.01c.5.17.86.59.93,1.11.07.53.16,1.07.27,1.6.11.51-.09,1.03-.5,1.34l-2.57,1.93c-.5.38-.67,1.06-.41,1.63l1.08,2.34c.27.57.9.89,1.52.76l3.15-.64c.51-.11,1.04.09,1.36.5.32.43.67.84,1.04,1.24.35.39.44.95.24,1.42l-1.24,2.96c-.24.58-.05,1.25.47,1.62l2.11,1.49c.52.37,1.22.33,1.69-.09l2.4-2.13c.38-.34.94-.44,1.42-.23.51.21,1.02.4,1.54.57.49.17.84.6.91,1.11l.42,3.18c.08.62.58,1.11,1.22,1.17l2.57.26c.63.06,1.22-.32,1.41-.92l1-3.05c.16-.49.6-.84,1.11-.91.54-.06,1.07-.15,1.6-.26.51-.1,1.04.09,1.36.51l1.96,2.56c.38.5,1.07.67,1.64.41l2.35-1.05c.58-.26.89-.89.76-1.51l-.67-3.13c-.11-.51.09-1.03.5-1.34.43-.33.84-.67,1.25-1.03.39-.35.94-.44,1.43-.23l2.97,1.25c.59.24,1.27.05,1.63-.46l1.5-2.09c.36-.51.32-1.21-.1-1.68l-2.16-2.39c-.35-.39-.45-.94-.25-1.41.21-.51.4-1.01.57-1.53.16-.49.6-.83,1.11-.9l3.2-.39c.63-.08,1.12-.58,1.18-1.21l.23-2.55c.06-.63-.32-1.21-.93-1.41ZM392.84,395.63c-2.15,5.68-8.54,8.53-14.27,6.36-5.74-2.17-8.64-8.54-6.49-14.22,2.15-5.69,8.54-8.53,14.28-6.36,5.73,2.17,8.64,8.53,6.48,14.22Z"/>
  <path class="cls-1" d="M379.03,290.65l-8.73-1.53c-.17-.03-.33.02-.46.12-.13.11-.2.27-.2.43v8.43c0,.27.2.5.46.55l8.73,1.53s.07.01.1.01c.13,0,.26-.05.36-.13.13-.11.2-.27.2-.43v-8.42c0-.28-.19-.51-.46-.56ZM378.37,293.95v5.01l-7.61-1.33v-7.29l7.61,1.34v2.27Z"/>
  <path class="cls-1" d="M453.07,139.78c-.6,0-1.21-.02-1.83-.05-.19-.01-.37-.02-.56-.03-.19-.01-.37-.02-.56-.04v213.66c0,2.69-1.18,5.23-3.25,6.96-.4.34-.83.64-1.28.89h-.01l-131.37-22.73-9.78-1.69-.56-.1-.56-.1v1.69l-84.08-15.18v-1.06l-8.88-1.54-.56-.09-.56-.1-54.55-9.44-.55-.1-.3-.05-10.07-1.82c-.02-6.21-.18-12.26-.52-17.66,0,0,0,0,0,0l37.3,6.55c.61.11,1.22.16,1.81.16,2.15,0,4.14-.7,5.73-2.03,2.06-1.73,3.2-4.32,3.2-7.28v-34.01c3.34-4.67,7.45-11.69,11.53-18.99v56.35c0,4.47,2.65,8.78,6.42,11.1.18.11.37.22.56.32.18.1.37.19.56.28.95.46,1.96.8,3,.98l5.88,1.03,72.77,12.77c.61.11,1.22.16,1.81.16,2.15,0,4.14-.69,5.73-2.03,2.06-1.73,3.19-4.31,3.19-7.27v-80.83c0-5.98-4.73-11.66-10.54-12.69l-72.39-12.7c.13-.18.25-.35.38-.54.9-1.26,1.82-2.57,2.78-3.87.82-1.12,1.15-2.02,1.01-2.76-.09-.48-.37-.87-.84-1.16-1.15-.73-2.67-.3-3.68,1.05-1.28,1.69-3.18,4.01-5.47,6.26l-.43-.08c-2.84-.5-5.52.17-7.54,1.87-2.07,1.73-3.2,4.32-3.2,7.28v4.75s0,0,0,0c-.28.42-.54.8-.75,1.11-.26.38-.46.68-.6.89-.43.62-4.08,3.83-10.18,8.96v-19.06c0-5.97-4.73-11.66-10.55-12.68l-58.21-10.21v.94s0-1.61,0-1.61c2.32,0,5.46-.73,9.43-2.83,1.12-.6,1.66-1.9,1.28-3.11-.22-.68-.46-1.45-.73-2.24l44.44,7.8c.61.11,1.22.17,1.81.17,2.15,0,4.14-.7,5.73-2.03,2.06-1.74,3.19-4.32,3.19-7.28v-80.83c0-5.97-4.73-11.66-10.54-12.68l-78.64-13.81c-2.84-.49-5.52.17-7.55,1.87-2.06,1.73-3.19,4.32-3.19,7.28v80.83c0,5.97,4.73,11.66,10.54,12.68l5.99,1.05c.34,1.22.58,2.27.84,3.12l-.08,7.61-2.94-.52c-2.84-.5-5.52.16-7.54,1.87-1.81,1.52-2.91,3.7-3.15,6.21,0,0,0,0,0,0-2.27.43-4.46.97-6.48,1.62-9.06,2.91-16.37,9.95-21.97,17.57,0,0,0,0,0,0V54.68c0-2.69,1.19-5.23,3.26-6.96,2.06-1.73,4.77-2.45,7.43-1.97l321.85,58.11c-.09-.2-.18-.41-.26-.61-.08-.2-.16-.41-.24-.61-.34-.88-.62-1.77-.84-2.64-.66-2.6-.73-4.98-.23-7.1L86.28,37.4c-2.55-.46-5.18-.05-7.47,1.17l-12.48,6.7-.02.97c-.28.19-.56.4-.82.62-2.33,1.94-3.66,4.79-3.66,7.82v155.45s0,0,0,0c-5.42,7.78-9.1,15.91-11.04,20.76-.79,1.98-.18,4.28,1.48,5.61l.94.75c-6.17,20.98-10.91,47.12-10.86,56.44.01,2.81-1.14,5.49-3.16,7.36-2.95,2.73-4.76,4.96-5.4,6.61-1.12,2.93-.49,10.82,0,15.25.12,1.09.77,2.03,1.76,2.51.41.2.86.3,1.3.3.52,0,1.05-.14,1.51-.43,1.1-.68,1.61-1.94,1.52-3.74-.03-.76-.07-1.49-.07-2.16.01-2.67,1.2-5.19,3.26-6.91,2.98-2.49,6.62-6,7.02-8.62.06-.4-.05-.9-.19-1.47-.13-.57-.29-1.27-.18-1.6,7.37-20.93,15.17-40.5,19.41-50.87.8.53,1.86.47,2.6-.16,1.75-1.49,3.32-3.4,4.58-4.94.62-.76,1.3-1.6,1.72-1.99,2.43,8.45-1.4,20.73-4.5,30.62-1.34,4.32-2.5,8.04-3,10.92-.37,2.14.66,4.29,2.56,5.33,1.11.61,2.38,1.2,3.76,1.77-.58,1.36-1.25,2.99-1.98,4.96,0,0,0,0,0,0l-4.45-.8c-4.32-.78-7.46-4.54-7.46-8.93v-21.36c-.37.94-.74,1.89-1.12,2.86v18.49c0,4.93,3.53,9.15,8.38,10.03l4.26.77c-3.52,9.63-8.57,26.71-14.51,57.88-6.74,35.39-22.63,52.17-30.94,86.06l-2.19,10.68c-.14.71.09,1.75.36,2.63-1.01,1.75-2.48,3.52-4.22,5.09l-.14-.72c-.09-.43-.35-.81-.73-1.04-.38-.23-.84-.28-1.27-.15-5.29,1.62-11.15,8.29-13.43,11.09-.8.98-1.05,2.54-.08,3.46,5.12,4.83,9.02,8.77,12.16,11.93,5.54,5.59,8.59,8.67,11.77,10.07,2.91,1.28,5.35,1.69,7.29,1.69s3.34-.4,4.25-.77c1.55-.64,2.73-1.65,3.16-2.72l.08-.2c.22-.56.16-1.2-.18-1.71l-2.44-3.68c-3.12-4.7-5.09-10.16-5.68-15.79l-.31-2.9c-.05-.53-.33-1.02-.76-1.33-.35-.26-.79-.39-1.23-.35.31-2.08.94-4.22,1.58-6.06.48-.04.95-.12,1.42-.23,0,0,2.05-.86,2.77-1.71,4.99-5.88,26.54-28.33,40.63-47.47,3.47-17.67,6.53-29.27,9.99-38,5.48-13.8,8.36-28.17,8.56-42.7l.1-7.22c0-.3.28-.55.56-.55.31.01.56.26.56.57l-.09,6.27v.94c-.14,8.9-1.26,17.74-3.36,26.43-.01.05-.02.1-.03.15-.42,1.77-.89,3.54-1.4,5.3,0,.03-.02.07-.04.12-1.09,3.73-2.36,7.43-3.81,11.1-.77,1.93-1.51,4-2.25,6.25-2.55,8.5-4.86,18.04-6.68,28.42-2.71,15.46-4.3,32.79-3.91,51.34.02,1.17.38,2.29,1.03,3.2-.6,3.39-1.59,7.4-2.53,10.46l-.61-1.48c-.03-.09-.1-.18-.18-.24-.37-.27-.83-.38-1.27-.29-.44.09-.81.35-1.04.74-1.74,2.95-4.7,10.25-5.46,13.97-.68,3.36.49,6.17,3.39,8.15,1.87,1.27,4.15,1.95,6.59,1.96,2.27,0,6.18.01,9.98.01,2.96,0,5.57.07,7.87.13,1.77.05,3.3.08,4.61.08,2.08,0,3.59-.09,4.54-.42,6.22-2.16,8.62-5.63,9.51-7.51.75-1.59.94-3.21.53-4.33l-.08-.21c-.22-.59-.71-1.03-1.32-1.17l-1.12-.28c-5.74-1.4-11.12-4.22-15.55-8.16l-2.27-2.02c-.41-.36-.95-.53-1.49-.47-.5.05-.96.3-1.27.68-.16-2.13-.08-4.5.12-6.75.83-.48,1.52-1.19,1.99-2.06,6.31-11.82,40.51-70.03,45.66-111.4,1.18-9.51,2.1-26.33,2.1-42.28v.03l65.47,11.82v27.22c0,7.55-4.94,14.54-12.6,17.8l-28.98,12.37c-.89.39-1.45,1.08-1.51,1.87-.23.03-.36.02-.38-.02l-.06,8.39c-.01,1.56,1.3,2.62,3.12,2.95l79.33,14.51c3.62,0,7.2-.81,10.49-2.19l42.96-18.09c7.73-3.26,12.61-10.25,12.61-17.88v-27.97l125.02,22.57c.61.11,1.22.17,1.83.17,2.19,0,4.34-.72,6.12-2.07l.53.09,10.4-9.71c2.33-2.18,3.65-5.23,3.65-8.42l-.07-204.97c-2.47.9-5.38,1.34-8.62,1.34ZM36.31,468.51l.31,2.9c.61,5.8,2.64,11.44,5.86,16.29l2.44,3.68c.13.2.16.45.07.67l-.08.2c-.24.61-1.04,1.49-2.55,2.1-1.66.68-5.26,1.47-10.66-.91-2.98-1.31-5.98-4.34-11.43-9.83-3.14-3.17-7.05-7.11-12.19-11.96-.47-.44-.28-1.36.19-1.94,2.21-2.71,7.9-9.19,12.89-10.72.05-.01.09-.02.14-.02.08,0,.16.02.23.06.1.07.17.17.2.29l.26,1.35.12.63.12.61.6,3.09c.08.39.19.77.36,1.12.15.37.36.72.61,1.04h.01c.34.48.76.87,1.25,1.2.59.39,1.23.66,1.9.78h0c.39.08.8.11,1.2.09.26-.01.52-.05.79-.1l5.18-1.05.57-.11.57-.12.12-.02c.21-.04.43.01.6.13.18.13.29.33.31.55ZM34.26,466.92l-5.52,1.12c-1.07.21-2.15,0-3.06-.61-.92-.61-1.54-1.55-1.75-2.65l-.71-3.68c1.77-1.52,3.31-3.26,4.45-5.01.08.2.13.32.13.32,1.89,2.65,4.86,4.2,7.99,4.28-.64,1.91-1.25,4.1-1.53,6.23ZM95.28,472.89c.23-.02.45.05.63.2l2.26,2.02c4.58,4.05,10.12,6.96,16.04,8.41l1.11.27c.25.06.45.24.54.48l.08.21c.24.66.24,1.91-.5,3.47-.8,1.71-3.03,4.89-8.85,6.92-1.36.47-4.47.39-8.76.28-2.31-.06-4.93-.12-7.9-.13-3.8,0-7.71-.01-9.98-.01-2.21-.01-4.28-.62-5.96-1.77-2.54-1.72-3.52-4.08-2.92-6.99.72-3.56,3.66-10.81,5.33-13.63.08-.14.2-.19.29-.21.03-.01.06-.01.09-.01.06,0,.12.01.18.04l1.03,2.53.32.79.26.63s.03.08.06.12c1.3,3.06,4.37,4.84,7.51,4.36.2-.03.4-.07.6-.11,1.95-.45,3.73-1.68,5.02-3.46l1.44-1.99.44-.61.44-.61.62-.86c.14-.19.35-.31.58-.34ZM92.93,473.77l-2.08,2.88c-1.13,1.56-2.68,2.63-4.36,3.02-.18.04-.35.07-.52.1-2.63.4-5.3-1.2-6.36-3.8l-.43-1.04c1-2.99,2.11-7.29,2.82-11.05.27.22.57.41.89.58,2.48,1.27,4.28,2.47,9.12,1.92.29-.03.57-.09.84-.17-.2,2.55-.24,5.23.08,7.56ZM71.62,284.56c.49-2.81,1.64-6.5,2.97-10.77,3.19-10.21,7.16-22.91,4.37-31.7-.14-.44-.46-.54-.6-.57-.05,0-.1,0-.15,0-.62,0-1.25.73-2.78,2.6-1.23,1.5-2.76,3.38-4.43,4.8-.39.33-.94.34-1.33.03l-.12-.09-.45-.36-.46-.37-14.13-11.27-.48-.38-.47-.38-.59-.47c-1.28-1.02-1.75-2.79-1.14-4.31,3.07-7.68,14.54-33.19,33.43-39.26,5.66-1.81,12.6-2.73,19.69-2.91v.92c-.03,1.76.85,3.39,2.33,4.34l.79.5c1.9,1.22,4.01,1.83,6.05,1.83s4.08-.64,5.68-1.9c.1-.07,2.44-1.77,2.76-4.73,8.29,1.15,15.32,3.2,18.83,5.8,11.79,8.72,22.98,22.91,27.24,28.61,1.01,1.34,1.23,3.07.63,4.61-.06.15-.12.29-.19.43-.02.04-.04.08-.06.13-.09.17-.18.36-.28.55-.31.62-.64,1.3-1,2.02-2.48,5.04-6.52,13.25-10.17,17.74-.12.16-.25.31-.37.45-.13.15-.26.3-.39.44-1.08,1.2-2.12,2-3.05,2.23-.56.14-1.05.05-1.49-.28-1.49-1.09-3.09-2.46-4.63-3.78-3.68-3.16-5.5-4.66-6.58-4.09-.45.23-.64.74-.56,1.51.87,8.78,2.34,37.01,2.53,40.73-.02.01-.05.02-.07.03-1.35.58-5.13,2.53-5.33,6.37l-.53,11.51c-.05.46-.3.84-.7,1.06-.39.21-.84.21-1.24.01-3.03-1.58-8.69-3.1-15.65-4.71-2.86-.67-5.95-1.36-9.16-2.07-2.26-.5-4.57-1.01-6.88-1.53-9.65-2.19-19.41-4.61-26.17-7.42-1.35-.56-2.58-1.14-3.67-1.73-1.48-.82-2.29-2.49-2-4.16ZM48.66,300.42c-.23.63-.04,1.44.14,2.22.09.39.2.86.17,1.05-.27,1.77-2.62,4.59-6.63,7.93-2.31,1.93-3.65,4.76-3.66,7.77,0,.69.04,1.44.08,2.22.06,1.36-.27,2.28-1.01,2.73-.52.33-1.15.35-1.72.07-.64-.31-1.06-.91-1.14-1.61-.37-3.5-1.13-11.92-.05-14.74.56-1.47,2.33-3.61,5.11-6.19,2.25-2.08,3.53-5.06,3.52-8.19-.05-9.17,4.6-34.86,10.69-55.67l14.04,11.2c-4.2,10.3-12.09,30.06-19.54,51.21ZM132.38,167.85s0,.02,0,.03c0-.01,0-.02,0-.03ZM132.19,167.27c-.04-.08-.07-.16-.12-.23l-.46-.62c-1.37-1.86-3.35-4.51-4.73-7.72,2.03-1.3,5.44-1.07,7.12-2.16l10.26,1.8c.24.04.47.06.7.06.82,0,1.57-.26,2.18-.76.77-.64,1.2-1.59,1.22-2.68l.2-16.48,15.44,2.71c1.62.29,2.9-.78,2.92-2.42l.12-14.03c.02-1.79-1.46-3.57-3.23-3.88l-15.01-2.63.2-16.75c.03-2.3-1.79-4.49-4.06-4.89l-14.17-2.49c-1.08-.19-2.1.06-2.87.7-.77.64-1.2,1.59-1.22,2.68l-.2,16.83-15.42-2.71c-1.62-.29-2.9.78-2.92,2.42l-.12,14.03c-.02,1.79,1.46,3.57,3.23,3.88l14.98,2.63-.09,7.63c-2.25.82-1.2,3.89-14.47.31-6.27-1.69-2.88,5.54-4.52,5.14-.55-.14-1.06-.24-1.55-.32,0,0,0,0,0,0-5.75-8.28-9.21-18.16-9.21-28.24,0-11.35,4.32-21.23,12.16-27.82,6.03-5.06,13.59-7.7,21.79-7.7,2.28,0,4.62.21,6.98.62,22.67,3.98,41.12,26.18,41.12,49.49,0,11.35-4.32,21.23-12.16,27.82-7.71,6.47-17.92,8.98-28.77,7.08-1.8-.32-3.57-.76-5.31-1.3ZM146.55,138.13l-.2,16.81c0,.49-.18.91-.49,1.17-.31.26-.76.36-1.25.27l-9.56-1.68h0c.44-3.53-1.98-11.82-6.91-12.62h0l.09-7.16,18.33,3.22ZM128.47,114.66l.21-17.15h0c0-.49.18-.91.49-1.17.24-.2.55-.3.91-.3.11,0,.23.01.34.03l14.17,2.49c1.3.23,2.42,1.58,2.41,2.89l-.2,16.43-18.33-3.22ZM134.98,155.08s0,.02,0,.02c0,0,0-.02,0-.02ZM134.88,155.46c-.05.13-.11.26-.18.37.07-.11.13-.24.18-.37ZM134.62,155.96c-.05.06-.09.12-.15.18.05-.06.1-.12.15-.18ZM134.33,156.28s-.09.08-.14.11c.05-.04.1-.07.14-.11ZM129.2,169.22c-.16.04-.28.15-.35.29-.07.15-.07.31,0,.46l.86,2.11s.01.06,0,.08c-.01.02-.02.04-.05.05-5.22,2.05-9.16,2.57-9.82,1.29-1-1.94-2.53-5.56-3.35-7.56-.47-1.13-1.03-2.25-1.65-3.3-.68-1.16-.36-2.64.73-3.44,3.62-2.66,7.48-2.6,8.96-2.46.27.02.49.21.58.46.26.79.56,1.55.9,2.28h0c1.43,3.18,3.36,5.77,4.72,7.61l.45.61c.17.24.17.56,0,.81-.06.08-.16.15-.27.21l-1.33.39-.37.11ZM113.92,170.2c.21.27.1.66-.21.8-4.27,1.92-6.12-2.06-5.36-4.59.31-1.06,1.73-1.29,2.4-.41l3.17,4.2ZM126.71,142.04s0,0,.01,0c0,0,0,0-.01,0ZM106.96,176.71c2.14.69,3.6-2.18,5.99-1.61,3.1.75,2.69,6.05,5.76,8.14.63.43,1.52.77,2.68.91l.07,4.63v.57s0,.12,0,.12c0,.16,0,.33-.03.48-.24,2.47-2.27,3.95-2.32,3.98-2.76,2.19-7.06,2.21-10.45.03l-.78-.5c-1.16-.75-1.84-2.01-1.83-3.39v-.96s.02-.57.02-.57v-.59l.13-11.67c.21.19.46.34.75.43ZM202.99,217.61c1.93-2.88,7.06-10.51,10.01-13.11,3.14-2.76,5.72-5.89,7.34-8.04.66-.88,1.54-1.19,2.19-.78.26.17.32.32.34.43.04.23,0,.78-.81,1.89-.97,1.31-1.89,2.62-2.79,3.89-.52.73-1.02,1.43-1.49,2.09-.09.13-.19.25-.27.36-.31.38-.6.75-.3,1.14.29.4.78.2.94.14,1.72-.68,3-.79,3.52-.29.38.35.61,1.27.62,2.45.02,2.88-1.27,7.27-4.16,10.1-2.4,2.36-4.38,2.71-5.97,2.99-1.23.21-2.39.42-3.22,1.53-.44.59-1.69,2.86-3.59,6.31-5.33,9.69-15.26,27.73-19.48,30.24-7.53,4.48-19.12-2.09-27.42-8.29,3.67-4.48,7.49-12.22,10.29-17.92.28-.56.54-1.1.79-1.6l4.4,5.06c1.84,2.11,4.97,2.37,7.12.59,9.23-7.61,20.42-16.96,21.33-18.29.15-.21.35-.51.61-.89ZM222.6,204.69l69.4,12.19c5.3.93,9.62,6.12,9.62,11.58v80.83c0,2.62-1,4.9-2.8,6.42-1.77,1.48-4.13,2.06-6.63,1.62l-72.96-12.8-5.68-1c-1.12-.2-2.2-.59-3.2-1.13-.19-.1-.38-.21-.56-.32-.19-.12-.38-.24-.56-.37-3.14-2.18-5.3-5.91-5.3-9.76v-58.36s0,0,0,0c.81-1.45,1.61-2.91,2.4-4.35,1.74-3.16,3.11-5.66,3.51-6.18.56-.76,1.34-.89,2.52-1.1,1.65-.29,3.91-.69,6.56-3.29,3.13-3.08,4.51-7.7,4.49-10.9,0-1.08-.19-2.52-.97-3.27-.17-.16-.37-.29-.59-.39.22.1.42.22.59.39.06.06.11.12.16.18ZM221.13,203.93s.06.02.09.02c-.03,0-.06-.02-.09-.02ZM219.23,204.1s0,0,0,0c-.07.02-.12.02-.19.04.17-.24.35-.49.52-.73-.16.22-.32.45-.47.67l.15.03ZM213.98,202.05c-.33.33-.67.65-1.02.97.35-.32.69-.65,1.02-.97ZM203.93,211.12c0-2.63.99-4.91,2.8-6.42,1.38-1.16,3.12-1.77,5.01-1.77.4,0,.81.04,1.22.09-.23.21-.46.43-.7.64-2.33,2.05-5.9,7.03-8.33,10.57,0,0,0,0,0,0v-3.1ZM203.35,215.08s-.02.02-.02.04c0-.01.02-.02.02-.04ZM190.16,227.76c.38-.32.75-.63,1.11-.93-.36.31-.73.62-1.11.93ZM180.54,196.19c5.3.93,9.62,6.13,9.62,11.58v20c-2.83,2.37-6.11,5.1-9.82,8.15-1.68,1.39-4.13,1.19-5.56-.46l-4.71-5.41c1.02-2.02.81-4.4-.54-6.21-4.29-5.73-15.57-20.03-27.48-28.84-3.71-2.74-10.96-4.89-19.47-6.07l-.04-2.92,58,10.18ZM103.92,169.88l-5.44-.95c-5.31-.93-9.62-6.13-9.62-11.58v-80.83c0-2.63.99-4.91,2.79-6.42,1.78-1.49,4.13-2.06,6.63-1.62l78.65,13.8c5.3.93,9.61,6.13,9.61,11.58v80.83c0,2.62-.99,4.9-2.79,6.42-1.77,1.48-4.13,2.06-6.63,1.62l-45.06-7.91s0,0,0,0c-.23-.63-.46-1.25-.72-1.87-.36-.86-.71-1.66-1.06-2.39v-.03s-.18-.42-.18-.42l1.14-.34s.05-.01.07-.02c.31-.14.57-.35.75-.6.15-.21.24-.43.29-.67,1.63.48,3.27.88,4.95,1.18,2.43.43,4.83.64,7.18.64,8.46,0,16.27-2.74,22.5-7.97,8.1-6.8,12.56-16.98,12.56-28.67,0-23.82-18.86-46.52-42.05-50.59-11.17-1.96-21.72.64-29.68,7.33-8.1,6.8-12.56,16.98-12.56,28.67,0,9.98,3.32,19.76,8.87,28.06-3.8-.27-5.4,1.27-6.49,2.15-1.56,1.25-3.05,4.16-2.59,6.8.61,3.47,5.29,4.36,8.13,11.66.48,1.23.82,2.33,1.09,3.33-.11-.38-.22-.78-.35-1.2ZM104.87,147.21c-.22-.03-.43-.05-.64-.07.21.02.42.04.64.07ZM95.27,184.01c1.77-1.48,4.12-2.06,6.62-1.62l3.12.55-.05,5.03c-4.25.12-8.46.51-12.4,1.19.27-2.08,1.2-3.88,2.71-5.15ZM143.79,288.1c.23-.08.39-.31.37-.56,0-.31-1.62-31.8-2.56-41.18-.02-.21,0-.34.01-.4.76.05,3.37,2.29,5.29,3.94,1.56,1.34,3.17,2.72,4.69,3.84.72.52,1.54.68,2.42.46,1.17-.29,2.41-1.24,3.69-2.64,6.51,4.89,15.08,10,22.39,10,2.27,0,4.42-.5,6.36-1.65,1.01-.6,2.27-1.94,3.71-3.81v32.5c0,2.63-1,4.91-2.8,6.42-1.77,1.49-4.13,2.07-6.63,1.63l-37.57-6.6c-.04-.55-.08-1.1-.12-1.63.44-.21.74-.32.75-.32ZM303.31,363.63c0,7.59-4.99,14.6-12.71,17.85l-32.11,13.52c-3.13,1.32-6.62,2.02-10.09,2.02l-79.59-14.5c-1.06-.16-1.5-.73-1.55-1.17-.03-.2.02-.4.15-.58.13-.21.37-.4.68-.53l28.98-12.37c8.07-3.44,13.28-10.83,13.28-18.83v-27.02l8.88,1.61,84.08,15.18v24.82Z"/>
  <path class="cls-1" d="M340.05,253.02l43.61,7.84s.07,0,.1,0c.27,0,.5-.19.55-.46.05-.3-.15-.6-.45-.65l-43.61-7.84c-.31-.06-.6.15-.65.45-.05.3.15.6.45.65Z"/>
  <path class="cls-1" d="M395.3,309.76l-4.91-.86-1.12-.2-2.7-.47c-.16-.03-.33.02-.45.12-.13.11-.2.26-.2.43v8.42c0,.27.19.51.46.55l2.89.51,1.12.2,4.72.83h.1c.13,0,.25-.04.36-.13.12-.1.2-.26.2-.43v-8.42c0-.27-.2-.5-.47-.55ZM394.65,318.07l-4.26-.75-1.12-.2-2.23-.39v-7.28l2.23.39,1.12.2,4.26.74v7.29Z"/>
  <path class="cls-1" d="M395.3,293.51l-4.91-.86-1.12-.2-2.7-.47c-.16-.03-.33.02-.45.12-.13.11-.2.26-.2.43v8.42c0,.27.19.51.46.55l2.89.51,1.12.2,4.72.83h.1c.13,0,.25-.04.36-.13.12-.1.2-.26.2-.43v-8.42c0-.27-.2-.5-.47-.55ZM394.65,301.82l-4.26-.75-1.12-.2-2.23-.39v-7.28l2.23.39,1.12.2,4.26.74v7.29Z"/>
  <path class="cls-1" d="M41.8,112.55c.1.08.22.11.34.11.17,0,.34-.08.45-.22.19-.25.14-.6-.11-.78l-2.16-1.65c-.25-.19-.6-.14-.78.11-.19.25-.14.6.11.78l2.16,1.65Z"/>
  <path class="cls-1" d="M389.27,276.38l-5.06-.88-14.38-2.53c-.16-.03-.33.02-.45.12-.13.11-.2.26-.2.43v8.42c0,.27.19.51.46.55l19.63,3.45,1.12.19,5.9,1.04s.06.01.09.01c.13,0,.26-.05.36-.13.13-.11.2-.26.2-.43v-8.42c0-.27-.19-.51-.46-.55l-6.09-1.07-1.12-.2ZM395.82,285.95l-5.43-.95-1.12-.2-18.97-3.33v-7.28l18.97,3.33,1.12.2,5.43.95v7.28Z"/>
  <path class="cls-1" d="M215.19,88.48c-2.83-.5-5.51.16-7.54,1.87-2.06,1.73-3.2,4.31-3.2,7.27v80.83c0,5.98,4.73,11.67,10.55,12.69l78.64,13.8c.62.11,1.22.16,1.82.16,2.15,0,4.13-.7,5.72-2.03,2.06-1.73,3.2-4.31,3.2-7.27v-80.84c0-5.97-4.73-11.66-10.55-12.68l-78.64-13.8ZM303.26,114.96v80.84c0,2.62-.99,4.9-2.8,6.41-1.77,1.49-4.12,2.07-6.63,1.63l-78.64-13.81c-5.3-.93-9.62-6.12-9.62-11.58v-80.83c0-2.62,1-4.9,2.8-6.42,1.38-1.16,3.12-1.76,5.01-1.76.53,0,1.07.04,1.62.14l78.64,13.8c5.31.94,9.62,6.13,9.62,11.58Z"/>
  <path class="cls-1" d="M361.98,407.99c-.12-.89-.86-1.59-1.77-1.67l-4.63-.41c-.75-.07-1.4-.55-1.66-1.25-.27-.72-.57-1.44-.9-2.14-.32-.67-.22-1.47.26-2.04l2.96-3.55c.59-.7.6-1.71.04-2.42l-2.28-2.93c-.56-.71-1.54-.95-2.37-.57l-4.21,1.94c-.68.31-1.48.21-2.06-.27-.6-.49-1.22-.95-1.87-1.4-.61-.43-.93-1.17-.8-1.91l.77-4.54c.15-.89-.34-1.77-1.19-2.12l-3.44-1.4c-.85-.35-1.82-.07-2.35.67l-2.66,3.77c-.43.61-1.17.93-1.91.8-.78-.13-1.56-.24-2.35-.31-.74-.06-1.38-.56-1.64-1.25l-1.62-4.32c-.32-.85-1.19-1.36-2.1-1.24l-3.68.49c-.91.12-1.61.84-1.69,1.74l-.4,4.6c-.06.74-.55,1.38-1.25,1.64-.73.27-1.46.57-2.17.89-.68.32-1.48.21-2.06-.27l-3.59-2.94c-.7-.58-1.71-.6-2.44-.05l-2.94,2.25c-.72.56-.96,1.53-.57,2.36l1.96,4.17c.32.68.22,1.47-.26,2.05-.49.59-.96,1.2-1.41,1.84-.43.61-1.18.92-1.92.8l-4.59-.78c-.9-.15-1.79.34-2.13,1.17l-1.41,3.41c-.35.84-.06,1.81.69,2.33l3.81,2.65c.61.42.93,1.16.81,1.9-.14.77-.24,1.54-.31,2.32-.06.74-.56,1.37-1.26,1.62l-4.35,1.6c-.85.32-1.38,1.18-1.25,2.08l.5,3.65c.12.9.86,1.59,1.77,1.68l4.63.41c.75.06,1.4.54,1.66,1.24.27.73.58,1.45.91,2.15.32.68.21,1.47-.27,2.04l-2.96,3.55c-.58.7-.6,1.7-.04,2.42l2.28,2.92c.56.72,1.54.96,2.37.58l4.21-1.94c.68-.31,1.48-.21,2.06.26.6.49,1.22.96,1.87,1.41.62.42.93,1.17.8,1.91l-.77,4.54c-.15.89.34,1.77,1.19,2.12l3.44,1.4c.85.35,1.82.06,2.35-.68l2.66-3.77c.43-.6,1.17-.92,1.91-.79.78.13,1.57.23,2.35.3.74.07,1.38.56,1.64,1.26l1.62,4.31c.32.85,1.19,1.37,2.1,1.25l3.68-.49c.91-.12,1.61-.85,1.69-1.75l.4-4.59c.07-.74.55-1.39,1.26-1.64.73-.27,1.45-.57,2.15-.89.68-.32,1.49-.21,2.07.26l3.59,2.95c.7.58,1.71.6,2.44.04l2.94-2.25c.72-.55.96-1.53.57-2.35l-1.96-4.17c-.32-.68-.22-1.48.26-2.05.49-.59.96-1.21,1.41-1.85.43-.61,1.18-.92,1.93-.79l4.58.77c.9.16,1.79-.33,2.13-1.17l1.41-3.41c.35-.84.06-1.8-.69-2.32l-3.81-2.65c-.61-.43-.93-1.17-.81-1.9.14-.77.24-1.55.31-2.32.06-.74.56-1.37,1.26-1.63l4.35-1.6c.86-.31,1.38-1.17,1.25-2.07l-.5-3.66ZM342.97,416.58c-1.15,8.67-9.18,14.75-17.92,13.59-8.75-1.17-14.91-9.14-13.75-17.8,1.15-8.67,9.18-14.76,17.92-13.59,8.75,1.16,14.91,9.13,13.75,17.8Z"/>
  <path class="cls-1" d="M349.99,246.82l23.55,4.13s.07,0,.1,0c.27,0,.5-.19.55-.46.05-.3-.15-.59-.45-.65l-23.55-4.13c-.31-.05-.59.15-.65.45-.05.3.15.59.45.65Z"/>
  <path class="cls-1" d="M226.7,35.67c-.3.06-.5.36-.43.66.06.3.36.49.66.43,48.33-10.29,105.82,12.79,106.39,13.03.07.03.14.04.21.04.22,0,.43-.13.52-.35.12-.29-.02-.61-.31-.73-.58-.24-58.38-23.45-107.05-13.09Z"/>
  <path class="cls-1" d="M347.62,138.65c1.4.25,2.54-.72,2.54-2.17s-1.14-2.81-2.54-3.06c-1.4-.25-2.54.72-2.54,2.17s1.14,2.81,2.54,3.06Z"/>
  <path class="cls-1" d="M292.33,32.33c.5.15,1,.22,1.5.22,2.18,0,4.2-1.41,4.87-3.6.83-2.68-.68-5.54-3.37-6.37-2.69-.83-5.55.69-6.37,3.37-.83,2.69.68,5.55,3.37,6.38ZM290.03,26.28c.64-2.1,2.87-3.28,4.97-2.63,2.1.64,3.28,2.88,2.63,4.97-.64,2.1-2.87,3.28-4.97,2.64-2.1-.65-3.28-2.88-2.63-4.98Z"/>
  <path class="cls-1" d="M218.74,26.67s.09,0,.13-.02c20.59-4.89,41.54-5.13,62.27-.71.3.07.6-.13.66-.43.06-.3-.13-.6-.43-.66-20.89-4.45-42-4.21-62.76.71-.3.07-.49.37-.42.67.06.26.29.43.54.43Z"/>
  <path class="cls-1" d="M283.35,445.63l-13.88-3.12c-.18-.04-.37.01-.5.14-.14.12-.2.31-.17.49l1.92,12.87c.03.2.16.36.35.44.06.02.13.04.2.04.13,0,.25-.05.35-.13l11.96-9.75c.17-.14.24-.36.2-.57-.05-.2-.22-.37-.43-.41ZM271.68,454.87l-1.66-11.09,11.97,2.69-10.31,8.4Z"/>
  <path class="cls-1" d="M40.75,119.23c-.19.25-.14.6.11.78.1.08.22.11.34.11.17,0,.34-.08.45-.22l1.65-2.17c.19-.25.14-.6-.11-.78-.25-.19-.6-.14-.78.11l-1.65,2.17Z"/>
  <path class="cls-1" d="M474.39,129.38v-6.99s-.01,0-.01,0l-.23.38s0,.01-.01.01c-.09.06-.19.1-.31.1s-.24-.04-.33-.11c-.14-.1-.23-.26-.23-.45v-7.87l-11.89-2.33-25.54-5c-.72-.14-1.37-.52-1.83-1.09l-5.73-6.94-21.58-26.16-.31.51-.31.51-9.92,16.32c-.52.87-.9,1.81-1.13,2.82-.48,1.97-.41,4.18.2,6.63.26,1.03.61,2.07,1.06,3.14.08.2.17.41.26.62.09.21.18.41.28.62,3.96,8.4,13.14,17.62,24.69,24.49,9.98,5.95,20.2,9.34,28.6,10,.19.02.37.04.56.05.19.01.37.02.56.03,4.03.21,7.59-.24,10.45-1.37,2.55-1,4.53-2.54,5.78-4.62l5.8-9.54v6.29c-1.12.29-1.97,1.28-2.07,2.49l-2.64,33.18c-.02.16.04.31.14.43.1.11.25.18.41.18l9.03.09h.01c.15,0,.3-.06.41-.17.1-.11.16-.26.15-.42l-1.92-33.23c-.08-1.34-1.1-2.43-2.4-2.61ZM469.72,164.61l2.6-32.59c.05-.61.43-1.13.95-1.38v.65c0,.31.25.56.56.56s.56-.25.56-.56v-.77c.7.17,1.24.78,1.28,1.54l1.89,32.63-7.84-.08Z"/>
  <path class="cls-1" d="M503.76,110.22l-40.11-48.62c-.63-.76-1.51-1.29-2.48-1.48l-62.03-12.15c-.74-.14-1.48.16-1.9.77-.04.04-.06.08-.09.12l-4.27,7.12c-.42.69-.36,1.54.15,2.16l12.3,14.91.31-.51.38.45.3-.5-.37-.46-12.05-14.6c-.32-.39-.13-.77-.06-.88l3.39-5.64s.05.07.08.11l12.34,14.95.36.45.85,1.03,26.56,32.19c.63.76,1.51,1.29,2.48,1.48l4.71.92,9.35,1.83,19.31,3.79v-.12l-.43-.54-.55-.68-3.56-4.43-1.01-1.27-1-1.24-15.83-19.73c-.19-.24-.15-.59.09-.78.24-.2.59-.16.78.08l17.7,22.06,1,1.24,1.01,1.27,2.52,3.13.27.34c.07.09.12.2.12.31.01.01.01.03.01.04v.54l6.57,1.28,1.32.26.56.11,19.09,3.74s.1.01.14.01l-3.39,5.64c-.07.11-.32.46-.81.36l-18.71-3.66-.58-.12-.59-.11-3.6-.71v6.63l2.98-4.9.59.11.58.12,19.11,3.74c.13.03.25.04.38.04.65,0,1.26-.34,1.61-.92l4.28-7.12h0s.02-.04.02-.06c.39-.68.32-1.49-.18-2.1Z"/>
  <path class="cls-1" d="M47.43,111.95c.17,0,.34-.08.45-.22l1.65-2.17c.19-.25.14-.6-.11-.78-.25-.19-.6-.14-.78.11l-1.65,2.17c-.19.25-.14.6.11.78.1.08.22.11.34.11Z"/>
  <path class="cls-1" d="M385.38,160.02v-26.36c0-.27-.2-.5-.47-.55l-13.08-2.3c-.17-.03-.33.02-.46.13-.13.1-.2.26-.2.42v26.25c-5.35,1.06-10.85,5.06-13.48,11.21-.38-.88-.58-1.81-.58-2.72v-19.64c0-.28-.2-.51-.46-.56l-9.95-1.74c-.16-.03-.33.01-.46.12-.12.11-.2.26-.2.43v19.67c0,1.15-.31,2.2-.91,3.05l-18.82,26.74c-.11.16-.13.36-.05.54.07.18.23.3.42.34l49.95,8.77h.1c.18,0,.35-.08.46-.23.08-.12.11-.26.09-.39.39.08.78.16,1.17.23,1.29.22,2.56.33,3.8.33,4.5,0,8.67-1.45,11.99-4.25,4.28-3.59,6.63-8.94,6.63-15.05,0-9.93-6.35-19.92-15.49-24.44ZM357.28,178.6l-1.14-.2-15.45-2.71,5.35-7.61c.74-1.04,1.12-2.32,1.12-3.7v-19l8.83,1.55v19.17c0,1.38.39,2.78,1.12,4.06l.04.06.76,1.33,4.56,7.96-5.19-.91ZM393.52,198.66c-3.99,3.35-9.27,4.65-14.87,3.66-.7-.12-1.4-.28-2.09-.47l-18.18-31.73c2.37-6.45,8.03-10.6,13.44-11.49.27-.05.47-.28.47-.55v-26.05l11.97,2.1v26.24c0,.22.12.42.32.51,8.93,4.26,15.18,13.95,15.18,23.58,0,5.78-2.22,10.82-6.24,14.2Z"/>
  <path class="cls-1" d="M415.81,134.27c0-5.98-4.73-11.67-10.55-12.69l-78.64-13.8c-2.83-.5-5.51.17-7.54,1.87-2.06,1.73-3.2,4.32-3.2,7.28v80.83c0,5.97,4.73,11.66,10.55,12.68l78.64,13.8c.62.11,1.22.16,1.82.16,2.15,0,4.13-.69,5.72-2.03,2.06-1.73,3.2-4.31,3.2-7.27v-80.83ZM414.69,215.1c0,2.62-.99,4.9-2.8,6.42-1.77,1.48-4.12,2.06-6.63,1.62l-78.64-13.8c-5.3-.93-9.62-6.13-9.62-11.58v-80.83c0-2.63,1-4.91,2.8-6.42,1.77-1.49,4.13-2.07,6.63-1.63l78.64,13.81c5.31.93,9.62,6.12,9.62,11.58v80.83Z"/>
  <path class="cls-1" d="M383.48,195.92c-.3.05-.51.34-.46.65.05.27.28.47.55.47.03,0,.06,0,.09,0,5.73-.98,9.91-5.53,10.63-11.61.04-.31-.18-.59-.49-.62-.31-.04-.59.18-.62.49-.67,5.57-4.48,9.75-9.71,10.64Z"/>
  <path class="cls-1" d="M216.88,267.49v4.91c2.15.03,4.49-.17,6.97-.59.56-.09,1.13-.19,1.71-.31h.02c.49-.1.99-.2,1.49-.32h.01c19.27-4.35,44.8-19.84,54.57-38.09l4.72,4.48-.81-18.47-12.98,5.77,4.54,4.14c-13.87,19-28.59,32.18-60.24,38.48Z"/>
  <path class="cls-1" d="M240.37,444.31c1.92,0,3.85-.03,5.75-.1.31-.01.55-.27.54-.58-.01-.31-.27-.56-.58-.54-29.64,1.09-61.36-6.66-82.75-13.36-.29-.09-.61.07-.7.37-.09.3.07.61.37.7,20.1,6.29,49.29,13.51,77.37,13.51Z"/>
  <path class="cls-1" d="M276.33,155.63c-.31-.04-.59.16-.64.47-2.59,17.15-20.86,27.18-36.3,25.8-17.4-1.55-27.4-15.98-26.75-38.6.29-10.37,4-18.87,11.01-25.28,7.92-7.24,18.65-10.1,25.28-9.69,5.54.34,9.59,2.03,12.03,5.02,2.87,3.53,2.63,7.73,2.4,9.37-.35,2.46-2.13,5.21-3.55,7.43-1.51,2.35-2.42,3.77-1.76,4.67.73.99,3.24,1.17,7.27,1.38,1.14.06,2.32.12,3.38.21.31.04.58-.2.61-.51.02-.3-.2-.58-.51-.6-1.09-.1-2.27-.16-3.42-.22-2.52-.13-5.97-.31-6.42-.91-.14-.42.98-2.15,1.79-3.41,1.48-2.31,3.33-5.18,3.72-7.88.25-1.79.51-6.37-2.65-10.24-2.64-3.24-6.95-5.07-12.82-5.43-7.09-.43-17.9,2.48-26.11,9.98-7.14,6.53-11.07,15.55-11.37,26.08-.36,12.46,2.32,22.34,7.95,29.37,4.86,6.06,11.71,9.65,19.82,10.38.98.08,1.98.13,2.98.13,7.27,0,14.78-2.32,21.01-6.53,7.5-5.09,12.31-12.32,13.52-20.35.04-.31-.17-.59-.47-.64Z"/>
  <path class="cls-1" d="M230.76,131.54c0-2.76-2.19-5.39-4.9-5.86-2.71-.47-4.9,1.38-4.9,4.14s2.19,5.39,4.9,5.86c2.71.47,4.9-1.38,4.9-4.14Z"/>
  <path class="cls-1" d="M232.99,120.62c0,2.76,2.19,5.39,4.9,5.86s4.9-1.38,4.9-4.14-2.19-5.39-4.9-5.86-4.9,1.38-4.9,4.14Z"/>
  <path class="cls-1" d="M222.03,140.23c-2.71-.47-4.9,1.38-4.9,4.14s2.19,5.39,4.9,5.86,4.9-1.38,4.9-4.14-2.19-5.39-4.9-5.86Z"/>
  <path class="cls-1" d="M261.91,451.47c-44.5,7.98-109.77-14.67-110.42-14.9-.29-.1-.61.05-.71.34-.1.29.05.61.34.71.56.2,48,16.66,89.73,16.66,7.36,0,14.55-.51,21.26-1.72.3-.05.51-.35.45-.65-.05-.3-.34-.51-.65-.45Z"/>
  <path class="cls-1" d="M258.12,123.42c0-2.76-2.19-5.39-4.9-5.86-2.71-.47-4.9,1.38-4.9,4.14s2.19,5.39,4.9,5.86c2.71.47,4.9-1.38,4.9-4.14Z"/>
  <path class="cls-1" d="M251.53,138.79c-1.76.41-3.5,1.92-4.66,4.03-1.92,3.5-1.69,7.46.52,9,.58.41,1.24.61,1.95.61.31,0,.62-.04.94-.11,1.75-.41,3.49-1.92,4.65-4.03,1.93-3.5,1.7-7.46-.51-9.01-.83-.57-1.83-.74-2.89-.49ZM253.95,147.75c-1.01,1.84-2.48,3.14-3.92,3.48-.76.17-1.45.06-2-.32-1.69-1.19-1.77-4.64-.17-7.55,1-1.84,2.47-3.14,3.92-3.48.23-.05.46-.08.68-.08.48,0,.93.13,1.31.4,1.7,1.18,1.78,4.64.18,7.55Z"/>
  <path class="cls-1" d="M38.32,142.07c.24,0,.48-.01.72-.05,2.89-.39,4.93-3.06,4.54-5.96-.39-2.89-3.07-4.93-5.96-4.54-2.9.39-4.94,3.06-4.55,5.96.36,2.66,2.64,4.59,5.25,4.59ZM37.77,132.63c2.28-.31,4.39,1.3,4.7,3.58.31,2.29-1.3,4.4-3.58,4.7-2.29.31-4.4-1.3-4.71-3.58-.3-2.28,1.3-4.39,3.59-4.7Z"/>
  <path class="cls-1" d="M402.65,272.07l-12.26-2.15v-24.43c0-.27-.2-.51-.46-.55l-56.31-9.89c-.16-.02-.33.02-.46.13-.12.1-.2.26-.2.43v76.78c0,.28.2.51.47.56l29.58,5.19v2.04c0,.27.2.51.46.55l38.98,6.84s.07,0,.1,0c.13,0,.26-.04.36-.13.13-.1.2-.26.2-.43v-54.4c0-.27-.2-.51-.46-.55ZM363.21,265.35c-.13.1-.2.26-.2.43v5.74l-22.76-4.1c-.31-.05-.6.15-.65.46-.06.3.14.59.45.65l22.96,4.13v18.53l-22.03-3.97c-.31-.05-.59.15-.65.45-.05.31.15.6.45.65l22.23,4v10.97l-22.03-3.96c-.31-.06-.59.14-.65.45-.05.3.15.59.45.65l22.23,4v12.57l-28.93-5.08v-75.65l55.19,9.69v23.76l-5.32-.94h0c.18-.06.33-.22.37-.43.05-.3-.15-.6-.45-.65l-43.61-7.84c-.31-.05-.6.15-.65.45-.05.3.15.59.45.65l27.23,4.9-.22-.04-3.39-.6c-.17-.02-.33.02-.46.13ZM401.99,326.36l-37.86-6.65v-53.27l25.14,4.42,1.12.19,11.6,2.04v53.27Z"/>
  <path class="cls-1" d="M281.21,251.24v55.49c0,.97.76,1.88,1.7,2.05l7.36,1.29c.94.17,1.71-.48,1.71-1.45v-55.49c0-.97-.77-1.89-1.71-2.05l-7.36-1.29c-.94-.17-1.7.48-1.7,1.45Z"/>
  <path class="cls-1" d="M271.87,141.23s0,0,0,0c-.07.01-.14.04-.2.08l-8.16,5.47-28.24,18.92c-.24.16-1.82,2.13-4.72,5.85-.15.18-.16.44-.03.64.1.16.28.26.47.26.04,0,.08,0,.12-.01l7.27-1.55s.11-.03.16-.06l30-16.74,8.53-4.76c.09-.05.17-.13.21-.21,0,0,0,0,0,0,2.6,1.12,5.95.79,10.07-1.9,6.48-4.24,10.64-17.27,10.64-17.27,0,0-14.05-1.14-20.53,3.09-4.04,2.64-5.63,5.48-5.58,8.18ZM238.06,169.81l-5.68,1.21c1.49-1.89,3.25-4.12,3.55-4.42l27.77-18.61,3.76,5.42-29.4,16.4ZM268.44,152.86l-3.81-5.49,7.2-4.82,4.16,6.1-7.55,4.21Z"/>
  <path class="cls-1" d="M273.22,264.69l-7.36-1.29c-.94-.16-1.7.49-1.7,1.45v38.89c0,.96.76,1.88,1.7,2.05l7.36,1.29c.94.16,1.71-.49,1.71-1.45v-38.89c0-.96-.77-1.88-1.71-2.05Z"/>
  <path class="cls-1" d="M405.26,236.11l-78.64-13.8c-2.83-.5-5.51.17-7.54,1.87-2.06,1.73-3.2,4.31-3.2,7.27v80.83c0,5.98,4.73,11.67,10.55,12.69l78.64,13.8c.62.11,1.22.16,1.82.16,2.15,0,4.13-.7,5.72-2.03,2.06-1.73,3.2-4.31,3.2-7.27v-80.84c0-5.97-4.73-11.66-10.55-12.68ZM414.69,329.63c0,2.62-.99,4.9-2.8,6.41-1.77,1.49-4.12,2.07-6.63,1.63l-78.64-13.81c-5.3-.93-9.62-6.12-9.62-11.58v-80.83c0-2.62,1-4.9,2.8-6.41,1.38-1.17,3.12-1.77,5.01-1.77.53,0,1.07.05,1.62.14l78.64,13.8c5.31.94,9.62,6.13,9.62,11.58v80.84Z"/>
  <path class="cls-1" d="M256.94,270.76l-7.37-1.29c-.94-.17-1.7.48-1.7,1.45v29.96c0,.97.76,1.88,1.7,2.05l7.37,1.29c.94.17,1.7-.48,1.7-1.45v-29.96c0-.97-.76-1.88-1.7-2.05Z"/>
  <path class="cls-1" d="M224.71,284.51l-5.48-.96-1.88-.33c-.94-.17-1.7.48-1.7,1.45v10.55c0,.97.76,1.89,1.7,2.05l1.88.33,5.48.96c.94.17,1.71-.48,1.71-1.45v-10.55c0-.97-.77-1.88-1.71-2.05Z"/>
  <path class="cls-1" d="M241.95,277.63c-.3-.45-.77-.78-1.3-.87l-7.37-1.29c-.64-.12-1.2.15-1.49.64-.13.23-.21.5-.21.81v21.1c0,.97.76,1.88,1.7,2.05l7.37,1.29c.94.17,1.7-.48,1.7-1.45v-21.1c0-.42-.15-.84-.39-1.18h-.01Z"/>
  <path class="cls-1" d="M74.25,487.41c-.21-.23-.57-.25-.79-.04-.23.21-.25.56-.04.79.15.17,3.66,3.92,10.77,3.92.29,0,.58-.01.88-.02,5.32-.23,13.18-.13,17.38-.06,2.75.05,5.34-.69,7.49-2.14.75-.51,1.34-1.03,1.73-1.55.19-.25.14-.6-.11-.79-.25-.18-.6-.13-.78.11-.32.43-.81.86-1.47,1.3-1.96,1.32-4.32,2-6.84,1.95-4.22-.07-12.1-.17-17.44.06-7.16.31-10.75-3.5-10.78-3.53Z"/>
  <path class="cls-1" d="M13.08,469.77c-.22-.22-.57-.22-.79,0-.22.21-.23.57,0,.79l14.63,14.76c3.13,3.16,7.28,5.26,11.67,5.9l1.32.2s.05.01.08.01c.27,0,.51-.2.55-.48.05-.31-.17-.59-.47-.64l-1.32-.19c-4.15-.61-8.07-2.6-11.04-5.59l-14.62-14.76Z"/>
</svg>