<?xml version="1.0" encoding="UTF-8"?>
<svg id="Camada_1" data-name="Camada 1" xmlns="http://www.w3.org/2000/svg" viewBox="0 0 500 500">
  <defs>
    <style>
      .cls-1 {
        fill: #211a14;
        stroke-width: 0px;
      }
    </style>
  </defs>
  <path class="cls-1" d="M454.73,109.1v-5.95l-32.96-17.51v-26.17h-15.53v17.91l-31.19-16.57-.19.1s0-.04,0-.06c-.05-.22-.26-.38-.49-.38h-40.19c-.08,0-.17.02-.24.06l-78.74,41.85h-.29c-.28,0-.51.23-.51.51v54.66h-34.73l1.61,9.64h2.71l.77,4.57c-1.14-1.12-2.76-1.71-4.46-1.46l-.36.05c-2.88.42-4.88,3.11-4.45,5.99l.67,4.57c.4,2.74,1.43,5.4,2.99,7.69l2.03,3c1.48,2.2,2.57,4.6,3.23,7.14.93,3.57,2.77,6.68,5.47,9.24l1.12,1.07,1.51,8.99c.04.25.25.43.5.43h3.26v11.6h-3.73c-.28,0-.51.23-.51.52v11.45h-25.5V65.62c0-.29-.23-.51-.51-.51H49.49c-.28,0-.51.22-.51.51v135.29c-1.05-1.25-2.83-1.77-4.44-1.15-1.9.74-2.94,2.85-2.36,4.81l.95,3.21-4.43-3.25c-1.93-1.32-4.54-.89-5.95.98-1.38,1.82-1.11,4.42.62,5.92l15.61,13.59v25.82c0,.28.23.51.51.51h24.46l-3.55,2.22s-.08.05-.1.09c-.05.04-.08.1-.1.16-.02.04-.03.08-.03.13t0,.02c-.01.05-.01.11,0,.17.01.05.02.09.05.13l5.71,9.27h.01l19.87,32.25c.13.2.26.41.4.6.1.15.2.31.31.46.18.25.37.5.57.74.18.22.36.44.55.65.14.17.29.33.45.49.17.2.36.38.56.57.04.04.09.08.14.13.22.22.45.42.69.62.26.22.53.44.8.64.57.42,1.16.81,1.78,1.16.18.11.36.21.55.3.08.05.16.09.25.13.13.07.26.13.38.19.2.1.4.19.61.27h-44.88c-.28,0-.51.23-.51.51v8.52s-.01.04,0,.05c-.01.02-.01.04-.01.06v170.13c0,.28.23.51.51.51h9.18c.29,0,.51-.23.51-.51v-169.68h68.44l.06,13.32c.08,16.88,13.88,30.62,30.76,30.62h39.27,0s-31.97,28.88-31.97,28.88c-.1.09-.16.22-.17.36,0,.14.04.27.14.37l1.82,1.96-34.41,29c-5.59,3.23-8.79,9.01-8.55,15.47.05,1.35.24,2.67.58,3.92-3.59-.88-7.49.17-10.17,2.94-1.98,2.07-1.37,5.47,1.21,6.72l73.18,35.29c2.41,1.16,5.24-.2,5.9-2.72l.6.29v-.79c.03-9.33-2.99-18.97-8.52-27.85,1.99-1.01,3.59-2.63,4.57-4.68,2.46-5.1.31-11.26-4.79-13.72-4.49-2.17-9.81-.76-12.69,3.09-.95-.86-1.93-1.7-2.94-2.52-1.07-.88-2.49-1.2-3.86-.9-.64.14-1.22.41-1.74.78l-1.71-1.84,24.21-19.93,7.98,8.62c.09.1.22.16.36.16h.01c.13,0,.26-.05.35-.14l30.07-28.57v19.07c0,.28.23.51.51.51h12.43v38.55c-3.58,5.32-3.93,11.87-.93,17.55.54,1.02,1.16,1.97,1.86,2.83-3.69.86-6.76,3.57-7.99,7.35-.48,1.46-.24,3.01.66,4.25.9,1.24,2.29,1.95,3.82,1.95h81.25c1.52,0,2.92-.71,3.82-1.94.87-1.21,1.13-2.72.69-4.15,0-.03-.01-.06-.02-.09,0-.02-.01-.04-.02-.06-4.02-8.41-10.94-15.78-19.77-21.39,1.3-1.73,2.07-3.86,2.07-6.19,0-5.67-4.61-10.28-10.28-10.28-4.99,0-9.15,3.56-10.08,8.28-1.23-.35-2.48-.68-3.74-.98-1.35-.33-2.77-.01-3.88.87-.51.41-.93.9-1.23,1.46l-2.51-.98v-30.85h63.49c2.44,0,4.42-1.98,4.42-4.41v-5.72c0-2.43-1.98-4.41-4.42-4.41h-11.19v-18.15c.1.13.2.24.31.36,1.37,1.45,3.22,2.25,5.21,2.25s3.86-.81,5.23-2.28c1.37-1.47,2.04-3.38,1.91-5.38l-.53-7.53c5.37-.38,9.64-4.92,9.64-10.35,0-2.02-1.65-3.66-3.67-3.66h-4.1v-.16c0-7.83-6.37-14.2-14.19-14.2-6.36,0-11.99,4.28-13.68,10.4-.04.12-.07.24-.09.37h0c-.03.1-.06.19-.07.29v.03c-.25,1-.36,2.04-.36,3.11v.16h-32.42l-.05-18.71c-.02-10.52-5.43-20.28-14.24-25.9h104.66v169.68c0,.28.23.51.51.51h9.18c.29,0,.51-.23.51-.51v-178.76c0-.28-.22-.51-.51-.51h-71.89c2.41-1.51,4.01-4.18,4.01-7.24v-15.63h-28.41v15.63c0,3.05,1.6,5.72,4.01,7.24h-46.79c9.09-3.18,15.63-11.84,15.63-22v-22.57h30.13s0,0,0,0h158.81c.28,0,.51-.23.51-.51V109.42c0-.12-.06-.23-.14-.32ZM334.31,61.51h38.01l-76.85,40.85h-.02s-.08.02-.12.04h-37.96l76.93-40.89ZM230.59,207.26c-2.57-2.43-4.31-5.37-5.19-8.75-.69-2.66-1.83-5.16-3.38-7.46l-2.03-3c-1.46-2.17-2.44-4.68-2.82-7.27l-.67-4.57c-.35-2.32,1.27-4.49,3.59-4.83l.36-.05c2.32-.35,4.49,1.27,4.83,3.59l.12.85c.05.35.12.7.2,1.04l5.12,30.57-.13-.12ZM232.23,210.23l-.14-.84-.1-.58h0s-.03-.16-.03-.16v-.05s-.01-.06-.01-.06l-4.62-27.59v-.02l-.25-1.46-.36-2.14c.03-.08.02-.16,0-.24-.05-.19-.1-.38-.13-.57l-.3-1.75-1.26-7.56h38.38l-1.11,6.65-2.58-2.58c-1.21-1.21-2.69-2.07-4.3-2.51-.33-.09-.67-.17-1.02-.22-.51-.09-1.04-.13-1.57-.13h-3.93c-2.46,0-4.46,2.01-4.46,4.47v.44c0,1.35.61,2.57,1.57,3.39h-4.39c-2.49,0-4.52,2.03-4.52,4.52v.34c0,2.46,1.97,4.47,4.41,4.53-.77.64-1.32,1.55-1.52,2.57-.05.28-.08.56-.08.85v.45c0,2.46,2,4.46,4.46,4.46h.53c-.03.19-.05.39-.05.59v.41c0,2.16.85,4.19,2.37,5.72l6.14,6.13v2.69c0,.33.02.66.08.97.13.94.46,1.81.96,2.57v3.95h-20.96l-1.21-7.24ZM259.9,221.98c-.06.08-.09.19-.09.29v4.17l-4.39.42-1.02.1-17.11,1.64v-10.11h18.14c.25,0,.46-.18.5-.43l.43-2.56c1.04.68,2.27,1.07,3.59,1.07.28,0,.51-.22.51-.51s-.23-.51-.51-.51c-1.35,0-2.6-.49-3.56-1.28-.1-.09-.2-.18-.29-.27-.25-.24-.48-.51-.68-.79-.48-.66-.81-1.43-.95-2.26-.04-.19-.06-.39-.07-.59-.02-.12-.02-.25-.02-.38v-2.9c0-.13-.06-.26-.15-.36l-6.28-6.28c-1.34-1.34-2.07-3.11-2.07-5v-.41c0-.56.18-1.08.49-1.49.46-.64,1.21-1.05,2.05-1.05h.45c.67,0,1.31.26,1.79.74l.31.31,3.43,3.41,1.02,1.02,2.88,2.87,1.37,1.36c2.05,2.05,3.23,4.89,3.23,7.79v4.75c-.01.45-.04.89-.11,1.32-.2,1.48-.75,2.89-1.63,4.13l-1.26,1.79ZM255.45,214.78l-.03.16v-.18s.02.02.03.02ZM261.59,202.89c-.36-.5-.76-.97-1.2-1.41l-1.88-1.88-3.09-3.07-1.02-1.01-3.02-3.01c-.67-.67-1.56-1.04-2.51-1.04h-.45c-1.39,0-2.59.79-3.18,1.95h-.87c-1.89,0-3.44-1.54-3.44-3.44v-.45c0-1.89,1.55-3.44,3.44-3.44h6.19c.85,0,1.69.12,2.48.36.47.14.92.31,1.36.54.35.16.7.36,1.02.58.47.31.9.67,1.31,1.08l3.09,3.09,2.7,2.7c.96.96,1.48,2.23,1.48,3.59v.34c0,1.35-.52,2.63-1.48,3.59l-.93.93ZM262.81,193.28l-2.78-2.78-2.58-2.57c-.61-.61-1.3-1.13-2.03-1.56-.33-.19-.67-.36-1.02-.51-1.19-.52-2.49-.79-3.84-.79h-6.19c-.12,0-.25,0-.37.02-.02-.01-.04-.01-.06-.01h-2.32c-1.93,0-3.5-1.57-3.5-3.5v-.34c0-1.93,1.57-3.5,3.5-3.5h6.63c.21.03.43.05.65.05h1.69c1.34,0,2.64.3,3.81.88.18.08.35.17.52.26.17.1.34.2.5.31.04.01.07.03.1.06.18.11.34.23.5.37.02.01.04.03.06.05.07.05.13.1.19.17.09.06.18.14.27.24t0,.01c.08.07.16.15.23.22l4.24,4.23,1.58,1.58s0,0,0,.01c.9.95,1.39,2.19,1.39,3.51v.31c0,1.21-.42,2.36-1.19,3.28ZM263.98,186.11l-.65-.65s-.06-.07-.1-.11l-2-2h-.01l-3.71-3.71-.06-.07c-.61-.61-1.3-1.13-2.03-1.55-.33-.2-.67-.36-1.02-.51-1.19-.52-2.49-.79-3.84-.79h-2.21c-1.63-.26-2.89-1.68-2.89-3.39v-.44c0-1.9,1.55-3.44,3.44-3.44h3.93c.53,0,1.06.05,1.57.15.35.05.69.14,1.02.25,1.34.4,2.56,1.13,3.58,2.15l3.53,3.54,2.27,2.27c.95.94,1.47,2.2,1.47,3.54v.39c0,1.34-.52,2.6-1.47,3.55l-.82.82ZM117.7,302.74c.09-.04.18-.08.27-.14.15-.06.29-.13.44-.21.1-.04.19-.09.29-.14h.01c.15-.08.3-.16.44-.24.39-.2.77-.43,1.14-.67.19-.11.38-.22.56-.35.36-.25.71-.51,1.05-.81.34-.28.67-.57.99-.88.18-.17.36-.34.53-.52.18-.18.35-.36.51-.55.17-.19.33-.38.49-.57.16-.19.31-.39.46-.59.2-.27.39-.54.58-.82.09-.13.17-.27.26-.41.08-.13.16-.26.24-.4.27-.45.51-.9.72-1.37.12-.24.22-.47.32-.71.1-.24.2-.48.29-.73l1.86-5.04,4.06,11.22h-7.46c-.28,0-.51.23-.51.51v3.42h-7.54ZM158.71,302.74h-32.45v-2.91h114.99v2.91h-82.54ZM106.51,258.09l-4.25-6.74h9.17l-3.55,8.91-1.37-2.17ZM101.61,250.33l-7.09-11.24s-.02-.02-.02-.03l-3.33-6.11c.89-1.21,3.95-6.08.42-11.85-.94-1.53-3.18-4.55-4.9-6.81-2.04-2.7-3.73-5.67-5-8.82l-1.48-3.66c-.85-2.1-3.19-3.14-5.32-2.38l-.4.14c-2.13.76-3.29,3.13-2.58,5.29l3.85,11.61h-5.57c-3.11,0-6.16-.86-8.81-2.5l-1.43-6.48c-.46-2.1-2.55-3.45-4.65-3.02-1.83.38-3.13,2-3.16,3.8l-2.14-5.37v-41.19h31.69v9c0,.28.23.51.51.51h42.07v6.78c-5.8,1.56-10.07,6.84-10.07,13.13s4.27,11.57,10.07,13.13v28.96c-.44.3-.88.61-1.31.94-.45.35-.9.7-1.33,1.07-.29.25-.58.51-.86.77-.26.24-.51.48-.76.73-.15.14-.29.28-.42.42-.17.17-.33.34-.48.5-.25.27-.49.54-.73.82-.12.13-.23.26-.34.4-.27.32-.53.65-.78.98-.15.18-.28.36-.41.54-.13.17-.25.34-.37.52-.13.17-.25.35-.36.53-.12.17-.24.35-.35.53-.09.12-.17.25-.24.38-.14.21-.27.43-.4.66-.29.48-.56.97-.81,1.48-.1.2-.21.41-.31.62-.15.31-.3.62-.44.94-.07.14-.13.28-.19.42-.07.17-.15.35-.22.53l-1.33,3.34h-10.22ZM50,155.76h31.69v4.93h-31.69v-4.93ZM144.97,216.19c-.29-.25-.56-.51-.81-.78-1.39-1.55-2.24-3.59-2.24-5.83,0-4.81,3.91-8.71,8.72-8.71,2.35,0,4.49.93,6.06,2.45,1.63,1.59,2.65,3.8,2.65,6.26,0,.78-.1,1.54-.3,2.26,0,.02,0,.05-.02.07-.06.22-.12.43-.2.63-.06.18-.13.35-.21.52-.04.09-.07.17-.12.26-.14.3-.3.59-.48.87-.06.11-.13.22-.21.32-.21.32-.45.61-.7.89-.05.06-.11.12-.16.17-.15.17-.31.32-.47.47-.17.15-.34.29-.51.43-.04.03-.08.06-.12.09-.13.09-.26.18-.39.26-.02.02-.03.03-.05.04-.02.02-.03.02-.05.03-.04.03-.07.06-.11.08-.03.01-.05.02-.08.03l-.22-.04v.18s-.11.07-.16.1c-.16.08-.33.17-.5.24-.14.07-.28.13-.42.18-.13.06-.26.11-.39.15-.05.02-.09.03-.13.04-.4.14-.81.24-1.23.31-.15.03-.29.05-.43.06-.14.02-.29.03-.43.04-.21.02-.41.03-.62.03-.28,0-.56-.01-.83-.04-.21-.02-.41-.04-.61-.08-.04,0-.07-.01-.1-.02-.29-.05-.58-.12-.85-.2h-.01c-.81-.23-1.56-.57-2.25-1.01-.18-.11-.35-.22-.51-.34-.18-.13-.35-.27-.51-.41ZM155.97,217.72s.09-.06.13-.09c.16-.1.31-.21.46-.33.2-.15.4-.31.58-.48.01-.01.02-.01.02-.02.2-.18.38-.36.56-.55.13-.13.26-.27.37-.42.17-.19.34-.4.48-.62.07-.09.14-.19.2-.29.26-.38.48-.78.68-1.2.05-.12.1-.23.15-.36,0-.01.02-.02,0-.03.07-.14.13-.29.18-.44.06-.14.1-.28.14-.43.04-.11.08-.23.11-.35,0-.03.02-.07.02-.1v-.02c.2-.77.31-1.58.31-2.41,0-3.58-1.94-6.7-4.81-8.4h-.01c-1.71-2.42-4.53-4-7.72-4-5.24,0-9.48,4.25-9.48,9.48,0,3.07,1.46,5.81,3.72,7.53,0,0,0,.01.01.01h0c.71,1.32,1.68,2.43,2.89,3.29v8.43c-.62.13-1.23.28-1.84.43-1.31.3-2.61.63-3.9.98-.48.12-.95.25-1.42.39-.55.15-1.09.3-1.63.46l-1.5.44-1.75.51c-.57.17-1.13.35-1.69.55v-25.4c5.85-1.52,10.17-6.83,10.17-13.15s-4.32-11.63-10.17-13.15v-6.75h39.55l12.18,53.67c-3.95-1.64-8.28-2.43-12.68-2.23l-1.51.07c-4.29.2-8.56.6-12.81,1.2v-6.21ZM130.22,177.75c-.79-.14-1.59-.23-2.42-.23s-1.7.09-2.51.24v-6.54h4.93v6.53ZM125.29,204.49c.82.15,1.65.24,2.51.24s1.63-.09,2.42-.23v25.56c-.47.18-.93.38-1.38.59-.26.12-.52.24-.78.37-.26.13-.52.25-.77.39-.38.19-.76.4-1.13.62-.14.09-.29.17-.44.26-.15.08-.29.17-.43.26v-28.06ZM145.99,226.43v-8.3c.87.48,1.81.82,2.81,1.01.08.02.17.04.25.05.3.38.65.76,1.07,1.12,1.6,1.39,3.43,1.85,4.83,1.96v4.16c0,2.13-1.73,3.86-3.86,3.86h-1.25c-2.02,0-3.68-1.57-3.83-3.55-.02-.1-.02-.21-.02-.31ZM184.27,226l-.14-.61-12.43-54.79c-.05-.24-.26-.4-.5-.4h-88.49v-70.03h112.73v70.03h-6.11c-.27,0-.5.22-.51.5l-1.47,56.43v.56s-.03.61-.03.61l-.26,10-2.64-11.64-.15-.66ZM205.51,160.69h-9.05v-4.93h9.05v4.93ZM188.32,228.99c3.55,2.51,6.55,5.83,8.67,9.78l1.13,3.29h-10.14l.34-13.07ZM210.28,267.82c2.17,0,3.93,1.76,3.93,3.94,0,1.04-.41,2-1.08,2.7-.17.19-.37.36-.58.51-.31.22-.65.39-1.02.51-.39.14-.81.21-1.25.21-2.17,0-3.94-1.76-3.94-3.93,0-1.03.39-1.97,1.05-2.67.12-.14.25-.26.4-.38.14-.11.28-.22.44-.31.6-.37,1.3-.58,2.05-.58ZM199.2,242.06l-1.26-3.66s-.02-.05-.03-.07c-2.31-4.31-5.63-7.91-9.56-10.55l1.48-56.56h6.12c.29,0,.51-.23.51-.51v-9h9.05v80.35h-6.31ZM205.51,154.74h-9.05v-55.08c0-.28-.22-.51-.51-.51h-64.71v-33.02h74.27v88.61ZM130.22,66.13v33.02h-4.93v-33.02h4.93ZM124.27,66.13v33.02h-42.07c-.28,0-.51.23-.51.51v55.08h-31.69v-88.61h74.27ZM34.04,210.66c-1.32-1.15-1.53-3.14-.48-4.54.66-.87,1.66-1.33,2.68-1.33.65,0,1.3.19,1.87.58l5.49,4.02,2.72,9.22c.36,1.2.94,2.31,1.74,3.28.1.12.25.19.4.19.11,0,.22-.04.32-.12.22-.18.25-.5.07-.72-.71-.86-1.23-1.85-1.55-2.92l-2.68-9.1-.17-.58-.17-.57-1.12-3.79c-.43-1.45.34-3.02,1.75-3.56,1.49-.58,3.18.16,3.77,1.63l.3.75,1.02,2.56.83,2.09.31.77.31.78.95,2.38s.02.05.05.08l.91,9.75c.13,1.45.54,2.75,1.09,4,.53,1.2,1.2,2.35,1.89,3.52l.09.16c.14.24.46.32.7.18s.33-.45.18-.7l-.09-.15c-.67-1.17-1.33-2.3-1.85-3.48-.5-1.13-.87-2.32-1-3.62l-.76-8.24-.26-2.76-.06-.63-.06-.62-.04-.48c-.19-1.5.83-2.91,2.31-3.22,1.56-.32,3.11.68,3.45,2.24l1.23,5.55.3,1.38,1.29,5.83c.54,2.43,1.77,4.64,3.57,6.42l2.75,2.32,3.14,2.64c.09.09.21.13.33.13.14,0,.29-.07.39-.19.18-.21.15-.53-.06-.72l-5.86-4.94c-1.64-1.61-2.76-3.64-3.26-5.88l-1.09-4.93c2.61,1.43,5.53,2.17,8.51,2.17h5.91l1.71,5.05c.08.21.27.35.49.35.05,0,.11-.01.16-.03.27-.09.41-.38.32-.65l-1.83-5.39-4.07-12.29c-.54-1.62.34-3.42,1.96-4l.4-.14c1.61-.58,3.38.22,4.02,1.8l1.48,3.66c1.31,3.24,3.04,6.28,5.14,9.05,2.44,3.22,4.11,5.55,4.84,6.74,3.66,5.98-.37,10.73-.54,10.93-.14.16-.17.39-.07.58l1.52,2.78-16.79,12.92-3.08-5.33s-.06-.09-.1-.13l-12.92-11.24-.05-.05-8.69-7.55-1.02-.89-14.94-13ZM50,250.33v-24.43l20.92,18.21,3.59,6.22h-24.51ZM105.61,302.31c-.28-.09-.56-.19-.83-.3-.16-.06-.31-.12-.46-.19-.02,0-.03,0-.04-.02-.14-.05-.27-.1-.4-.17t-.02-.01c-.13-.06-.27-.12-.4-.19-.27-.13-.54-.27-.8-.42-.26-.14-.51-.29-.75-.45-.03-.02-.06-.04-.09-.06-.29-.18-.58-.38-.86-.59-.18-.13-.35-.26-.52-.4-.04-.03-.08-.06-.12-.1-.11-.08-.21-.17-.32-.27-.05-.03-.09-.07-.13-.11-.13-.12-.26-.23-.39-.35-.05-.05-.11-.1-.15-.15-.15-.14-.29-.28-.42-.42-.05-.05-.1-.1-.14-.15-.11-.11-.21-.22-.3-.33-.11-.11-.21-.22-.29-.34-.11-.12-.21-.24-.31-.37-.43-.52-.82-1.08-1.18-1.66l-19.55-31.72-5.77-9.37,4-2.5s.08.03.12.04c.04.01.08.01.12.01.1,0,.19-.02.28-.08l.45-.29.89-.57.7-.45,15.99-10.26,6.48,10.26.28.45h.01l.35.57h0l4.55,7.21s0,.02.02.03c0,.02.01.03.02.05l3.09,4.9,7.26,11.49c.1.15.26.24.43.24.1,0,.19-.03.27-.08.24-.15.31-.47.16-.71l-6.9-10.94-1.4-2.21h0s3.97-9.98,3.97-9.98h.01l.22-.57.18-.45,1.18-2.96c.16-.4.34-.8.51-1.19.12-.25.24-.5.36-.74.12-.25.24-.49.37-.73.14-.28.29-.55.45-.82.13-.24.26-.47.41-.7.09-.17.2-.34.31-.51.1-.17.21-.34.33-.51.14-.22.29-.44.44-.65.1-.15.2-.29.31-.43.48-.67.99-1.32,1.53-1.94.17-.2.34-.39.52-.58.45-.51.93-1,1.44-1.47.25-.24.5-.47.76-.7.25-.23.51-.45.78-.67.13-.12.27-.23.4-.33.4-.32.81-.64,1.24-.93.33-.25.67-.48,1.02-.71.02-.01.04-.03.07-.04.32-.21.64-.41.96-.6.93-.55,1.89-1.06,2.89-1.51.27-.13.55-.25.82-.36.06-.03.13-.05.19-.08.33-.14.67-.27,1.02-.39.21-.08.41-.16.63-.23.44-.15.89-.3,1.34-.43l3.26-.95c.66-.19,1.32-.38,1.98-.56.75-.22,1.51-.42,2.27-.61.56-.15,1.13-.3,1.7-.43.86-.21,1.73-.41,2.59-.6.06.64.26,1.25.55,1.79h0s.01.02.01.03c.45.81,1.13,1.48,1.95,1.93.69.38,1.48.59,2.32.59h1.25c.84,0,1.64-.21,2.33-.59h0s.01,0,.01-.01c.81-.45,1.48-1.12,1.93-1.93.01,0,.01-.01.01-.01h0c.38-.7.59-1.5.59-2.34v-1.47c4.26-.61,8.56-1.01,12.86-1.21l1.51-.07c4.5-.21,8.91.66,12.91,2.42l3.62,15.96h-11.59l-2.53,8.27-.14.45-.17.57-3.73,12.19-10.79,35.27h-23.63l-4.6-12.73,6.67-19.81c.09-.27-.06-.56-.33-.65-.26-.09-.55.06-.64.33l-6.71,19.95v.03s-2.35,6.35-2.35,6.35c-.1.26-.2.53-.31.78-.11.26-.22.51-.35.76-.09.2-.2.4-.31.6-.33.62-.7,1.22-1.11,1.79-.25.34-.51.67-.78.99-.25.32-.53.63-.84.93-.21.22-.44.44-.67.65s-.47.41-.71.61c-.16.14-.32.27-.49.38-.33.25-.67.49-1.02.72-.17.11-.35.22-.53.32-.18.12-.36.22-.54.31-.18.1-.37.2-.55.29-.37.18-.76.35-1.14.51-.17.07-.33.13-.5.19-.17.06-.34.12-.51.18-.16.06-.33.11-.49.15-.22.07-.43.13-.65.18-.12.04-.24.06-.35.09-.06.01-.11.02-.16.03h-7.12c-.54-.12-1.07-.26-1.59-.43ZM67.64,481.5h-8.16v-169.11h8.16v169.11ZM249.27,345.46l-11.08,9.79-.38.34-.14.13-.25.21.25.26v31.89l-.15.14c-.09-.09-.22-.15-.36-.15-.12,0-.24.04-.32.12l-.19-.24v-31.68h-25.78l-.42-.51h-1.17l.56-.51h25.76l.83.19h.01l.21-.19.26-.23.46-.41,11.22-9.91c.21-.19.54-.17.72.04.19.21.17.54-.04.72ZM192.16,431.71c1.34,0,2.71.29,4,.92,4.6,2.22,6.54,7.76,4.32,12.36-.9,1.88-2.37,3.35-4.2,4.24-.14.08-.28.15-.42.21-.17.08-.33.15-.5.2-.05.03-.11.05-.16.07-.99.35-2.01.52-3.02.52-.25,0-.49-.01-.73-.03-.26-.02-.52-.05-.78-.09-.87-.14-1.73-.41-2.55-.8-2.23-1.08-3.9-2.95-4.72-5.29-.26-.74-.42-1.49-.49-2.25-.02-.26-.03-.53-.03-.79,0-.24.01-.48.03-.72.08-1.13.38-2.26.89-3.31.1-.2.21-.41.33-.6.08-.15.17-.3.27-.44.09-.14.18-.28.28-.41,1.76-2.42,4.57-3.79,7.48-3.79ZM175.66,433.21c.13-.12.26-.22.41-.31.38-.26.81-.44,1.27-.54,1.07-.24,2.17.01,3.01.7,1.03.84,2.03,1.7,3,2.58-.17.27-.33.56-.47.86-.43.89-.72,1.82-.88,2.77-.04.22-.07.45-.09.67-.02.23-.04.47-.04.7-.05,1.25.14,2.5.57,3.72.9,2.59,2.76,4.67,5.24,5.87,1.28.62,2.66.96,4.04,1.01.14.01.27.01.41.01.1,0,.19,0,.29-.01.22,0,.45-.01.67-.04.82-.07,1.64-.25,2.44-.53.13-.04.26-.09.38-.14,5.32,8.5,8.3,17.7,8.43,26.63l-4.11-1.98-10.69-6.44-.71-.43-4.69-2.83h-.01l-19.81-9.55.89-1.85,9.42-19.54c.18-.36.4-.69.66-.97.11-.13.24-.25.37-.36ZM172.6,429.87c-.11.09-.18.22-.19.37-.01.14.04.27.14.38l2.05,2.22c-.35.37-.64.79-.87,1.27l-9.38,19.45-.93,1.93-19.24-9.28c-4.14-1.99-7.09-5.44-8.39-9.63-.42-1.37-.67-2.81-.72-4.31-.22-6.09,2.8-11.53,8.08-14.56.03-.02.05-.04.08-.06l34.47-29.06,19.49,21.05-24.59,20.23ZM304.75,439.44c5.11,0,9.26,4.16,9.26,9.26,0,2.13-.72,4.09-1.92,5.65-.1.13-.2.25-.3.37-.12.14-.25.28-.37.41-.76.77-1.64,1.42-2.62,1.9-.21.1-.43.2-.66.28-.24.1-.49.19-.74.26-.84.25-1.73.39-2.65.39-3.38,0-6.34-1.82-7.96-4.53-.13-.22-.26-.46-.37-.69-.11-.22-.2-.44-.29-.66-.41-1.05-.64-2.19-.64-3.38,0-.23.01-.46.03-.68.01-.17.02-.34.05-.51.02-.17.05-.34.08-.51.8-4.29,4.58-7.56,9.1-7.56ZM287.68,447.39c.87-.68,1.97-.93,3.02-.68,1.29.31,2.56.64,3.81,1.01-.02.32-.04.65-.04.98,0,1,.14,1.97.41,2.89.06.21.13.42.21.63.08.22.17.44.26.65,1.61,3.6,5.21,6.11,9.4,6.11,1.45,0,2.83-.3,4.08-.85.22-.09.43-.19.64-.3.2-.1.38-.2.57-.32.83-.5,1.59-1.12,2.26-1.83,8.44,5.33,15.1,12.28,19.11,20.23.01.03.03.05.04.08h-45.25v-25.47c0-.4.06-.79.17-1.16.04-.16.1-.33.17-.48.06-.16.14-.32.24-.46.23-.4.54-.74.9-1.03ZM285.42,448.99c-.16.48-.24,1-.24,1.53v23.74h-21.35c-4.35,0-8.32-1.64-11.27-4.55-.16-.15-.32-.31-.48-.48-.13-.15-.27-.3-.4-.46-.81-.93-1.52-1.97-2.12-3.11-2.84-5.39-2.48-11.6.96-16.63.06-.08.09-.18.09-.29v-38.7h31.67v37.38c0,.21.13.39.33.47l2.81,1.1ZM283.58,410.04h4.83c.13,0,.26-.06.36-.15.09-.1.15-.23.15-.37l-.06-26.88v-1.27s-.01-1.31-.01-1.31c4.54,3.07,7.53,8.26,7.53,14.14v7.85c0,.28.23.51.51.51h15.35c3.23,0,5.86,2.63,5.86,5.86v.8c0,3.22-2.63,5.85-5.86,5.85-.14,0-.27.06-.36.15h-28.29v-5.18ZM345.63,383.18c-1.18,1.26-2.77,1.96-4.5,1.96s-3.3-.69-4.48-1.94c-.43-.45-.78-.95-1.04-1.49v-10.74h11.13l.53,7.58c.12,1.72-.46,3.37-1.64,4.63ZM321.19,357.94l-2.75,20.04c-.27,1.97.26,3.92,1.52,5.47,1.25,1.55,3.03,2.49,5.02,2.65,2,.16,3.92-.51,5.4-1.86.9-.82,1.56-1.83,1.94-2.95.25-.72.39-1.48.39-2.28l.03-3.34.17-21.64c0-.28-.22-.52-.5-.51-.28,0-.51.22-.51.51l-.21,24.97c-.01,1.72-.72,3.31-1.99,4.48-1.27,1.16-2.91,1.74-4.64,1.6-1.7-.13-3.23-.94-4.31-2.27-1.07-1.34-1.53-3-1.3-4.7l2.77-20.17h.05v-.28s.57-4.26.57-4.26v-.05s.02-.04.02-.04c.02-.12-.02-.24-.08-.34,1.67-5.55,6.82-9.4,12.64-9.4,7.27,0,13.19,5.92,13.19,13.2,0,.14,0,.27-.02.41l-.03.75h5.15c1.47,0,2.67,1.19,2.67,2.66,0,4.91-3.87,9.02-8.71,9.35-.15.01-.31.02-.47.02h-12.59v32.71h12.19c1.89,0,3.42,1.53,3.42,3.41v5.72c0,1.88-1.53,3.41-3.42,3.41h-31.22c2.11-1.18,3.53-3.42,3.53-6v-.8c0-3.8-3.09-6.88-6.88-6.88h-14.84v-7.34c0-6.47-3.43-12.14-8.55-15.34l-.04-18.92v-2s32.39,0,32.39,0ZM388.35,481.5h-8.15v-169.11h8.15v169.11ZM298.93,303.76c.7.18,1.43.29,2.19.29h11.31c.76,0,1.49-.11,2.19-.29h73.74v7.55h-116.66c-4.11-2.11-8.77-3.29-13.7-3.29h-120.4v3.29s0,0,0,0H59.49v-7.55h47.63c.12.03.24.06.37.08.3.06.61.11.92.15.09.01.18.03.28.04.04,0,.08.01.12.01.28.03.56.06.84.07.37.03.76.04,1.14.04s.75,0,1.13-.04c.13-.01.26-.02.38-.03.25-.02.5-.04.74-.08.38-.05.75-.11,1.13-.18.12-.01.23-.04.34-.06h11.14s.07.01.1.01h9.28c.09.14.24.23.42.23h69.01c.06.02.13.04.2.04h37.46c1.22,0,2.43-.09,3.6-.28h53.21ZM264.4,280.74c0,11.09-8.15,20.32-18.78,22h-3.35v-3.42c0-.07-.01-.12-.04-.18h0s12.53-40.99,12.53-40.99l.66-2.15,4.26-13.94h-26.63v-10.94h3.22v.71c0,.28.23.51.51.51h23.54c.28,0,.51-.23.51-.51v-.71h3.57v49.62ZM264.91,230.09h-4.08v-7.66l1.17-1.65c1.25-1.78,1.92-3.87,1.92-6.04v-4.75c0-2.2-.61-4.37-1.75-6.24l1.07-1.07c1.15-1.15,1.79-2.68,1.79-4.31v-.34c0-1.49-.54-2.9-1.51-4.02.98-1.1,1.51-2.52,1.51-4.01v-.31c0-.91-.2-1.8-.59-2.6l1.08-1.08c1.14-1.14,1.77-2.65,1.77-4.27v-.39c0-1.61-.63-3.13-1.77-4.27l-2.33-2.33,1.26-7.54h2.71l1.61-9.64h-13.35v-54.08h39.62v153.66h-29.62v-26.54c0-.29-.23-.52-.51-.52ZM453.85,257.15h-157.77V108.94l78.53-41.15s0,0,0,0l79.23,41.94v147.42Z"/>
  <path class="cls-1" d="M320.62,139.71s-.01.02-.02.02c-.08.03-.17.05-.24.11-.21.14-.35.36-.39.61,0,.05,0,.1,0,.15,0,0-.01.02-.02.03-7.89,11.06-12.54,24.56-12.56,39.11v.05s-.01.04-.01.06.01.04.01.06v.06c.03,14.41,4.58,27.77,12.33,38.76,0,0,0,.01.01.02,0,.05-.01.11,0,.16.06.35.32.61.63.72,0,0,0,0,0,.01,10.77,14.76,27.36,25.07,46.4,27.57,2.93.68,5.94,1.04,9.01,1.04s6.07-.36,8.99-1.04c18.93-2.47,35.45-12.68,46.23-27.31h0c.33-.11.58-.38.65-.73,0-.05,0-.1,0-.16,0,0,.01-.02.02-.02,7.85-11.04,12.48-24.5,12.51-39.02v-.08s0-.02,0-.04,0-.02,0-.04v-.07c-.02-14.53-4.66-28-12.52-39.05,0,0,0,0,0,0,0,0,0-.01,0-.02-.05-.29-.24-.52-.49-.65,0,0-.01-.02-.02-.02-10.77-14.73-27.35-25.01-46.37-27.5-2.92-.68-5.92-1.04-8.99-1.04s-6.08.36-9.01,1.04c-18.89,2.48-35.37,12.65-46.15,27.22ZM428.95,140.16c-3.4.57-6.83,1.09-10.29,1.55-5.57-10.93-13.46-19.63-22.73-24.84,13.3,4.2,24.79,12.45,33.02,23.29ZM395.93,242.82c9.25-5.2,17.13-13.87,22.7-24.77,3.45.47,6.86,1,10.24,1.59-8.22,10.79-19.68,19-32.93,23.18ZM322.51,219.39c3.41-.57,6.85-1.09,10.32-1.55,5.57,10.99,13.48,19.74,22.78,24.98-13.35-4.22-24.88-12.52-33.1-23.43ZM355.61,116.87c-9.22,5.19-17.07,13.83-22.63,24.68-3.44-.47-6.85-.99-10.23-1.58,8.21-10.75,19.64-18.92,32.85-23.1ZM430.12,217.94c-3.5-.62-7.05-1.17-10.63-1.66,0,0,0-.01,0-.02,4.92-10.3,7.82-22.45,7.95-35.47,0,0,0,0,0,0h14.85s0,0,0,0c-.19,13.81-4.68,26.62-12.18,37.15h0ZM334.8,217.59c7.23-.9,14.6-1.55,22.07-1.95.86,4.37,1.88,8.46,3.05,12.19,2.69,8.57,6.02,14.63,9.7,17.82-.75-.07-1.5-.15-2.24-.24-.02-.01-.03-.01-.05-.01-13.44-3.09-25.05-13.38-32.52-27.81ZM321.26,217.68c-7.4-10.48-11.81-23.19-12-36.89,0,0,0,0,0,0h14.85s0,0,0,0c.13,12.93,2.99,25,7.85,35.26,0,0,0,.01,0,.02-3.6.48-7.17,1.02-10.7,1.62,0,0,0,0,0,0ZM321.5,141.67c3.5.61,7.03,1.16,10.6,1.65,0,0,0,0,0,0-4.94,10.32-7.86,22.51-7.99,35.57,0,0,0,0,0,0h-14.85s0,0,0,0c.19-13.85,4.7-26.68,12.24-37.23,0,0,0,0,0,0ZM356.54,145.72s0,0,0,.01c-1.83,9.98-2.83,21.33-2.87,33.17,0,0,0,0,0,0h-27.68s0,0,0,0c.13-13.01,3.07-25.12,8.05-35.3,0,0,0,0,0,0,7.36.97,14.88,1.67,22.5,2.12ZM375.78,113.76c.78,0,1.56,0,2.33.05,4.33,1.75,8.51,8.32,11.74,18.62,1.12,3.56,2.1,7.44,2.92,11.59-5.41.26-10.86.41-16.36.41-5.92,0-11.79-.17-17.6-.48.82-4.12,1.79-7.99,2.9-11.52,3.23-10.3,7.41-16.87,11.75-18.62.77-.04,1.55-.05,2.33-.05ZM376.41,146.31c5.62,0,11.2-.15,16.72-.43,0,0,0,0,0,0,1.83,9.91,2.83,21.21,2.87,33.01,0,0,0,0,0,0h-40.45s0,0,0,0c.04-11.82,1.05-23.14,2.89-33.07,0,0,0,0,0-.01,5.93.32,11.92.49,17.96.49ZM375.78,245.93c-.78,0-1.56-.01-2.33-.05-4.34-1.75-8.52-8.32-11.75-18.62-1.13-3.59-2.11-7.52-2.93-11.72,5.35-.26,10.75-.4,16.2-.4,5.99,0,11.93.18,17.8.49-.83,4.16-1.81,8.07-2.93,11.63-3.23,10.3-7.41,16.87-11.74,18.62-.77.04-1.55.05-2.33.05ZM374.97,213.26c-5.57,0-11.09.15-16.56.42,0,0,0,0,0,0-1.83-9.88-2.82-21.14-2.86-32.88,0,0,0,0,0,0h40.45s0,0,0,0c-.04,11.77-1.03,23.05-2.86,32.95,0,0,0,.01,0,.02-6-.32-12.05-.5-18.16-.5ZM333.89,215.8c-4.88-10.13-7.77-22.13-7.9-35.01,0,0,0,0,0,0h27.68s0,0,0,0c.04,11.76,1.03,23.04,2.84,32.98,0,0,0,0,0,0-7.66.42-15.21,1.09-22.62,2.03,0,0,0,0,0,0ZM395.03,213.86s0,0,0,0c1.82-9.96,2.81-21.28,2.85-33.07,0,0,0,0,0,0h27.69s0,0,0,0c-.13,12.96-3.05,25.04-8,35.21-7.38-.98-14.9-1.68-22.54-2.14ZM425.57,178.9h-27.69s0,0,0,0c-.04-11.81-1.03-23.13-2.86-33.1,0,0,0-.01,0-.02,7.65-.42,15.19-1.09,22.58-2.03,4.93,10.15,7.84,22.21,7.97,35.15,0,0,0,0,0,0ZM384.19,245.41c-.74.09-1.49.17-2.24.24,3.68-3.19,7.01-9.25,9.7-17.82,1.16-3.71,2.17-7.77,3.03-12.1,7.44.44,14.78,1.12,21.98,2.05,0,0,0,0,0,0-7.46,14.32-19.04,24.55-32.42,27.62-.02,0-.03,0-.05.01ZM416.69,141.96s0,0,0,0c-7.21.9-14.57,1.55-22.02,1.96-.85-4.32-1.86-8.36-3.02-12.06-2.69-8.57-6.02-14.63-9.7-17.82.75.07,1.5.15,2.24.24.02.01.03.01.05.01,13.4,3.07,24.98,13.32,32.45,27.67ZM367.37,114.28c.74-.09,1.49-.17,2.24-.24-3.68,3.19-7.01,9.25-9.7,17.82-1.15,3.68-2.16,7.69-3.01,11.99-7.44-.43-14.77-1.11-21.96-2.03,0,0,0,0,0,0,7.47-14.27,19.02-24.46,32.37-27.52.02,0,.03,0,.05-.01ZM442.3,178.9h-14.85s0,0,0,0c-.13-12.99-3.02-25.12-7.92-35.41,0,0,0,0,0,0,3.59-.48,7.16-1.02,10.67-1.62,7.46,10.51,11.91,23.27,12.1,37.04,0,0,0,0,0,0Z"/>
  <path class="cls-1" d="M154.39,213.49c.19-.17.37-.36.54-.56l-5.93-1.21c.67,1.65,3.04,2.82,5.39,1.77Z"/>
  <path class="cls-1" d="M322.46,289.54c0,2.14,1.75,3.89,3.9,3.89s3.89-1.75,3.89-3.89-1.75-3.9-3.89-3.9-3.9,1.75-3.9,3.9ZM329.23,289.54c0,1.58-1.29,2.87-2.87,2.87s-2.87-1.29-2.87-2.87,1.28-2.88,2.87-2.88,2.87,1.29,2.87,2.88Z"/>
  <path class="cls-1" d="M318.71,275.66h-18.84c-.28,0-.51.23-.51.51s.23.51.51.51h18.84c1.89,0,3.43-1.54,3.43-3.43s-1.54-3.43-3.43-3.43h-8.95c-1.33,0-2.41-1.08-2.41-2.41v-.22c0-1.33,1.08-2.41,2.41-2.41h5.24c.28,0,.51-.23.51-.51s-.23-.51-.51-.51h-5.24c-1.89,0-3.43,1.54-3.43,3.43v.22c0,1.89,1.54,3.43,3.43,3.43h8.95c1.33,0,2.41,1.08,2.41,2.41s-1.08,2.41-2.41,2.41Z"/>
  <path class="cls-1" d="M180.6,130.62s-.02-.08-.05-.12c-.02-.05-.05-.09-.1-.12-.02-.02-.04-.04-.06-.05-.03-.03-.07-.05-.12-.06-.05-.02-.1-.03-.16-.03h-8.4v-8.4s0-.07-.01-.11t-.01-.02s-.02-.08-.05-.12c-.02-.05-.05-.09-.1-.12-.02-.02-.04-.04-.06-.05-.03-.03-.07-.05-.12-.06-.05-.02-.1-.03-.16-.03h-8.4v-8.4s0-.07,0-.1c-.01-.06-.03-.12-.07-.17h0s-.07-.09-.11-.12c-.04-.04-.09-.07-.15-.09-.05-.02-.11-.03-.17-.03h-63.75c-.06,0-.11.01-.16.03h-.01s-.08.03-.11.06c-.02,0-.03.02-.04.03-.04.03-.08.07-.1.11-.01.01-.02.02-.02.03-.03.05-.05.1-.06.15-.01.03-.01.07-.01.1v29.03c0,.28.23.51.51.51h8.4v8.4c0,.28.22.51.51.51h8.39v8.4c0,.28.23.51.51.51h63.76c.28,0,.51-.23.51-.51v-29.03s0-.07-.01-.11t0-.02ZM177.75,131.26l-6.04,2.75-1.02.46-7.89,3.6-.51.23-.51.23-6.41,2.92-1.12.51-1.12.51-4.9,2.23-4.9-2.23-1.12-.51-1.12-.51-9.85-4.49-1.02-.46-4.93-2.24-1.02-.47-5.56-2.53h59.04ZM162.8,130.24h-8.81l7.79-3.55.51-.23.51-.23,7.89-3.59v7.6h-7.89ZM168.85,122.35l-6.05,2.75-.51.24-.51.23-10.27,4.67h-24.38l-1.84-.84-1.02-.46-14.47-6.59h59.05ZM145.08,121.33l16.7-7.6v7.6h-16.7ZM124.27,113.44h35.67l-17.32,7.89h-24.41l-17.32-7.89h23.38ZM99.05,141.45v-27.72l16.7,7.6h-8.3c-.06,0-.12.01-.17.03-.11.04-.2.11-.26.21-.03.04-.05.09-.06.14t-.01.02s-.01.07-.01.11v19.61h-7.89ZM107.96,150.36v-27.72l16.31,7.42v.18h-7.92c-.06,0-.11.01-.16.03-.04.01-.08.03-.12.06-.02.01-.04.03-.06.05-.05.03-.08.07-.1.12-.03.04-.04.08-.05.12t0,.02s-.01.08-.01.11v19.61h-7.88ZM179.6,155.76v3.51h-62.74v-27.73l7.41,3.37,1.02.47,4.93,2.24,1.02.47,7.38,3.36,1.12.51,1.12.51,7.16,3.26c.07.03.14.04.21.04s.15,0,.21-.04l7.16-3.26,1.12-.51,1.12-.51,3.94-1.8.51-.23.51-.23,7.89-3.59.51-.24.51-.23,7.89-3.59v24.22Z"/>
</svg>