<?xml version="1.0" encoding="UTF-8"?>
<svg id="Camada_1" data-name="Camada 1" xmlns="http://www.w3.org/2000/svg" viewBox="0 0 500 500">
  <defs>
    <style>
      .cls-1 {
        fill: #000;
        stroke-width: 0px;
      }
    </style>
  </defs>
  <path class="cls-1" d="M114.53,169.26h-9.2v53.13h9.2v-53.13ZM112.65,174.53h-5.43v-3.38h5.43v3.38Z"/>
  <path class="cls-1" d="M100.23,169.26h-9.2v53.13h9.2v-53.13ZM98.35,179.16h-5.43v-8.01h5.43v8.01Z"/>
  <path class="cls-1" d="M85.9,169.26h-9.2v53.13h9.2v-53.13ZM84.02,190.85h-5.43v-19.7h5.43v19.7Z"/>
  <path class="cls-1" d="M77.09,266.4h80.01v-12.22h-80.01v12.22ZM78.2,255.32h77.77v9.95h-77.77v-9.95Z"/>
  <path class="cls-1" d="M453.94,44.96H188.48c-.28,0-.5.22-.5.5v56.37h-16.63c-.33-2.02-.94-3.96-1.86-5.77-3.9-7.53-12.63-11.94-20.95-10.64-1.02-11.25-7.26-21.67-16.32-27.24-9.01-5.54-20.51-6.02-30.07-1.25-9.26,4.63-16.5,13.91-19.41,24.92-8.23-2.66-16.29-2.25-22.72,1.19-5.05,2.71-8.95,7.57-10.7,13.39-1.64,5.45-1.14,11.14,1.47,15.96,2.83,5.27,6.12,7.95,9.5,9.62-.36,1.69-.55,3.41-.55,5.21v166.71c0,13.99,11.39,25.38,25.39,25.38h88.6l-4.51,43.88-20.01,8.67.86,1.52h-.01v.03l-.44.2-38.25,17.18-7.15-.47-4.6-2.38-.06-.03c-.08-.13-.19-.25-.37-.26-.04,0-.07,0-.11.02h-.01s-15.66-8.1-15.66-8.1l-22.87-20.18c-.08-.08-.25-.14-.38-.11l-7.96,1.14c-.22.02-.41.24-.41.49v.27h-.01l-4.03,2.37-2.19,3.47s.91,12.64.78,13.15c0,.39,10.9,19,21.08,36.32l4.3,1.13,2.46,4.18-1.13,4.27c6.55,11.12,11.73,19.87,11.73,19.87l12.43,9.1,9.27-7.99,1.36-6.48h.13c.11,0,.24-.06.36-.17,1.91-2.02,3.74-3.74,5.34-5.24,2.89-2.71,5.38-5.04,7.35-8.14l-.11,1.82,1.68,3.76s11,6.27,11.34,6.67c.18.21,21.79,1.51,41.93,2.68l3.32-2.94,4.84.28,2.93,3.31c12.88.73,23.02,1.3,23.02,1.3l14.49-5.27-1.47-12.15-4.59-4.7-.4-.4-5.31,1.06-.05.02-5.43,1.08c-17.41,3.49-35.17,5.02-52.92,4.61l-3.55-.1c-8.88-.21-17.72-1.42-26.32-3.63l-1.73-.43-.02-.02h-.02c.23-.45.42-.95.61-1.44l.31-.7c.22-.61.3-1.24.22-1.85l46.31-10.2.5-.11h.01s6.14,10.83,6.14,10.83l60.69-23.22,90.96,33.49c26.39,8.35,55.31-4.16,64.59-27.95l5.87-16.7-40.65-12.6h-.02s-12.45-9.06-12.45-9.06l-1.33-1,.3.06,43.38,9.17c1.46.31,2.93.45,4.37.45,2.91,0,5.74-.61,8.32-1.72l-2,16.63c.34-.11.7-.2,1.06-.28l1.99-16.85c5.46-2.72,9.7-7.79,11.28-14.27l8.18-37.17c2.24-10.26.39-20.73-5.27-29.52-5.51-8.53-13.99-14.41-23.92-16.52l-12.33-2.63c-.55-.14-1.11-.28-1.66-.39l-.69-.14.3-7.7c16.82.22,32.73-9.26,39.58-25.28,1.75-4.1,2.77-8.34,3.14-12.58h33.5c.27,0,.5-.22.5-.5V45.46c0-.28-.23-.5-.5-.5ZM122.63,421.47l-.25.7c-.22.55-.45,1.08-.67,1.55l-.55,1.08c-2.05,3.93-4.85,6.51-8.15,9.64-1.55,1.42-3.27,3.05-5.1,4.96l-3.8-3.18-.15-.13-3.79-3.77c-12.6-12.54-23.74-26.43-33.26-41.42l-1.91-3.01c-4.78-7.5-8.67-15.5-11.64-23.89l-.6-1.7v-.97l7.31-1.03,22.73,20.04s.08.06.11.09l4.93,2.54-.53,6.89c-.04.28.17.51.45.53h.04c.24,0,.47-.19.49-.46l.49-6.48h.01l4.45,2.29v.02l-.53,6.72c-.02.27.19.51.45.53h.04c.27,0,.47-.19.49-.45l.49-6.31h.01l4.43,2.3-.49,6.56c-.02.26.19.51.45.53h.04c.27,0,.47-.21.49-.46l.48-6.13h0l4.26,2.21c.06.03.11.06.17.06l5.4.3.2.03.88.06.64.02.11.17.03.08,2.41,4.16-1.3,5.79-4.46,2.61c-.17.08-.25.25-.25.44-.03,1.94-.11,3.47-.2,4.69-.08.88-.13,1.66-.11,2.3,0,.77.09,1.41.31,2.07.14.37.28.73.5,1.11,0,.03.02.03.05.06.14.28.39.72.78,1.19v.03c.41.47,1,1.02,1.72,1.47,1.02.61,2.41.97,4.15.61l4.44-.92c1.05-.22,2.1.14,2.8.97.11.11.22.28.3.42.06.08.09.16.11.22.06.08.09.17.11.25l.03.03c.06.14.09.3.11.44.03.11.03.17.03.25.03.44-.03.86-.19,1.3ZM169.88,408.39l-.47.11-4.46,1-1.25.28-39.49,8.81-.78.17c-.05-.14-.11-.28-.22-.42-.08-.14-.2-.3-.31-.44-.94-1.11-2.38-1.58-3.79-1.28l-4.41.92c-3.33.72-5.02-1.72-5.63-2.8,0-.03-.02-.06-.02-.11-.81-1.36-.72-2.5-.56-4.91.06-1.16.17-2.6.17-4.46l4.43-2.61c.14-.05.2-.16.25-.3l1.39-6.21c.03-.11,0-.25-.06-.36l-2.46-4.21,37.91-17.08.44-.22h.01l17.15,30.29-1.02-.8,1.28,2.27,1.02.79.89,1.57h-.01ZM440.14,52.64c3.18,0,5.76,2.57,5.76,5.76s-2.58,5.76-5.76,5.76-5.74-2.6-5.74-5.76,2.55-5.76,5.74-5.76ZM421.21,52.64c3.16,0,5.76,2.57,5.76,5.76s-2.6,5.76-5.76,5.76-5.77-2.6-5.77-5.76,2.58-5.76,5.77-5.76ZM402.28,52.64c3.18,0,5.76,2.57,5.76,5.76s-2.58,5.76-5.76,5.76-5.77-2.6-5.77-5.76,2.61-5.76,5.77-5.76ZM188.04,113.22c.3,0,.63,0,.94.03,3.77.03,7.51.44,11.17,1.22.33.05.66.11.99.22,5.05,1.08,9.9,2.83,14.44,5.16.61.3,1.22.6,1.81.94,1.74.94,3.43,1.99,5.07,3.13.3.39.55.8.8,1.22,1.19,1.86,2.39,3.8,4.8,3.99.33.03.66.03.97,0,3.96,3.57,7.51,7.73,10.45,12.39.22.36.44.72.66,1.11,1.77,2.91,3.3,5.98,4.55,9.25.13.34.27.67.38,1,.23.58.45,1.19.64,1.8,2.88,8.62,3.8,17.57,2.77,26.33-.03.39-.08.81-.16,1.19,0,.25-.06.48-.11.73-.06.49-.14.99-.23,1.49-.99,5.71-2.82,11.31-5.48,16.66-.72,1.47-1.53,2.88-2.36,4.27-.19.33-.39.66-.61,1-4.3,6.9-9.89,12.77-16.46,17.37-.5.36-1,.7-1.5,1-4.35,2.88-9.09,5.21-14.16,6.9-15.38,5.16-31.85,4.02-46.4-3.21-3.43-1.72-6.68-3.72-9.67-6.02-1.05-.77-2.08-1.58-3.08-2.46-1.8-1.56-3.52-3.22-5.1-4.97-3.65-3.96-6.73-8.42-9.2-13.3-1.36-2.66-2.52-5.43-3.49-8.31-.64-1.92-1.19-3.86-1.61-5.77-1.41-6.12-1.83-12.3-1.36-18.32,1.42-17.79,10.68-34.34,25.39-44.79.53-.38,1.08-.75,1.64-1.13,3.85-2.55,8.09-4.71,12.64-6.38.49-.19,1.02-.36,1.55-.55h.03c6.37-2.16,12.86-3.19,19.23-3.19h.06ZM224.95,125.69c.92.72,1.83,1.44,2.72,2.22-1.19-.25-1.97-1.11-2.72-2.22ZM230.16,128.85c2.25-.86,4.08-3.19,5.91-5.46,2.24-2.82,4.35-5.48,7.01-5.32,2.3.14,3.77,2.5,5.18,4.82,1.44,2.36,2.94,4.8,5.46,4.91h.2c3.32,0,5.62-4.08,8.09-8.4,2.49-4.41,5.1-8.98,8.67-9.09,2.58-.08,4.41,2.19,6.35,4.57,1.97,2.5,4.05,5.05,7.15,5.16.08,0,.17.03.25.03,4.85-.03,9.81-6.02,15.16-18.35v39.8h-59.01c-2.91-4.74-6.43-9.01-10.42-12.67ZM276.34,173.83l-6.96-8.53c-.08-.11-.19-.2-.33-.2s-.28.03-.36.12l-19.29,16.68-.06-.06c1.22-9.11.31-18.48-2.71-27.46-.17-.5-.34-1-.53-1.5h52.8l-22.56,20.95ZM299.67,153.52v18.35l-7.81,9-5.91-5.32c-.08-.08-.22-.14-.36-.11-.13,0-.25.06-.33.17l-10.45,12.58-7.04-5.68c-.19-.14-.47-.14-.66.03l-8.59,8.12-8.4-8.07,18.82-16.29,6.98,8.56c.08.11.19.17.33.19.14,0,.28-.05.39-.13l23.03-21.4ZM215.98,270.27v-.02s0-.01-.01-.01v-.04h-.01c-.15-.48-.38-.89-.68-1.27-.59-.75-1.4-1.26-2.31-1.47-.16-.04-.32-.08-.49-.1.14-.07.27-.17.38-.26v-.02c.79-.66,1.36-1.61,1.49-2.72.14-1.09-.17-2.19-.86-3.06-.5-.64-1.16-1.11-1.91-1.38,1-.64,1.72-1.72,1.87-2.98.2-1.8-.74-3.46-2.27-4.22.23-.11.45-.24.66-.41.87-.68,1.44-1.68,1.57-2.78.09-.72-.02-1.4-.26-2.04v-.02c-.08-.17-.16-.34-.27-.51-.09-.2-.23-.39-.4-.56-.64-.82-1.6-1.38-2.72-1.51l-3.93-.48-3.13-9.42c3.28-1.11,6.38-2.47,9.32-4.06.03-.01.05-.02.07-.03.03,0,.06,0,.09-.03.24-.08.49-.19.74-.33h0s.02.01.02.01l4.45,13.32c-.28.03-.59.11-.84.25-.88.39-1.49,1.19-1.6,2.14v.11c-.03.13-.03.25-.03.36-.03.16-.03.33-.03.5,0,.16,0,.33.03.47.22,2.77,2.19,4.32,3.19,4.93v.03c.5.33.99.61,1.47.83.41.25.85.44,1.24.61h.01l7.56,22.54.02.07.36,1.02,1.77,5.27.17.55.17.49,6.4,19.09c-.71-.13-1.67-.08-2.77.1-.57.09-1.18.23-1.81.41-.34.09-.67.18-1.01.29-2.08.69-3.77,1.67-4.7,2.56-.07.07-.17.14-.24.21l-5.1-15.16-3.01-8.97-.17-.53-.19-.51-.4-1.21-.22-.67-.11-.33-1.36-4.05-.52-1.58s-.06-.08-.06-.11c.28-.47.45-1,.53-1.58.01-.17,0-.33,0-.5,0-.42-.04-.83-.16-1.23ZM201.79,252.33l2.1.24,3.21.4h.02l1.02.13.23.02.39.06h.19l.08.02.66.07c1.74.23,2.98,1.82,2.77,3.55-.15,1.27-1.02,2.27-2.17,2.63-.22.09-.47.13-.73.15h-.04l-1.29-.17-4.11-.49c-2.06-.25-3.97.87-4.84,2.62-.75-.69-1.17-1.32-1.21-1.39-.02-.04-.02-.06-.04-.08-1.17-1.68-1.24-4.1-.18-5.85.32-.53.92-1.27,1.88-1.67.55-.22,1.23-.34,2.06-.24ZM200.92,247.08c1.04-1.27,2.55-1.91,4.2-1.76l.07.25c.06.2.27.34.46.34h.07s.06-.02.1-.02c.19-.08.32-.25.34-.44l3.49.42c.74.09,1.38.41,1.85.91.15.13.27.28.38.43.43.62.64,1.4.55,2.19-.1.85-.53,1.61-1.19,2.13-.59.46-1.27.69-1.99.69h-.15l-.21-.02-.5-.08-.59-.07-.57-.06h-.05l-5.27-.64c-.72-.08-1.38-.04-2.02.13-.36-1.51.03-3.16,1.03-4.4ZM236.81,283.75l-5.18-.61-.09-.24-.02-.03-1.66-4.95-.4-1.17-7.46-22.25v-.02h.01c1.2.37,2.08.45,2.55.51.12,0,.23,0,.25.02h.06c1.66.2,2.13,1.56,2.47,2.55.13.28.19.53.3.72,1.3,3.3,4.32,5.6,7.84,6.05l.45.05c.25.03.5-.17.55-.44.03-.28-.16-.53-.44-.56l-.44-.05c-3.16-.36-5.88-2.47-7.04-5.46-.03,0-.03-.03-.03-.06-.09-.11-.17-.33-.22-.58-.36-1-1.03-2.91-3.3-3.19-.09-.02-.2-.02-.33-.05-.53-.03-1.67-.14-3.08-.67-.05-.02-.12-.04-.18-.07-.1-.04-.2-.08-.32-.13,0,0-.03-.01-.04-.02s-.01-.01-.04-.03c-.18-.05-.37-.14-.55-.22-.02-.01-.05-.02-.07-.03-.19-.11-.41-.19-.6-.33-.36-.19-.75-.41-1.11-.66-.06-.03-.06-.06-.11-.06-.83-.53-2.61-1.94-2.69-4.41-.03-.27,0-.58.03-.86l.02-.13c.09-.59.45-1.11,1-1.36.33-.17.72-.2,1.08-.11h.09c.08.02.16.05.22.08.11.03.25.08.33.14l.44.33c1.42.97,2.64,1.78,4.77,2.05l6.65.78c3.72.47,6.74,3.19,7.57,6.82l.75,3.27c.14.58.33,1.11.61,1.63l.03.03s0,.03.02.06c.09.22.25.47.39.69h.03v.03c.47.69,1.05,1.3,1.74,1.82l8.24,5.8-10.7,16.13-1.08-.61c-.06-.03-.11-.06-.2-.06l-1.11-.14ZM242.25,261.8c-1.25-.88-2.11-2.19-2.44-3.68l-.75-3.25c-.92-4.04-4.3-7.06-8.43-7.56l-6.65-.81c-1.88-.22-2.91-.91-4.29-1.85l-.47-.33c-.23-.14-.47-.25-.75-.36l-4.63-13.81c3.36-1.52,6.51-3.32,9.5-5.43h111.17c1.91,14.5,11.36,27.79,26.05,34.15l-.33,7.76-13.25-2.83c-1.1-.22-2.21-.28-3.29-.19h-.06s-.06,0-.09.02c-.01,0-.01-.01-.02-.01h-.01s-.02.01-.02.01c-2.52.22-4.88,1.31-6.76,3.02l-.06.06-47.2,21.06-35.61-24.39c-.11-.05-.25-.11-.39-.05-.14,0-.25.08-.33.19l-2.72,4.1-8.17-5.82ZM155.97,231.9v16.1h-77.77v-16.63h76.71c.35.18.71.36,1.06.53ZM171.52,102.8h16.46v9.45c-6.13,0-12.39.94-18.54,2.88,1.83-3.63,2.58-8.06,2.08-12.33ZM168.05,115.6c-5.62,1.92-10.81,4.61-15.44,7.88-1.35.08-2.74.11-4.21.11-1.69,0-4.32,0-7.59.02-21.34.11-71.31.39-74.81-.58-1.52-.41-3.04-.91-4.54-1.58,2.58-10.67,12.22-18.65,23.67-18.65h85.39c.58,4.46-.31,9.15-2.47,12.8ZM51.65,111.92c-2.47-4.57-2.97-9.98-1.39-15.22,1.69-5.54,5.41-10.2,10.23-12.77,3.49-1.89,7.48-2.83,11.72-2.83,3.47,0,7.07.61,10.7,1.86.14.05.28.02.42-.03.11-.06.19-.2.22-.31,2.77-10.97,9.89-20.23,19.04-24.8,9.26-4.63,20.4-4.16,29.1,1.19,8.95,5.51,15.05,15.88,15.91,27.05.03.14.08.25.19.33.11.11.25.14.39.11,8.07-1.52,16.63,2.69,20.43,10.01.86,1.66,1.44,3.46,1.74,5.32h-85.22c-11.86,0-21.81,8.18-24.59,19.21-3.16-1.61-6.23-4.22-8.89-9.12ZM175.92,297.97l-2.08,20.35h-88.71c-13.44,0-24.39-10.95-24.39-24.39v-8.93h119.42c-2.27,3.77-3.74,8.15-4.24,12.97ZM200.7,269.98c-8.09,1.88-15.41,6.82-19.95,14.05H60.74V127.22c0-1.64.16-3.25.47-4.77,1.5.64,3.02,1.11,4.52,1.52,2.05.59,17.76.75,38.08.75,11.42,0,24.3-.05,37-.11,3.3-.03,5.9-.05,7.59-.05.89,0,1.83,0,2.8-.03-.32.2-.61.44-.91.66-.04.03-.08.05-.12.07-.01,0-.01,0-.01.02h0s-.04.03-.06.04c-15.46,9.86-25.5,26.12-27.78,43.94h-2.68v53.13h9.23v-16.85c1.5,2.85,3.21,5.55,5.1,8.08v8.77h8c3.33,3.01,6.96,5.65,10.84,7.85h-75.71v18.87h80.01v-16.66c13.52,6.32,29.35,7.75,44.64,2.84l3.04,9.03c-1.8-.04-3.46.74-4.61,2.13-1.25,1.51-1.7,3.56-1.21,5.41-.79.39-1.46,1.02-1.96,1.87-1.25,2.07-1.16,4.91.22,6.91.28.55,1.1,1.42,1.7,1.94-.04.16-.07.33-.09.5l-.12.92c-.3,2.51.95,4.16,1.5,4.87.07.12.15.19.17.25.02.02.03.04.03.06.12.17.23.32.36.47-.02.11-.05.22-.07.33ZM122.88,188.22h-1.33v-17.07h.52c-.54,5.6-.27,11.34.81,17.07ZM200.98,268.27c-.49-.66-1.53-2.04-1.28-4.15l.11-.91c.02-.17.06-.32.09-.47,0-.04.02-.08.04-.12v-.02s0-.05.02-.09l.02-.02c.53-1.66,2.19-2.78,4.02-2.57l3.36.4h.02l.14.02h.02c.05.07.15.11.24.13l.42.04.6.07c.25.04.51.04.74.02h.04l1.02.11s.07,0,.11.02c.81.12,1.51.55,2,1.17.53.67.76,1.52.66,2.35-.07.72-.4,1.34-.87,1.81-.66.72-1.64,1.1-2.66.96l-.45-.03h-.08l-1.25-.16-2.73-.34c-1.12-.13-2.22.17-3.08.87-.44.32-.78.74-1.06,1.19-.06-.07-.13-.17-.21-.28ZM201.48,271.75l.19-1.49c0-.11,0-.17.06-.28,0-.06,0-.14.05-.22h-.01v-.02s0-.07.02-.11c.19-.58.57-1.09,1.06-1.49.68-.53,1.51-.76,2.34-.66l2.86.34,1.22.15,3.1.38c.36.03.7.13,1,.3h.02c.43.21.79.51,1.1.89.09.11.17.22.24.36.01.02.03.05.05.07.03.06.06.12.1.19.02.06.04.11.06.17.02.04.03.09.04.13.02.05.03.1.05.16.02.03.02.07.04.11.02.08.05.17.06.24.02.17.04.32.04.49,0,.03-.01.06-.01.09,0,.12,0,.23-.02.34,0,.06-.04.11-.05.17-.05.31-.12.61-.26.88-.59,1.15-1.86,1.88-3.22,1.71l-3.7-.43-1.28-.15c-.15-.02-.3.02-.4.11-.07.08-.15.19-.15.3h0v.02c-.01.07.03.13.05.2.02.05.02.12.05.16.08.11.19.18.31.19l.14.02,1.26.15h.02v.08l2.35,1.05-.77-.96,2.01.25c.67.08,1.31-.06,1.9-.28.27-.09.54-.16.77-.31l.94.11.65,1.93.68,2.04.21.61.56,1.66-5.59-.69h-.05l-.34-.03c-2.41-.31-4.99-1.44-6.9-3.11-2.08-1.77-3.07-3.85-2.85-5.82ZM292.16,353.26c-.05.23-.25.34-.47.34-.03,0-.08,0-.14-.03l-8.49-2.68-20.54-6.5c-13.57-4.3-27.92-4.83-41.55-1.67-.01,0-.02.01-.03.01-2.25.52-4.48,1.15-6.69,1.87-.03.01-.05.02-.08.03-2.21.72-4.39,1.55-6.54,2.48-.25.09-.53-.03-.64-.28-.11-.22,0-.52.25-.63,17.49-7.6,37.25-8.54,55.57-2.75l29.05,9.21c.19.05.33.22.33.41.03.06,0,.11-.03.19ZM335.4,355.93l-.06.3-.5-.14-.91-.22-5.52-1.41-.52.16-.42.11-6.9,2.11c-2.99.91-6.18,1-9.23.28l-6.68-1.61c-2.16-.53-4.13-1.52-5.85-2.91l-1.19-.94c-1.3-1.03-1.88-2.68-1.58-4.26.02,0,.03,0,.04.01h.02s2.24.55,2.24.55l7.34,1.8c1.81.43,3.55,1.07,5.21,1.92h.02s.63.34.63.34c.05.03.13.05.22.05.16,0,.33-.11.44-.27.11-.25.03-.56-.22-.67l-.64-.33c-.19-.08-.36-.2-.55-.28-.03,0-.06,0-.08-.03h-.02c-.08-.03-.15-.07-.23-.11-.25-.12-.51-.2-.77-.31-.88-.39-1.8-.71-2.73-.97-.34-.1-.69-.22-1.03-.31l-1.47-.35-1.1-.27-7.01-1.72c-.06-.02-.11-.03-.16-.05-.05,0-.1-.02-.15-.04l.06-.08c-.08-.03-.17-.03-.22-.05-.03.02-.03.05-.03.07h-.04l-.02-.02s-.05-.03-.08-.03h-.03c-.72-.2-1.38-.5-2.05-.8-1.1-.51-2.16-1.11-3.13-1.89l-1.19-.97c-.94-.72-1.51-1.81-1.64-2.97-.01-.11.01-.22.01-.33-.01-.28-.02-.57.02-.85,2.51.36,4.97,1,8.42,1.91.14.04.3.08.44.12.86.24,1.75.48,2.73.74.77.19,1.55.39,2.41.61.19.04.9.21,1.81.44,1.14.28,2.6.66,3.87.98,1.83.47,3.59,1.15,5.27,2.02l.31.16.21.11s.03.01.05.01c.06.03.11.06.19.06.17,0,.34-.11.43-.28.05-.09.04-.19.03-.29-.02-.15-.07-.3-.23-.38l-.52-.25c-.39-.23-.78-.39-1.17-.59-.54-.25-1.1-.46-1.66-.67-.87-.34-1.76-.63-2.66-.86-1.12-.29-2.37-.6-3.42-.86-.29-.07-.57-.15-.82-.21h-.03c-.34-.09-.63-.17-.87-.23-.27-.07-.47-.12-.55-.14-.72-.19-1.42-.36-2.08-.53-.48-.12-.93-.23-1.38-.35-.74-.19-1.45-.38-2.1-.55-.17-.03-.34-.09-.53-.14-3.27-.89-5.77-1.53-8.4-1.86h-.11s-.04-.01-.06-.01c-.62-.09-1.25-.15-1.9-.2-.68-.05-1.38-.08-2.11-.09h-.75c-.63,0-1.19-.28-1.67-.69-.13-.12-.29-.19-.4-.34-.14-.17-.18-.38-.27-.58-.12-.29-.21-.58-.23-.9-.02-.29-.05-.57.02-.86l.06-.27c.08-.3.21-.59.38-.84.03-.05.08-.08.12-.13.41-.55,1.01-.92,1.69-1.03.16-.03.3-.08.46-.07l.67.02c.72,0,1.44.01,2.16.03.93.02,1.91.09,2.92.19,1.44.15,2.99.4,4.81.87l3.41.85.68.17c.25.07.51.07.77.12,1.89.41,3.82.54,5.76.3,1.75-.23,3.47-.7,5.11-1.44l2.02-.91.78-.35h.02s3.51.9,3.51.9h.06l.42.11h.02c.23.05.42-.03.53-.2.03-.05.06-.11.06-.16.02-.03.02-.09.02-.11v-.03c-.02-.22-.16-.39-.38-.45l-.42-.13h-.06l-2.99-.75-.11-.03-14.49-3.69c-.73-.19-1.34-.63-1.7-1.27-.36-.67-.47-1.39-.3-2.14l.08-.24c.36-1.47,1.89-2.42,3.36-2.03l11.89,3.02c1.52.36,2.52.31,3.49.25.77-.03,1.52-.05,2.6.14.03,0,.06,0,.09.03.14.03.27.03.38.08h.09l.39.11h.08l2.11.56c5.34,1.35,7.95,4.93,9.06,6.45.03.06.05.09.08.12.17.24.31.41.42.52l.08.09.14.02,8.01,2.05-2.83,20.85-.08.61ZM295.41,325.94c.49.86,1.33,1.49,2.3,1.74l12.52,3.16h.01-.01s-1.66.76-1.66.76c-1.89.85-3.89,1.33-5.93,1.46l-15.8-11.5c4.05.36,8.2-.33,12.09-2.08l22.28-10.03c-.03.69-.11,1.35-.28,2.02l-3.27,12c-1.25-.22-2.11-.19-2.94-.14-.94.06-1.83.11-3.18-.25l-11.89-3.02c-2.03-.5-4.05.75-4.58,2.77l-.05.23c-.25.99-.11,2.02.39,2.88ZM377.53,242.93l-.81,19.62-.3,7.51-.03,1.03.5.11h.03c.05.03.11.05.16.08l.28.06,1.83.36.17.05,4.68,1,2.52.53,5.35,1.13c9.65,2.03,17.93,7.76,23.28,16.11,5.52,8.53,7.35,18.73,5.13,28.74l-8.15,37.16c-1.47,5.96-5.29,10.65-10.2,13.31-.19.11-.36.19-.55.28-.17.11-.34.19-.53.24-3.8,1.81-8.18,2.42-12.64,1.47l-45.06-9.53-.78-.17-.83-.61.64.56-.97-.2-5.19-1.11.61-2.82.03-.11.03-.14.78.22-.7-.64.03-.05.89.22-.78-.72,4.52-21.34.11-.47.11-.47.67-3.08,42.51,9.01.72.13,8.07,1.7s.05.02.11.02c.22,0,.41-.16.47-.39.05-.27-.11-.52-.39-.58l-8.06-1.72,7.04-32.51c.05-.24-.12-.52-.37-.58-.11-.02-.22,0-.33.03-.14.06-.25.19-.28.36l-7.03,32.51-43.24-9.17-.83,4.02-10.06-2.55c-.09-.12-.2-.28-.31-.42-1.08-1.5-3.93-5.4-9.62-6.87l-2.07-.53,3.38-12.47c.77-2.83.11-5.79-1.78-7.93-2.38-2.74-3.49-6.35-3.05-9.98.56-4.74,3.66-8.75,8.1-10.5,4.21-1.64,7.37-4.91,8.7-8.98.11-.25-.05-.53-.3-.61-.25-.08-.53.06-.64.31-1.22,3.79-4.21,6.84-8.12,8.39-4.77,1.86-8.1,6.18-8.73,11.28-.47,3.88.75,7.79,3.3,10.73,1.05,1.22,1.69,2.74,1.82,4.32l-22.86,10.29c-4.27,1.94-8.9,2.52-13.33,1.77l-36.06-26.25-9.67-8.09.05-.11.31-.44.25-.39,10.64-16.02.28-.42.27-.41,2.44-3.72,35.45,24.28c.14.08.31.11.47.03l47.62-21.29,6.57-2.93c.99-.06,1.99,0,2.99.19l13.41,2.85.47.11.5.09.03-1,.31-7.57.16-3.85c.36.06.72.08,1.11.11h.56c1.27,0,2.55-.19,3.77-.55.22-.09.38-.28.36-.53,0-.03,0-.05-.03-.08-.06-.28-.36-.42-.61-.33-1.3.36-2.66.55-4.02.47-.36,0-.75-.03-1.11-.09-.17-.02-.33-.02-.5-.08-.16,0-.3-.05-.47-.08-2.77-.58-5.27-2.11-7.21-4.41-2.32-2.8-3.6-6.43-3.52-10.28l13.31-5.91,10.31,5.69,1.94,1.05,2.02,1.11-.05,1.44ZM393.93,181.43c-20.05-8.58-42.8-1.25-53.63,16.27-.02-.01-.03-.02-.05-.03-2.63-1.47-5.13-3.19-7.48-5.1l25.13-28.1c2.58,1.66,5.55,2.55,8.62,2.55,3.63,0,7.15-1.25,9.98-3.55l23.75,21.26s.03.02.06.05l.19.17c-2.07-1.32-4.24-2.53-6.57-3.52ZM453.44,223.72h-32.96c.82-13.04-4.6-25.93-14.65-34.76l.41-.41-29.74-26.58-.36.34c-2.66,2.3-6.1,3.57-9.62,3.57-3.02,0-5.9-.89-8.37-2.6l-.41-.28-26.58,29.71.44.36c2.52,2.11,5.24,3.99,8.09,5.57t.01,0c-.83,1.43-1.61,2.92-2.28,4.48-2.86,6.71-3.8,13.77-3.07,20.59h-109.56c6.34-4.68,11.75-10.56,15.9-17.37h13.06c.28,0,.5-.23.5-.5s-.22-.5-.5-.5h-12.47c.75-1.25,1.44-2.52,2.1-3.83,2.89-5.79,4.8-11.86,5.74-18.07l.25-.22,8.81,8.45c.2.2.47.2.67,0l8.62-8.12,7.09,5.71c.22.17.53.14.7-.05l10.42-12.59,5.87,5.33c.11.08.22.11.36.11s.25-.06.36-.17l7.4-8.51v20.07c0,.27.22.5.5.5s.5-.23.5-.5v-41.08c0-.08-.05-.11-.08-.16-.03-.06-.03-.14-.06-.17v-.03c-.05-.03-.14-.03-.19-.05-.06-.03-.11-.09-.17-.09h-54.46c-1.22-3.27-2.71-6.34-4.43-9.25h59.45v-46.54l-1.08,2.64c-5.52,13.41-10.62,20.2-15.22,20.2h-.19c-2.61-.11-4.41-2.36-6.35-4.74-2.02-2.52-4.1-5.1-7.23-4.99-4.22.14-6.96,4.96-9.62,9.65-2.33,4.1-4.52,7.95-7.26,7.84-1.94-.11-3.22-2.19-4.58-4.41-1.55-2.52-3.16-5.15-6.07-5.32-3.21-.22-5.65,2.8-7.95,5.74-1.94,2.47-3.83,4.79-5.99,5.21-1.83-1.58-3.74-3.1-5.71-4.46-1.02-1.61-2.35-3.13-4.68-3.63-.47-.11-.92-.14-1.41-.14-5.1-2.75-10.56-4.77-16.25-6.02v-24.58h45.29c.28,0,.5-.22.5-.47,0-.28-.22-.5-.5-.5h-45.78c-.28,0-.5.22-.5.5v24.86c-3.63-.75-7.38-1.16-11.17-1.19v-40.74h264.46v152.18Z"/>
  <path class="cls-1" d="M368.63,132.59c8.67,1.09,15.52,7.9,16.6,16.61,0,.25.25.44.47.44h49.95c.11,0,.25-.06.36-.17.08-.11.11-.22.11-.36-.59-17.74-7.87-34.42-20.43-46.98-12.55-12.58-29.27-19.81-46.98-20.45-.14,0-.27.06-.36.14-.11.08-.14.22-.14.36v49.92c0,.24.17.47.42.49ZM369.18,82.68c35.62,1.52,64.44,30.35,65.94,65.96h-48.97c-1.28-8.78-8.18-15.69-16.97-16.96v-49Z"/>
  <path class="cls-1" d="M381.07,153.02c-.27,2.36-1.13,4.6-2.49,6.54l-.28.42,29.71,26.58.36-.45c7.82-9.36,12.2-20.78,12.61-32.98l.03-.58h-39.88l-.06.47ZM419.85,153.69c-.5,11.5-4.66,22.31-11.95,31.26l-28.13-25.17c1.19-1.83,2.02-3.93,2.36-6.09h37.72Z"/>
  <path class="cls-1" d="M356.88,140.16c2.19-1.97,4.9-3.16,7.81-3.52l.5-.06v-39.88l-.61.03c-14.22.47-27.52,6.43-37.41,16.74l-.39.42,29.71,26.58.39-.31ZM364.06,97.87v37.72c-2.8.44-5.38,1.61-7.54,3.38l-28.13-25.14c9.5-9.7,22.14-15.35,35.67-15.96Z"/>
  <path class="cls-1" d="M329.13,190.6h.03c.14-.03.25-.08.33-.16l25.86-28.94c.17-.16.17-.44.03-.64-2.33-2.68-3.6-6.12-3.6-9.67,0-2.99.89-5.87,2.6-8.37.14-.19.09-.47-.08-.64l-28.91-25.85c-.11-.09-.25-.14-.36-.14-.14,0-.27.08-.36.19-8.12,9.76-12.61,22.12-12.61,34.81,0,14.97,5.96,28.91,16.71,39.25.12.11.23.16.36.16ZM325.09,117.41l28.24,25.22c-1.66,2.57-2.55,5.51-2.55,8.56,0,3.66,1.25,7.18,3.55,9.98l-25.22,28.21c-10.37-10.14-16.05-23.67-16.05-38.19,0-12.28,4.27-24.28,12.03-33.78Z"/>
  <path class="cls-1" d="M361.51,246.67l-.47-.17-5.29-1.8c.55,2.6,2.63,4.6,5.18,5.13.14.03.3.06.47.08.17.03.33.03.5.03.25.03.5.03.78,0,1.5-.08,2.85-.67,3.91-1.55l-4.57-1.55-.5-.17Z"/>
  <path class="cls-1" d="M171.91,125.78c-19.66,6.59-32.63,24.08-34.46,43.48-.08.64-.13,1.25-.16,1.89-.33,5.62.3,11.39,1.94,17.07.19.66.41,1.33.64,1.99.88,2.69,1.99,5.27,3.29,7.71,1.47,2.77,3.19,5.38,5.1,7.76,2.72,3.41,5.82,6.4,9.23,8.95,8.76,6.57,19.49,10.26,30.63,10.26,1.36,0,2.69-.06,4.04-.17,2.22-.17,4.44-.5,6.66-1,1.83-.39,3.66-.88,5.46-1.49,9.17-3.08,17.1-8.57,23.08-15.88.28-.34.56-.67.81-1,2.08-2.66,3.91-5.57,5.46-8.68,1.6-3.21,2.85-6.57,3.71-9.98.17-.52.31-1.05.42-1.6.16-.72.3-1.47.44-2.22.08-.42.14-.83.19-1.27,1.22-7.88.53-16-2.07-23.78-1.89-5.66-4.69-10.76-8.21-15.19-.28-.39-.58-.75-.88-1.11-5.52-6.63-12.59-11.67-20.49-14.8-.36-.14-.75-.28-1.13-.42-5.27-1.97-10.9-3.05-16.63-3.16-.34,0-.67-.02-1,0-5.32,0-10.75.83-16.07,2.64ZM141.28,188.22h-1c-1.69-5.68-2.33-11.45-1.99-17.07h2.99v17.07ZM155.58,199.03h-5.4v-27.88h5.4v27.88ZM187.98,223.92c-11.11-.03-21.84-3.83-30.49-10.51v-44.15h-9.23v34.81c-1.94-2.58-3.66-5.37-5.1-8.37v-26.44h-4.71c1.83-18.98,14.53-36.08,33.76-42.54,5.24-1.75,10.56-2.58,15.77-2.58v99.78ZM232.74,196.23c-1.64,3.27-3.6,6.35-5.85,9.12h-25.75v-7.82l9.59-6.46,4.52,4.08c.11.08.22.14.33.14.12,0,.23-.03.31-.11l6.12-4.83,3.97,5.07c.08.12.22.17.33.2.14,0,.28-.03.39-.11l9.31-7.71c-.8,2.89-1.91,5.69-3.27,8.43ZM201.14,196.34v-13.89l8.85,7.96-8.85,5.93ZM211.59,190.52l6.88-4.63,2.93,3.69-5.79,4.57-4.02-3.63ZM236.45,186.14l-10,8.29-3.66-4.69,12.64-9.95,1.91,2.11c-.22,1.44-.5,2.85-.89,4.24ZM206.08,127.52c7.62,2.94,14.47,7.73,19.84,14h-24.64c-.14-1.72-.05-3.44.31-5.1.66-3.16,2.33-6.29,4.49-8.9ZM188.98,124.14c5.49.11,10.86,1.14,15.93,2.97-2.1,2.66-3.74,5.82-4.43,9.06-.42,1.94-.5,3.93-.25,5.96l.06.5h26.55c3.66,4.49,6.59,9.7,8.53,15.52,2.47,7.37,3.19,15.02,2.14,22.47l-1.64-1.85c-.16-.2-.47-.22-.69-.06l-13,10.26-3.21-4.05c-.17-.22-.45-.25-.67-.11l-7.48,5.02-9.68-8.71v-14.35c0-.28-.22-.5-.49-.5s-.5.22-.5.5v39.08c0,.27.22.5.5.5h25.44c-5.82,6.87-13.39,12.02-22.15,14.96-3.82,1.3-7.73,2.11-11.61,2.41h-3.35v-99.58Z"/>
  <path class="cls-1" d="M360.56,284.95c-7.37-.89-14.02,4.24-15.16,11.7-.69,4.6.91,9.23,4.35,12.31.11.08.22.11.36.11.11,0,.25-.03.36-.14.17-.22.17-.5-.06-.69-3.19-2.88-4.68-7.18-4.05-11.45,1.05-6.93,7.23-11.67,14.08-10.84.25.03.5-.17.53-.44.06-.28-.14-.53-.42-.55Z"/>
</svg>