<?xml version="1.0" encoding="UTF-8"?>
<svg id="Camada_1" data-name="Camada 1" xmlns="http://www.w3.org/2000/svg" viewBox="0 0 588.91 438.23">
  <defs>
    <style>
      .cls-1, .cls-2, .cls-3, .cls-4, .cls-5, .cls-6, .cls-7, .cls-8, .cls-9, .cls-10, .cls-11, .cls-12, .cls-13, .cls-14, .cls-15, .cls-16, .cls-17, .cls-18, .cls-19 {
        stroke-width: 0px;
      }

      .cls-1, .cls-2, .cls-20, .cls-9 {
        opacity: .6;
      }

      .cls-1, .cls-11, .cls-18, .cls-19 {
        fill: #000;
      }

      .cls-2, .cls-3, .cls-6, .cls-10, .cls-12, .cls-16, .cls-17 {
        fill: #fff;
      }

      .cls-3 {
        opacity: .3;
      }

      .cls-4 {
        fill: #192e35;
      }

      .cls-5, .cls-7 {
        fill: #485eff;
      }

      .cls-6 {
        opacity: .7;
      }

      .cls-21 {
        opacity: .8;
      }

      .cls-7, .cls-22, .cls-10, .cls-11 {
        opacity: .4;
      }

      .cls-8 {
        fill: #e1e0e0;
      }

      .cls-9 {
        fill: #fbfbfb;
      }

      .cls-12, .cls-19 {
        opacity: .2;
      }

      .cls-13 {
        fill: #cd5b51;
      }

      .cls-14 {
        fill: #e8decd;
      }

      .cls-15 {
        fill: #ba221f;
      }

      .cls-17 {
        opacity: .5;
      }

      .cls-18 {
        opacity: .1;
      }
    </style>
  </defs>
  <rect class="cls-14" x="490.89" y="404.63" width="39.01" height=".29"/>
  <rect class="cls-14" x="379.88" y="407.83" width="10.24" height=".29"/>
  <rect class="cls-14" x="467.11" y="393.7" width="22.61" height=".29"/>
  <rect class="cls-14" x="61.79" y="395.67" width="50.87" height=".29"/>
  <rect class="cls-14" x="123.15" y="395.67" width="7.46" height=".29"/>
  <rect class="cls-14" x="154.85" y="400.65" width="110.33" height=".29"/>
  <g>
    <path class="cls-14" d="M280.8,333.15H53.36c-3.71,0-6.72-3.02-6.72-6.72V6.72c0-3.71,3.02-6.72,6.72-6.72h227.44c3.71,0,6.72,3.02,6.72,6.72v319.7c0,3.71-3.02,6.72-6.72,6.72ZM53.36.29c-3.54,0-6.43,2.88-6.43,6.43v319.7c0,3.55,2.88,6.43,6.43,6.43h227.44c3.54,0,6.43-2.88,6.43-6.43V6.72c0-3.54-2.88-6.43-6.43-6.43H53.36Z"/>
    <path class="cls-14" d="M535.56,333.15h-227.44c-3.71,0-6.72-3.02-6.72-6.72V6.72c0-3.71,3.02-6.72,6.72-6.72h227.44c3.71,0,6.72,3.02,6.72,6.72v319.7c0,3.71-3.02,6.72-6.72,6.72ZM308.12.29c-3.54,0-6.43,2.88-6.43,6.43v319.7c0,3.55,2.88,6.43,6.43,6.43h227.44c3.55,0,6.43-2.88,6.43-6.43V6.72c0-3.54-2.88-6.43-6.43-6.43h-227.44Z"/>
  </g>
  <rect class="cls-14" y="385.68" width="588.91" height=".29"/>
  <g>
    <path class="cls-7" d="M140.55,306c-1-11.37-12.61-15.63-26.37-14.43-13.76,1.2-24.46,7.41-23.46,18.79l49.83-4.36Z"/>
    <path class="cls-7" d="M113.73,286.37c6.39-.56,8.42-5.95,7.87-12.34-.56-6.39-3.5-11.34-9.89-10.79-6.39.56-8.42,5.95-7.87,12.34.56,6.39,3.5,11.34,9.89,10.79Z"/>
  </g>
  <g>
    <g>
      <path class="cls-14" d="M400.58,63.62c.31,3.52-2.3,6.63-5.82,6.93-3.52.31-6.63-2.3-6.93-5.82-.31-3.52,2.3-6.63,5.82-6.93,3.52-.31,6.63,2.3,6.93,5.82Z"/>
      <path class="cls-14" d="M436,60.53c.31,3.52-2.3,6.63-5.82,6.93s-6.63-2.3-6.93-5.82c-.31-3.52,2.3-6.63,5.82-6.93s6.63,2.3,6.93,5.82Z"/>
      <path class="cls-14" d="M471.42,57.43c.31,3.52-2.3,6.63-5.82,6.93s-6.63-2.3-6.93-5.82,2.3-6.63,5.82-6.93,6.63,2.3,6.93,5.82Z"/>
      <path class="cls-14" d="M403.74,99.73c.31,3.52-2.3,6.63-5.82,6.93-3.52.31-6.63-2.3-6.93-5.82-.31-3.52,2.3-6.63,5.82-6.93s6.63,2.3,6.93,5.82Z"/>
      <path class="cls-14" d="M439.16,96.63c.31,3.52-2.3,6.63-5.82,6.93s-6.63-2.3-6.93-5.82,2.3-6.63,5.82-6.93c3.52-.31,6.63,2.3,6.93,5.82Z"/>
      <path class="cls-14" d="M474.58,93.53c.31,3.52-2.3,6.63-5.82,6.93-3.52.31-6.63-2.3-6.93-5.82s2.3-6.63,5.82-6.93,6.63,2.3,6.93,5.82Z"/>
      <path class="cls-14" d="M406.9,135.83c.31,3.52-2.3,6.63-5.82,6.93s-6.63-2.3-6.93-5.82c-.31-3.52,2.3-6.63,5.82-6.93s6.63,2.3,6.93,5.82Z"/>
      <path class="cls-14" d="M442.32,132.73c.31,3.52-2.3,6.63-5.82,6.93-3.52.31-6.63-2.3-6.93-5.82-.31-3.52,2.3-6.63,5.82-6.93,3.52-.31,6.63,2.3,6.93,5.82Z"/>
      <path class="cls-14" d="M477.74,129.63c.31,3.52-2.3,6.63-5.82,6.93s-6.63-2.3-6.93-5.82,2.3-6.63,5.82-6.93c3.52-.31,6.63,2.3,6.93,5.82Z"/>
    </g>
    <path class="cls-14" d="M470.09,131.71l-72.77,6.37,64.52-78.4-66.11,5.78c-.77.07-1.45-.5-1.52-1.28h0c-.07-.77.5-1.45,1.28-1.52l72.77-6.37-64.52,78.4,66.11-5.78c.77-.07,1.45.5,1.52,1.28h0c.07.77-.5,1.45-1.28,1.52Z"/>
  </g>
  <g class="cls-22">
    <path class="cls-5" d="M471.2,271.67c-.24-.69-.86-1.21-1.59-1.26-3.34-.22-6.16-1.47-8.39-3.71-2.91-2.92-4.62-7.37-4.9-12.65-.05-.98-.88-1.75-1.86-1.76h0c-1.09,0-1.96.91-1.9,2,.34,6.19,2.43,11.49,5.99,15.06,2.78,2.79,6.37,4.43,10.45,4.79.07,0,.16.01.27.02,1.35.11,2.38-1.21,1.93-2.5Z"/>
    <g>
      <path class="cls-5" d="M467.44,294.28c-15.61-1.37-26.87-12.01-30.43-28.61-.23-1.06.45-2.1,1.52-2.29h0c.99-.17,1.95.45,2.16,1.43,3.19,14.93,13.21,24.49,27.09,25.71,15.21,1.33,31.55-8.68,34.48-33.91.12-1.02,1.01-1.78,2.04-1.69h0c1.05.09,1.84,1.03,1.71,2.07-2.81,23.79-18.45,39.04-38.56,37.28Z"/>
      <path class="cls-5" d="M437.99,249.12h0c-1.05-.09-1.84-1.03-1.71-2.07,2.81-23.79,18.45-39.04,38.56-37.28,17.62,1.54,29.5,14.73,31.35,34.6.1,1.05-.72,1.96-1.77,2.03h0c-1.03.06-1.89-.71-1.99-1.74-1.7-17.9-12.27-29.77-27.92-31.14-15.21-1.33-31.55,8.68-34.48,33.91-.12,1.02-1.01,1.78-2.04,1.69Z"/>
      <path class="cls-5" d="M468.2,284.19c-2.9-.25-5.62-.93-8.12-2.02-1.02-.44-1.44-1.67-.9-2.64h0c.46-.85,1.5-1.22,2.38-.83,2.35,1.03,4.94,1.64,7.74,1.79,11.54.66,23.72-7.51,24.91-27.26.74-12.16-3.43-21.99-11.21-26.69-.83-.5-1.14-1.56-.71-2.43h0c.49-.99,1.73-1.36,2.68-.79,9,5.43,13.83,16.52,13.01,30.13-1.15,19.04-13.03,31.71-28.89,30.8-.3-.02-.59-.04-.88-.06Z"/>
      <path class="cls-5" d="M451.42,272.44c-.91.62-2.16.33-2.71-.62-3.34-5.78-4.9-13.22-4.42-21.22,1.1-18.22,12.02-30.6,26.85-30.84,1.1-.02,1.99.9,1.93,2h0c-.06.98-.85,1.75-1.83,1.77-11,.22-22.05,8.53-23.18,27.29-.44,7.28.95,14.01,3.94,19.15.49.84.23,1.92-.57,2.47h0Z"/>
      <path class="cls-5" d="M477.17,270.9h0c-.38-.87-.05-1.88.77-2.37,4.95-2.98,8-9.24,8.05-16.79.04-6.04-1.71-11.15-4.94-14.39-2.49-2.5-5.7-3.76-9.56-3.75-5.81.02-10.51,3.2-13.11,8.8-.41.88-1.43,1.3-2.34.96h0c-1.04-.38-1.53-1.58-1.06-2.58,3.22-6.88,9.27-10.93,16.51-10.95,4.83,0,9.06,1.67,12.24,4.86,3.94,3.96,6.08,10.02,6.04,17.08-.06,8.9-3.81,16.37-9.92,20.02-.96.58-2.22.14-2.67-.88Z"/>
      <path class="cls-5" d="M463.6,257.05c-1.07.43-2.27-.19-2.54-1.31-.12-.51-.23-1.04-.31-1.58-1.07-7.05,2.72-13.19,8.81-14.27,3.14-.56,5.95.18,8.09,2.09.87.78.8,2.16-.15,2.84l-.12.08c-.71.51-1.65.4-2.32-.18-1.28-1.1-2.9-1.48-4.84-1.13-4.64.83-6.41,5.66-5.75,10,.06.42.14.83.24,1.23.22.92-.23,1.87-1.11,2.23h0Z"/>
      <path class="cls-5" d="M469.83,264.3s-.01,0-.02,0c-1.3-.12-2.02-1.57-1.32-2.68l.16-.26c.35-.55.97-.86,1.62-.81.56.04,1.15,0,1.77-.11,4.05-.72,5.91-4.5,5.88-8.33,0-.96.65-1.78,1.6-1.93h0c1.11-.17,2.15.66,2.17,1.77.11,6.15-3.51,11.22-8.99,12.2-.99.18-1.95.23-2.87.14Z"/>
      <path class="cls-5" d="M470.67,257.34c-2.01-.18-3.5-1.53-4.05-3.46-.31-1.12.62-2.2,1.78-2.1l.43.04c.67.06,1.23.52,1.45,1.15.11.31.32.58.71.61.91.08,1.07-1.22,1.09-1.48.02-.19.06-.91-.25-1.33-.3-.42-.51-.89-.47-1.41h0c.15-1.68,2.26-2.35,3.33-1.05.85,1.03,1.29,2.48,1.14,4.12-.27,3.08-2.45,5.15-5.17,4.91Z"/>
      <path class="cls-5" d="M435.25,215.19h0c-1.04-.09-1.8-1.01-1.71-2.04l1.43-16.33,16.33,1.43c1.04.09,1.8,1.01,1.71,2.04h0c-.09,1.04-1.01,1.8-2.04,1.71l-12.58-1.1-1.1,12.58c-.09,1.04-1.01,1.8-2.04,1.71Z"/>
      <path class="cls-5" d="M512.9,221.98h0c-1.04-.09-1.8-1.01-1.71-2.04l1.1-12.58-12.58-1.1c-1.04-.09-1.8-1.01-1.71-2.04h0c.09-1.04,1.01-1.8,2.04-1.71l16.33,1.43-1.43,16.33c-.09,1.04-1.01,1.8-2.04,1.71Z"/>
      <path class="cls-5" d="M507.11,309.79l-16.33-1.43c-1.04-.09-1.8-1.01-1.71-2.04h0c.09-1.04,1.01-1.8,2.04-1.71l12.58,1.1,1.1-12.58c.09-1.04,1.01-1.8,2.04-1.71h0c1.04.09,1.8,1.01,1.71,2.04l-1.43,16.33Z"/>
      <path class="cls-5" d="M442.03,304.1l-16.33-1.43,1.43-16.33c.09-1.04,1.01-1.8,2.04-1.71h0c1.04.09,1.8,1.01,1.71,2.04l-1.1,12.58,12.58,1.1c1.04.09,1.8,1.01,1.71,2.04h0c-.09,1.04-1.01,1.8-2.04,1.71Z"/>
    </g>
  </g>
  <path class="cls-8" d="M88.02,268.75h0c-.64.06-1.2-.42-1.26-1.05l-.88-10.04,10.04-.88c.64-.06,1.2.42,1.26,1.05h0c.06.64-.42,1.2-1.05,1.26l-7.73.68.68,7.73c.06.64-.42,1.2-1.05,1.26Z"/>
  <path class="cls-8" d="M135.76,264.57h0c-.64.06-1.2-.42-1.26-1.05l-.68-7.73-7.73.68c-.64.06-1.2-.42-1.26-1.05h0c-.06-.64.42-1.2,1.05-1.26l10.04-.88.88,10.04c.06.64-.42,1.2-1.05,1.26Z"/>
  <path class="cls-8" d="M140.71,307.81l-10.04.88c-.64.06-1.2-.42-1.26-1.05h0c-.06-.64.42-1.2,1.05-1.26l7.73-.68-.68-7.73c-.06-.64.42-1.2,1.05-1.26h0c.64-.06,1.2.42,1.26,1.05l.88,10.04Z"/>
  <path class="cls-8" d="M100.7,311.31l-10.04.88-.88-10.04c-.06-.64.42-1.2,1.05-1.26h0c.64-.06,1.2.42,1.26,1.05l.68,7.73,7.73-.68c.64-.06,1.2.42,1.26,1.05h0c.06.64-.42,1.2-1.05,1.26Z"/>
  <path class="cls-14" d="M134.96,101.29l-38.43,3.36-.79-8.99c-.82-9.33,6.11-17.58,15.44-18.4,9.33-.82,17.59,6.11,18.4,15.44l.46,5.23,5.54-.49-.46-5.23c-1.08-12.39-12.04-21.58-24.43-20.5-12.39,1.08-21.58,12.04-20.5,24.43l.79,9.05c-4.47.87-7.66,5-7.25,9.64l2.75,31.38c.43,4.96,4.81,8.63,9.77,8.2l43.03-3.76c4.96-.43,8.63-4.81,8.2-9.77l-2.75-31.38c-.43-4.96-4.81-8.63-9.77-8.2ZM118.63,125.47l.95,10.81c.16,1.77-1.16,3.34-2.93,3.49-1.77.16-3.34-1.16-3.49-2.93l-.95-10.81c-1.41-.87-2.42-2.36-2.57-4.14-.26-2.99,1.95-5.62,4.93-5.88,2.99-.26,5.62,1.95,5.88,4.93.16,1.78-.58,3.42-1.82,4.52Z"/>
  <path class="cls-7" d="M200.75,119.48l-3.89-6.33c-2.1.29-3.83.29-5.93,0l-3.89,6.33-.75-.2c-2.5-.67-4.92-1.67-7.18-2.98l-.67-.39,1.65-6.88c.13-.56.69-.9,1.25-.77h0c.56.13.9.69.77,1.25l-1.29,5.36c1.68.91,3.44,1.65,5.26,2.19l3.79-6.19.69.11c2.2.36,4.44.36,6.65,0l.69-.11,3.8,6.19c1.82-.54,3.58-1.27,5.26-2.19l-1.69-7.05.57-.41c1.54-1.11,2.91-2.42,4.09-3.9.35-.44.97-.54,1.43-.22h0c.47.34.58,1.01.22,1.47-1.16,1.46-2.49,2.77-3.97,3.91l1.73,7.22-.67.39c-2.26,1.31-4.67,2.31-7.18,2.98l-.75.2ZM176.94,105.65c-.33-.37-.64-.76-.94-1.15l-7.22,1.73-.39-.67c-1.31-2.26-2.31-4.67-2.98-7.18l-.2-.75,6.33-3.89c-.15-1.06-.22-2.03-.22-2.97s.07-1.91.22-2.97l-6.33-3.88.2-.75c.67-2.5,1.67-4.92,2.98-7.18l.39-.67,7.22,1.73c1.21-1.58,2.62-2.99,4.2-4.2l-1.31-5.46c-.13-.56.21-1.11.76-1.25h0c.56-.13,1.11.21,1.25.76l1.63,6.81-.57.41c-1.81,1.3-3.4,2.89-4.7,4.7l-.41.56-7.05-1.69c-.91,1.68-1.64,3.44-2.18,5.26l6.19,3.79-.11.69c-.2,1.21-.29,2.3-.29,3.32s.1,2.11.29,3.32l.11.69-6.19,3.8c.54,1.82,1.27,3.58,2.18,5.26l7.05-1.69.41.56c.38.53.79,1.05,1.23,1.55.36.41.35,1.03-.04,1.41l-.04.04c-.42.4-1.08.37-1.47-.07ZM219.03,106.23l-2.66-.64c-.56-.13-.9-.69-.77-1.25h0c.13-.56.69-.9,1.25-.77l1.15.28c.91-1.68,1.64-3.44,2.18-5.26l-6.19-3.8.11-.69c.2-1.21.29-2.3.29-3.32s-.1-2.11-.29-3.32l-.11-.69,6.19-3.79c-.54-1.82-1.27-3.58-2.18-5.26l-7.05,1.69-.41-.56c-1.3-1.81-2.89-3.4-4.7-4.7l-.57-.41,1.69-7.05c-1.68-.91-3.44-1.65-5.26-2.19l-3.79,6.19-.69-.11c-2.2-.36-4.45-.36-6.65,0l-.69.11-3.79-6.19c-.24.07-.47.14-.71.22-.53.17-1.09-.11-1.28-.63h0c-.2-.54.08-1.16.64-1.34.52-.17,1.04-.32,1.56-.46l.75-.2,3.89,6.34c2.11-.29,3.82-.29,5.93,0l3.89-6.34.75.2c2.5.67,4.92,1.67,7.18,2.98l.67.39-1.73,7.22c1.58,1.21,2.99,2.62,4.2,4.2l7.22-1.73.39.67c1.31,2.26,2.31,4.67,2.98,7.18l.2.75-6.33,3.88c.15,1.06.22,2.03.22,2.97s-.07,1.91-.22,2.97l6.33,3.89-.2.75c-.67,2.5-1.67,4.92-2.98,7.18l-.39.67ZM193.61,100.88c-5.26-.15-9.65-4.53-9.8-9.8-.15-5.3,3.81-9.73,8.93-10.32.62-.07,1.17.41,1.17,1.04h0c0,.52-.39.96-.91,1.02-4.51.51-7.9,4.78-6.96,9.59.61,3.12,3.13,5.64,6.25,6.25,5.13,1,9.63-2.92,9.63-7.87,0-1.66-.51-3.26-1.45-4.6-.3-.42-.22-1,.17-1.35h0c.47-.41,1.19-.32,1.55.19,1.17,1.68,1.81,3.69,1.81,5.77,0,5.66-4.69,10.25-10.39,10.09Z"/>
  <path class="cls-14" d="M127.57,205.7l-2.51-4.09c-1.36.19-2.47.19-3.83,0l-2.51,4.09-.48-.13c-1.62-.43-3.18-1.08-4.64-1.93l-.43-.25,1.06-4.44c.09-.36.45-.58.81-.5h0c.36.09.58.45.49.81l-.83,3.47c1.08.59,2.22,1.06,3.4,1.41l2.45-4,.44.07c1.42.23,2.87.23,4.29,0l.44-.07,2.45,4c1.18-.35,2.31-.82,3.4-1.41l-1.09-4.55.37-.26c1-.72,1.88-1.56,2.64-2.52.23-.28.63-.35.92-.14h0c.31.22.38.65.14.95-.75.95-1.61,1.79-2.57,2.53l1.12,4.66-.43.25c-1.46.85-3.02,1.5-4.64,1.93l-.48.13ZM112.19,196.76c-.21-.24-.41-.49-.61-.74l-4.66,1.12-.25-.43c-.85-1.46-1.5-3.02-1.93-4.64l-.13-.48,4.09-2.51c-.09-.68-.14-1.31-.14-1.92s.05-1.23.14-1.92l-4.09-2.51.13-.48c.43-1.62,1.08-3.18,1.93-4.64l.25-.43,4.66,1.12c.78-1.02,1.69-1.93,2.71-2.71l-.85-3.53c-.09-.36.14-.72.49-.81h0c.36-.09.72.13.81.49l1.05,4.4-.37.27c-1.17.84-2.19,1.87-3.03,3.03l-.26.36-4.55-1.09c-.59,1.08-1.06,2.22-1.41,3.4l4,2.45-.07.44c-.13.78-.19,1.49-.19,2.15s.06,1.36.19,2.15l.07.44-4,2.45c.35,1.18.82,2.31,1.41,3.4l4.55-1.09.26.36c.25.34.51.68.79,1,.23.27.23.66-.03.91l-.02.02c-.27.26-.7.24-.95-.04ZM139.38,197.14l-1.72-.41c-.36-.09-.58-.45-.5-.81h0c.09-.36.45-.58.81-.5l.74.18c.59-1.08,1.06-2.22,1.41-3.4l-4-2.45.07-.44c.13-.78.19-1.49.19-2.15s-.06-1.36-.19-2.15l-.07-.44,4-2.45c-.35-1.18-.82-2.31-1.41-3.4l-4.55,1.09-.26-.36c-.84-1.17-1.87-2.19-3.03-3.03l-.37-.27,1.09-4.55c-1.08-.59-2.22-1.06-3.4-1.41l-2.45,4-.44-.07c-1.42-.23-2.87-.23-4.29,0l-.44.07-2.45-4c-.15.05-.3.09-.46.14-.34.11-.7-.07-.83-.41h0c-.13-.35.05-.75.41-.87.33-.11.67-.21,1.01-.3l.48-.13,2.51,4.09c1.37-.19,2.47-.19,3.83,0l2.51-4.09.48.13c1.62.43,3.18,1.08,4.64,1.93l.43.25-1.12,4.66c1.02.78,1.93,1.69,2.71,2.71l4.66-1.12.25.43c.85,1.46,1.5,3.02,1.93,4.64l.13.48-4.09,2.51c.09.68.14,1.31.14,1.92s-.05,1.23-.14,1.92l4.09,2.51-.13.48c-.43,1.62-1.08,3.18-1.93,4.64l-.25.43ZM122.96,193.68c-3.4-.1-6.23-2.93-6.33-6.33-.1-3.43,2.46-6.29,5.77-6.67.4-.05.75.27.75.67h0c0,.34-.25.62-.59.66-2.91.33-5.1,3.09-4.49,6.19.4,2.02,2.02,3.64,4.04,4.04,3.31.65,6.22-1.88,6.22-5.08,0-1.07-.33-2.11-.94-2.97-.19-.27-.14-.65.11-.87h0c.3-.27.77-.21,1,.12.76,1.09,1.17,2.39,1.17,3.73,0,3.66-3.03,6.62-6.71,6.52Z"/>
  <ellipse id="_Path_" data-name="&amp;lt;Path&amp;gt;" class="cls-14" cx="294.46" cy="424.89" rx="228.37" ry="13.34"/>
  <g>
    <path class="cls-5" d="M428.08,107.03h-38.35l-27.13,310.06h38.35c10.91,0,20.56-8.87,21.51-19.78l23.67-270.5c.95-10.91-7.14-19.78-18.05-19.78Z"/>
    <path class="cls-5" d="M420.26,107.03h-129.8c-10.91,0-20.56,8.87-21.51,19.78l-23.67,270.5c-.95,10.91,7.14,19.78,18.05,19.78h129.8c10.91,0,20.56-8.87,21.51-19.78l23.67-270.5c.95-10.91-7.14-19.78-18.05-19.78Z"/>
    <path class="cls-3" d="M420.26,107.03h-129.8c-10.91,0-20.56,8.87-21.51,19.78l-23.67,270.5c-.95,10.91,7.14,19.78,18.05,19.78h129.8c10.91,0,20.56-8.87,21.51-19.78l23.67-270.5c.95-10.91-7.14-19.78-18.05-19.78Z"/>
    <path class="cls-10" d="M419.7,113.37h-34.22c-2.02,0-3.91,1.32-4.66,3.26h0c-2.77,7.15-9.77,12.05-17.24,12.05h-20.24c-7.46,0-13.61-4.9-15.13-12.05h0c-.41-1.93-2.07-3.26-4.09-3.26h-34.22c-7.42,0-13.97,6.02-14.62,13.44l-23.67,270.5c-.65,7.42,4.84,13.44,12.27,13.44h129.8c7.42,0,13.97-6.02,14.62-13.44l23.67-270.5c.65-7.42-4.84-13.44-12.27-13.44Z"/>
    <path class="cls-16" d="M387.37,260.31h-90.84c-2.69,0-4.69-2.18-4.45-4.88l.45-5.2c.24-2.69,2.61-4.88,5.3-4.88h90.84c2.69,0,4.69,2.18,4.45,4.88l-.45,5.2c-.24,2.69-2.61,4.88-5.3,4.88Z"/>
    <path class="cls-16" d="M385.41,282.73h-90.84c-2.69,0-4.69-2.18-4.45-4.88l.45-5.2c.24-2.69,2.61-4.88,5.3-4.88h90.84c2.69,0,4.69,2.18,4.45,4.88l-.45,5.2c-.24,2.69-2.61,4.88-5.3,4.88Z"/>
    <path class="cls-18" d="M359.77,118.44c-.26,2.99-2.89,5.41-5.88,5.41s-5.2-2.42-4.93-5.41c.26-2.99,2.89-5.41,5.88-5.41s5.2,2.42,4.93,5.41Z"/>
    <path class="cls-18" d="M357.31,118.44c-.14,1.63-1.58,2.95-3.21,2.95s-2.84-1.32-2.7-2.95c.14-1.63,1.58-2.95,3.21-2.95s2.84,1.32,2.7,2.95Z"/>
    <g>
      <g class="cls-21">
        <path class="cls-16" d="M403.72,127.46h0c-.88,0-1.52-.71-1.45-1.58l.25-2.9c.08-.88.85-1.58,1.72-1.58h0c.88,0,1.52.71,1.45,1.58l-.25,2.9c-.08.88-.85,1.58-1.72,1.58Z"/>
        <path class="cls-16" d="M416.4,127.46h0c-.88,0-1.52-.71-1.45-1.58l.59-6.8c.08-.88.85-1.58,1.72-1.58h0c.88,0,1.52.71,1.45,1.58l-.59,6.8c-.08.88-.85,1.58-1.72,1.58Z"/>
        <path class="cls-16" d="M410.06,127.46h0c-.88,0-1.52-.71-1.45-1.58l.42-4.85c.08-.88.85-1.58,1.72-1.58h0c.88,0,1.52.71,1.45,1.58l-.42,4.85c-.08.88-.85,1.58-1.72,1.58Z"/>
      </g>
      <g class="cls-21">
        <path class="cls-16" d="M295.21,127.46h-7.96c-.5,0-.86-.4-.82-.9l.37-4.27c.04-.5.48-.9.98-.9h7.96c.5,0,.86.4.82.9l-.37,4.27c-.04.5-.48.9-.98.9Z"/>
        <path class="cls-16" d="M298.89,126.3h0c-.5,0-.86-.4-.82-.9l.17-1.95c.04-.5.48-.9.98-.9h0c.5,0,.86.4.82.9l-.17,1.95c-.04.5-.48.9-.98.9Z"/>
      </g>
    </g>
    <path class="cls-16" d="M385.26,199.85c-1.84,21-20.35,38.03-41.35,38.03s-36.54-17.03-34.7-38.03c1.84-21,20.35-38.03,41.35-38.03s36.54,17.03,34.7,38.03Z"/>
    <g>
      <path class="cls-5" d="M347.37,198.38c-9.99,0-18.43,3.8-19.15,12.06l-.8,9.17h36.19l.8-9.17c.72-8.26-7.05-12.06-17.04-12.06Z"/>
      <path class="cls-5" d="M347.7,194.6c4.64,0,6.78-3.76,7.18-8.4.41-4.64-1.08-8.4-5.71-8.4s-6.78,3.76-7.18,8.4c-.41,4.64,1.08,8.4,5.71,8.4Z"/>
    </g>
    <g>
      <path class="cls-5" d="M383.22,252.56c-2.47,0-4.55.94-4.73,2.98l-.2,2.26h8.94l.2-2.26c.18-2.04-1.74-2.98-4.21-2.98Z"/>
      <path class="cls-5" d="M383.3,251.63c1.15,0,1.67-.93,1.77-2.07.1-1.15-.27-2.07-1.41-2.07s-1.67.93-1.77,2.07c-.1,1.15.27,2.07,1.41,2.07Z"/>
    </g>
    <path class="cls-5" d="M355.7,305.16h-35.35c-4.13,0-7.18-3.35-6.82-7.48h0c.36-4.13,4-7.48,8.13-7.48h35.35c4.13,0,7.18,3.35,6.82,7.48h0c-.36,4.13-4,7.48-8.13,7.48Z"/>
    <path class="cls-5" d="M351.43,388.52h-37.83c-4.36,0-7.59-3.54-7.21-7.9l2.41-27.59c.38-4.36,4.23-7.9,8.59-7.9h37.83c4.36,0,7.59,3.54,7.21,7.9l-2.41,27.59c-.38,4.36-4.23,7.9-8.59,7.9Z"/>
    <g class="cls-20">
      <path class="cls-16" d="M339.77,360c.23-2.63-1.71-4.75-4.34-4.75s-4.94,2.13-5.17,4.75c-.14,1.56.51,2.94,1.6,3.8l-.83,9.5c-.14,1.56,1.02,2.82,2.58,2.82s2.93-1.26,3.07-2.82l.83-9.5c1.24-.87,2.13-2.24,2.26-3.8Z"/>
    </g>
    <path class="cls-5" d="M355.56,350.88h-4.88l1.19-13.65c.72-8.2-5.37-14.88-13.58-14.88s-15.46,6.67-16.18,14.88l-1.19,13.65h-4.88l1.19-13.65c.95-10.89,10.59-19.75,21.48-19.75s18.98,8.86,18.02,19.75l-1.19,13.65Z"/>
    <path class="cls-5" d="M383.82,273.47l.11-1.31c.12-1.34-.88-2.43-2.22-2.43s-2.52,1.09-2.64,2.43l-.11,1.31c-.53,0-1.01.43-1.05.97l-.3,3.48c-.05.53.35.97.88.97h4.85c.53,0,1.01-.43,1.05-.97l.3-3.48c.05-.53-.35-.97-.88-.97ZM381.67,270.33c1.01,0,1.76.82,1.67,1.83l-.11,1.31h-3.66l.11-1.31c.09-1.01.98-1.83,1.99-1.83Z"/>
    <g>
      <path class="cls-4" d="M310.77,274.86l-1.69-.35c-.2-.04-.3-.25-.22-.45l.71-1.67c.15-.36-.28-.62-.56-.34l-1.28,1.32c-.15.16-.4.16-.52,0l-1.05-1.32c-.23-.28-.71-.02-.62.34l.41,1.67c.05.2-.09.41-.3.45l-1.76.35c-.38.08-.42.6-.06.68l1.69.35c.2.04.3.25.22.45l-.71,1.67c-.15.36.28.62.56.34l1.28-1.32c.15-.16.4-.16.52,0l1.05,1.32c.23.28.71.02.62-.34l-.41-1.67c-.05-.2.09-.41.3-.45l1.75-.35c.38-.08.42-.6.06-.68Z"/>
      <path class="cls-4" d="M321.91,274.86l-1.69-.35c-.2-.04-.3-.25-.22-.45l.71-1.67c.15-.36-.28-.62-.56-.34l-1.28,1.32c-.15.16-.4.16-.52,0l-1.05-1.32c-.23-.28-.71-.02-.62.34l.41,1.67c.05.2-.09.41-.3.45l-1.75.35c-.38.08-.42.6-.06.68l1.69.35c.2.04.3.25.22.45l-.71,1.67c-.15.36.28.62.56.34l1.28-1.32c.15-.16.4-.16.52,0l1.05,1.32c.23.28.71.02.62-.34l-.41-1.67c-.05-.2.09-.41.3-.45l1.75-.35c.38-.08.42-.6.06-.68Z"/>
      <path class="cls-4" d="M333.06,274.86l-1.69-.35c-.2-.04-.3-.25-.22-.45l.71-1.67c.15-.36-.28-.62-.56-.34l-1.28,1.32c-.15.16-.4.16-.52,0l-1.05-1.32c-.23-.28-.71-.02-.62.34l.41,1.67c.05.2-.09.41-.3.45l-1.75.35c-.38.08-.42.6-.06.68l1.69.35c.2.04.3.25.22.45l-.71,1.67c-.15.36.28.62.56.34l1.28-1.32c.15-.16.4-.16.52,0l1.05,1.32c.23.28.71.02.62-.34l-.41-1.67c-.05-.2.09-.41.3-.45l1.75-.35c.38-.08.42-.6.06-.68Z"/>
      <path class="cls-4" d="M344.2,274.86l-1.69-.35c-.2-.04-.3-.25-.22-.45l.71-1.67c.15-.36-.28-.62-.56-.34l-1.28,1.32c-.15.16-.4.16-.52,0l-1.05-1.32c-.23-.28-.71-.02-.62.34l.41,1.67c.05.2-.09.41-.3.45l-1.76.35c-.38.08-.42.6-.06.68l1.69.35c.2.04.3.25.22.45l-.71,1.67c-.15.36.28.62.56.34l1.28-1.32c.15-.16.4-.16.52,0l1.05,1.32c.23.28.71.02.62-.34l-.41-1.67c-.05-.2.09-.41.3-.45l1.75-.35c.38-.08.42-.6.06-.68Z"/>
      <path class="cls-4" d="M355.35,274.86l-1.69-.35c-.2-.04-.3-.25-.22-.45l.71-1.67c.15-.36-.28-.62-.56-.34l-1.28,1.32c-.15.16-.4.16-.52,0l-1.05-1.32c-.23-.28-.71-.02-.62.34l.41,1.67c.05.2-.09.41-.3.45l-1.75.35c-.38.08-.42.6-.06.68l1.69.35c.2.04.3.25.22.45l-.71,1.67c-.15.36.28.62.56.34l1.28-1.32c.15-.16.39-.16.52,0l1.05,1.32c.23.28.71.02.62-.34l-.41-1.67c-.05-.2.09-.41.3-.45l1.76-.35c.38-.08.42-.6.06-.68Z"/>
      <path class="cls-4" d="M366.5,274.86l-1.69-.35c-.2-.04-.3-.25-.22-.45l.71-1.67c.15-.36-.28-.62-.56-.34l-1.28,1.32c-.15.16-.4.16-.52,0l-1.05-1.32c-.23-.28-.71-.02-.62.34l.41,1.67c.05.2-.09.41-.3.45l-1.75.35c-.38.08-.42.6-.06.68l1.69.35c.2.04.3.25.22.45l-.71,1.67c-.15.36.28.62.56.34l1.28-1.32c.15-.16.4-.16.52,0l1.05,1.32c.23.28.71.02.62-.34l-.41-1.67c-.05-.2.09-.41.3-.45l1.75-.35c.38-.08.42-.6.06-.68Z"/>
    </g>
    <g>
      <path class="cls-4" d="M339.63,250.48h-20.93c-1.3,0-2.45,1.05-2.56,2.35-.11,1.3.85,2.35,2.15,2.35h20.93c1.3,0,2.45-1.05,2.56-2.35.11-1.3-.85-2.35-2.15-2.35Z"/>
      <path class="cls-4" d="M360.87,250.48h-12.14c-1.3,0-2.45,1.05-2.56,2.35-.11,1.3.85,2.35,2.15,2.35h12.14c1.3,0,2.45-1.05,2.56-2.35.11-1.3-.85-2.35-2.15-2.35Z"/>
    </g>
    <path class="cls-4" d="M376.91,357.25c-7.89,3.15-14.81,7.75-19.54,12.97-2.78-2.36-6.72-4-11.45-4.75l-.55-.09-.24,2.78.31.12c4.67,1.76,8.47,4.9,10.99,9.05l.4.65.44-.7c4.85-7.77,11.93-14.28,19.92-18.33l.27-.14.16-1.85-.7.28Z"/>
  </g>
  <path class="cls-19" d="M271.66,125.35c-1.47,2.59-2.44,5.47-2.71,8.53l-17.54,200.49h54.27l10.9-41.81-3.59-41.81,10.9-41.81-3.59-41.8,10.9-41.81h-59.55Z"/>
  <g>
    <g>
      <polygon class="cls-5" points="315.6 155.37 326.5 113.57 189.26 113.57 178.35 155.37 181.94 197.18 171.04 238.98 174.63 280.79 163.72 322.59 300.97 322.59 311.87 280.79 308.28 238.98 319.19 197.18 315.6 155.37"/>
      <polygon class="cls-6" points="315.6 155.37 326.5 113.57 189.26 113.57 178.35 155.37 181.94 197.18 171.04 238.98 174.63 280.79 163.72 322.59 300.97 322.59 311.87 280.79 308.28 238.98 319.19 197.18 315.6 155.37"/>
      <polygon class="cls-17" points="315.6 155.37 178.35 155.37 189.26 113.57 326.5 113.57 315.6 155.37"/>
      <polygon class="cls-17" points="308.28 238.98 171.04 238.98 181.94 197.18 319.19 197.18 308.28 238.98"/>
      <polygon class="cls-17" points="300.97 322.59 163.72 322.59 174.63 280.79 311.87 280.79 300.97 322.59"/>
    </g>
    <path class="cls-19" d="M297.23,172.84c-1.18.37-2.69.59-4.33.59-2.42,0-4.55-.48-5.76-1.2-.33-.2-.7-.3-1.06-.3h0c-.34,0-.68.09-.99.27-.02.01-.05.02-.07.03h0s-.03.01-.04.02c-.45.26-1.01.49-1.67.68-1.13.32-2.53.5-4.05.5-.41,0-.81-.01-1.21-.04-1.17-.08-2.24-.27-3.13-.55-.15-.05-.31-.08-.46-.09-1.07-.07-2.03.75-2.03,1.88h0v1.28h-53.34c-4.13,0-7.48,3.35-7.48,7.48v7.53c0,4.13,3.35,7.48,7.48,7.48h60.69c.13,0,.26-.01.4-.02.65.54,1.34,1.08,2.06,1.63.86.65,1.78,1.32,2.73,2.01.66.48,1.58.48,2.24,0,7.63-5.53,12.53-9.35,12.53-19.84v-7.54c0-1.29-1.25-2.18-2.49-1.8Z"/>
    <g>
      <rect class="cls-5" x="210.45" y="171.77" width="75.64" height="22.48" rx="7.48" ry="7.48"/>
      <g>
        <g>
          <path class="cls-5" d="M291.74,169.28c-2.42,0-4.55-.48-5.76-1.2-.67-.4-1.46-.4-2.13,0-1.21.72-3.34,1.2-5.76,1.2-1.65,0-3.16-.22-4.33-.59-1.24-.39-2.49.5-2.49,1.8v7.54c0,10.49,4.9,14.31,12.53,19.84.66.48,1.58.48,2.24,0,7.63-5.53,12.53-9.35,12.53-19.84v-7.54c0-1.3-1.25-2.18-2.49-1.8-1.18.37-2.69.59-4.33.59Z"/>
          <path class="cls-3" d="M291.74,169.28c-2.42,0-4.55-.48-5.76-1.2-.67-.4-1.46-.4-2.13,0-1.21.72-3.34,1.2-5.76,1.2-1.65,0-3.16-.22-4.33-.59-1.24-.39-2.49.5-2.49,1.8v7.54c0,10.49,4.9,14.31,12.53,19.84.66.48,1.58.48,2.24,0,7.63-5.53,12.53-9.35,12.53-19.84v-7.54c0-1.3-1.25-2.18-2.49-1.8-1.18.37-2.69.59-4.33.59Z"/>
          <path class="cls-12" d="M283.85,168.08c-1.21.72-3.34,1.2-5.76,1.2-1.65,0-3.16-.22-4.33-.59-1.24-.39-2.49.5-2.49,1.8v7.54c0,10.49,4.9,14.31,12.53,19.84.33.24.73.36,1.12.36v-30.45c-.37,0-.73.1-1.06.3Z"/>
        </g>
        <path class="cls-4" d="M295.85,175.97c-4.93,2.04-9.15,5.02-11.92,8.4-1.93-1.53-4.58-2.59-7.69-3.08l-.36-.06v1.8l.21.08c3.12,1.14,5.76,3.17,7.63,5.86l.29.42.24-.45c2.7-5.03,6.92-9.25,11.87-11.87l.17-.09v-1.2l-.44.18Z"/>
      </g>
    </g>
    <g>
      <path class="cls-5" d="M324.08,125.32h-5.21c-2.89,0-5.02-2.34-4.77-5.23l.46-5.21c.25-2.89,2.8-5.23,5.69-5.23h5.21c2.89,0,5.02,2.34,4.77,5.23l-.46,5.21c-.25,2.89-2.8,5.23-5.69,5.23Z"/>
      <polygon class="cls-16" points="326.24 114.88 325.11 113.64 322.27 116.25 319.88 113.64 318.54 114.88 320.92 117.49 318.08 120.11 319.21 121.35 322.05 118.73 324.44 121.35 325.79 120.11 323.4 117.49 326.24 114.88"/>
    </g>
  </g>
  <g>
    <g>
      <path class="cls-13" d="M207.74,170.24c3.02,3.28,5.9,6.68,8.75,10.11,2.85,3.43,5.63,6.92,8.38,10.44.12.15.07.09.1.14.01.02.02.05.03.07.03.03.05.09.08.12.05.09.13.15.21.23.17.15.4.26.65.31.13.02.26.04.39.02.07,0,.14-.01.21-.01.04,0,.07-.02.11-.02.06-.03.02.03.19-.07l2.95-1.6c3.96-2.09,7.95-4.14,12.07-5.98l3.45,4.27c-3.32,3.06-6.79,6.88-10.28,9.69l-2.64,2.07c-.07.06-.35.25-.53.37-.2.13-.4.27-.62.39-.43.24-.86.47-1.32.65-.9.39-1.87.64-2.85.79-1.96.29-4,.09-5.91-.59-.95-.34-1.87-.8-2.71-1.38-.43-.28-.82-.6-1.21-.93-.2-.16-.37-.35-.56-.52l-.47-.47c-3.12-3.2-6.2-6.42-9.21-9.71-3.02-3.29-6-6.6-8.84-10.04l9.55-8.34Z"/>
      <path class="cls-13" d="M240.27,186.6l2.75-8.82,7.23,3.6s-1.05,6.43-6.31,7.55l-3.66-2.33Z"/>
      <polygon class="cls-13" points="245.91 175.34 252.43 177.13 250.24 181.38 243.01 177.78 245.91 175.34"/>
    </g>
    <g>
      <path class="cls-13" d="M169.72,172.65c-.79,3.75-1.75,7.45-2.76,11.15-1,3.69-2.1,7.37-3.23,11.03l-.42,1.37-.21.69c-.04.15-.07.19-.11.29-.13.35-.21.72-.22,1.12-.02.79.17,1.66.68,2.42.04.12.45.55.77.89l.98,1.06,1.93,2.16c1.27,1.46,2.53,2.92,3.74,4.46l-4.1,4.75c-1.69-.96-3.33-2-4.95-3.05l-2.42-1.59-1.19-.81c-.41-.28-.73-.47-1.38-1.01-2.24-1.9-3.91-4.6-4.53-7.59-.31-1.49-.39-3.05-.22-4.6.05-.37.12-.8.17-1.12l.13-.71.25-1.42c.66-3.78,1.37-7.54,2.16-11.29.79-3.75,1.63-7.48,2.64-11.17l12.32,2.98Z"/>
      <path class="cls-13" d="M166.81,208.94l4.86-2.48,2.14,8.26s-3.9,1.49-6.92-.42l-.08-5.35Z"/>
      <polygon class="cls-13" points="178.38 203.81 178.6 211.39 173.18 214.94 171.3 206.61 178.38 203.81"/>
    </g>
    <path class="cls-4" d="M194.27,133.7c.12.58.52.99.91.92.38-.08.59-.61.48-1.2s-.52-.99-.91-.92c-.38.08-.59.61-.48,1.2Z"/>
    <path class="cls-15" d="M194.74,134.71s2.01,3.1,3.8,4.43c-.84,1.17-2.68,1.09-2.68,1.09l-1.12-5.52Z"/>
    <path class="cls-4" d="M191.48,130.9c-.08,0-.17-.03-.24-.09-.14-.13-.15-.35-.02-.49,1.31-1.42,2.91-1.17,2.98-1.16.19.03.32.21.29.4-.03.19-.22.32-.4.29h0c-.05,0-1.3-.19-2.35.94-.07.07-.16.11-.26.11Z"/>
    <path class="cls-13" d="M177.29,141.91c1.3,5.4,2.6,15.3-2.04,18.91,0,0,1.81,5.48,14.13,5.48,13.54,0,6.47-3.53,6.47-3.53-7.39-1.44-7.2-7.86-5.91-12.06l-12.65-8.8Z"/>
    <path class="cls-4" d="M173.8,161.82c-.81-1.5-1.7-3.22.14-3.76,2.02-.59,15.01-1.69,18.83-.58-1.17,2.09.81,4.65.81,4.65l-19.79-.31Z"/>
    <polygon class="cls-13" points="184.56 414.56 193.06 414.56 193.91 397.45 185.41 397.45 184.56 414.56"/>
    <polygon class="cls-13" points="130.64 412.2 139.24 412.66 144.47 395.81 135.87 395.35 130.64 412.2"/>
    <path class="cls-4" d="M138.98,411.97l-8.11-1.76c-.3-.06-.59.09-.72.36l-2.81,6.11c-.29.63.09,1.38.78,1.51,2.84.56,4.25.7,7.82,1.47,2.19.48,7.15,1.68,10.18,2.34,2.96.64,4.07-2.25,2.89-2.79-5.3-2.42-7.51-4.55-8.95-6.54-.26-.36-.64-.6-1.08-.7Z"/>
    <path class="cls-4" d="M192.61,413.7h-8.06c-.3,0-.56.21-.63.5l-1.46,6.56c-.15.68.37,1.33,1.06,1.31,2.91-.05,7.11-.22,10.77-.22,4.28,0,7.97.23,12.98.23,3.03,0,3.87-3.07,2.6-3.34-5.78-1.26-10.49-1.4-15.49-4.48-.54-.33-1.14-.58-1.78-.58Z"/>
    <path class="cls-4" d="M159.86,163.32c-6.41,3.05-8.16,21.54-8.16,21.54l15.87,7.33s3.94-5.8,4.24-14.92c.32-9.56-5.39-17.06-11.95-13.94Z"/>
    <path class="cls-11" d="M168.47,174.72c-2.86,4.45-2.59,11.33-1.6,17.14l.7.33s3.94-5.81,4.25-14.93c.02-.57.02-1.14,0-1.69l-3.34-.85Z"/>
    <g>
      <path class="cls-5" d="M204.13,162.87s7.86,8.88.44,63.83h-39.5c-.27-6.06,3.54-35.64-2.31-64.21,0,0,6.77-1.36,13.22-1.67,5.05-.24,12.35-.4,16.79,0,5.85.53,11.36,2.05,11.36,2.05Z"/>
      <path class="cls-9" d="M204.13,162.87s7.86,8.88.44,63.83h-39.5c-.27-6.06,3.54-35.64-2.31-64.21,0,0,6.77-1.36,13.22-1.67,5.05-.24,12.35-.4,16.79,0,5.85.53,11.36,2.05,11.36,2.05Z"/>
    </g>
    <path class="cls-19" d="M207.58,179.67l-.15-.13-7.86-4.2c-.8,12.1,4.61,19.68,7.83,23,.44-7.75.43-13.86.18-18.67Z"/>
    <polygon class="cls-19" points="193.9 397.46 193.47 406.27 184.97 406.27 185.4 397.46 193.9 397.46"/>
    <polygon class="cls-19" points="135.86 395.35 144.47 395.81 141.77 404.5 133.16 404.04 135.86 395.35"/>
    <path class="cls-13" d="M174.55,136.42c1.9,7.08,2.65,11.32,7.02,14.26,6.57,4.43,14.75-.65,15.01-8.16.23-6.75-2.91-17.2-10.51-18.62-7.48-1.41-13.42,5.44-11.52,12.52Z"/>
    <path class="cls-4" d="M190.56,226.7s-8.38,56.44-12.98,77.58c-5.04,23.15-32.06,99.76-32.06,99.76l-13.22-2.86s16.94-62.43,21.17-94.8c1.65-12.63,3.64-32.99,6.16-49.97,2.44-16.44,5.44-29.71,5.44-29.71h25.49Z"/>
    <path class="cls-5" d="M148.68,399.63c.06.01-2.46,4.78-2.46,4.78l-14.87-3.22,1.25-4.47,16.08,2.91Z"/>
    <path class="cls-2" d="M148.68,399.63c.06.01-2.46,4.78-2.46,4.78l-14.87-3.22,1.25-4.47,16.08,2.91Z"/>
    <path class="cls-1" d="M185.26,246.81c-9.69,1.9-8.67,38.04-7.5,56.63,2.79-13.14,6.89-38.42,9.68-56.37-.64-.32-1.37-.42-2.18-.26Z"/>
    <path class="cls-4" d="M204.57,226.7s3.94,55.22,3.14,77.74c-.84,23.43-11.94,100.13-11.94,100.13h-12.51s-.46-75.33-1.02-98.34c-.61-25.08-3.64-79.53-3.64-79.53h25.97Z"/>
    <path class="cls-5" d="M198.17,399.58c.06,0-.71,5.19-.71,5.19h-15.22l-.41-4.64,16.34-.56Z"/>
    <path class="cls-2" d="M198.17,399.58c.06,0-.71,5.19-.71,5.19h-15.22l-.41-4.64,16.34-.56Z"/>
    <path class="cls-4" d="M199.52,173.21c0,14.82,7.89,20.92,7.89,20.92l12.82-12.53s-4.36-7.51-10.35-14.4c-7.4-8.51-10.35-3.52-10.35,6.01Z"/>
    <path class="cls-19" d="M196.13,145.21c-.33.91-1.18,2.45-3.32,3.06-3.13.9-3.17,3.55-3.17,3.55l.04.05c2.98-.99,5.47-3.45,6.45-6.66Z"/>
    <path class="cls-4" d="M192.81,122.35c2.64-3.33-1.42-3.49-1.42-3.49,1.06-3.97-3.7-1.84-3.7-1.84-2.85-3.93-4.46.85-4.46.85-2.96-3.33-3.5,2.11-3.5,2.11-2.97-4.23-4.48,1.87-4.48,1.87-2.73-4.39-4.4,1.33-4.4,1.33-5.64-2.02-2.96,3.84-2.96,3.84-4.82.13-.95,3.86-.95,3.86-5.77.01-.68,3.32-.68,3.32-4.58,3.01,1.17,3.81,1.17,3.81-3.74,5.85,2.68,3.68,2.68,3.68-2.6,5.79,3.17,3.24,3.17,3.24-.37,5.58,2.85,4.06,4.4,3.03.3,1.12.86,2.32,1.89,2.45,2.01.26,2.4-3.53,2.4-3.53,0,0,1.87,1.45,3.43.67,1.56-.79.98-2.78.98-2.78,0,0,1.2.89,2.3.04.67-.52.67-4.27-.18-5.59l3.07-1.2s2.27-.32,1.26-3.32c-1.02-3-.15-5.37-.15-5.37,3.46-1.62.62-3.57.62-3.57,4-2.59-.47-3.42-.47-3.42Z"/>
    <path class="cls-13" d="M186.6,136.72c.48,1.86,1.7,3.46,2.98,4.41,1.92,1.43,3.36.02,3.22-2.15-.12-1.96-1.27-5.06-3.39-5.64-2.09-.57-3.36,1.26-2.81,3.39Z"/>
  </g>
</svg>