<?xml version="1.0" encoding="UTF-8"?>
<svg id="Camada_1" data-name="Camada 1" xmlns="http://www.w3.org/2000/svg" version="1.1" viewBox="0 0 223.8 25">
  <defs>
    <style>
      .cls-1 {
        fill: #485eff;
      }

      .cls-1, .cls-2 {
        stroke-width: 0px;
      }

      .cls-2 {
        fill: #fff;
      }
    </style>
  </defs>
  <rect class="cls-2" x="89.9" y=".8" width="4.2" height="10.9"/>
  <g>
    <g>
      <path class="cls-1" d="M20.5.4v6.1h-6.5v18.3h-7.6V6.5H0V.4h20.5Z"/>
      <path class="cls-1" d="M28.1,23.4c-1.9-1.1-3.4-2.6-4.6-4.5-1.1-1.9-1.7-4-1.7-6.4s.6-4.5,1.7-6.4c1.1-1.9,2.6-3.4,4.6-4.5,1.9-1.1,4-1.6,6.3-1.6s4.4.5,6.3,1.6c1.9,1.1,3.4,2.6,4.5,4.5,1.1,1.9,1.7,4,1.7,6.4s-.6,4.5-1.7,6.4c-1.1,1.9-2.6,3.4-4.5,4.5-1.9,1.1-4,1.6-6.3,1.6s-4.4-.5-6.3-1.6ZM37.9,16.4c.8-1,1.2-2.3,1.2-3.9s-.4-3-1.2-4c-.8-1-2-1.5-3.5-1.5s-2.7.5-3.5,1.5c-.8,1-1.2,2.3-1.2,4s.4,3,1.2,3.9c.8,1,2,1.5,3.5,1.5s2.7-.5,3.5-1.5Z"/>
      <path class="cls-1" d="M55.2,23.4c-1.9-1.1-3.4-2.6-4.6-4.5-1.1-1.9-1.7-4-1.7-6.4s.6-4.5,1.7-6.4c1.1-1.9,2.6-3.4,4.6-4.5,1.9-1.1,4-1.6,6.3-1.6s4.4.5,6.3,1.6c1.9,1.1,3.4,2.6,4.5,4.5,1.1,1.9,1.7,4,1.7,6.4s-.6,4.5-1.7,6.4c-1.1,1.9-2.6,3.4-4.5,4.5-1.9,1.1-4,1.6-6.3,1.6s-4.4-.5-6.3-1.6ZM65,16.4c.8-1,1.2-2.3,1.2-3.9s-.4-3-1.2-4c-.8-1-2-1.5-3.5-1.5s-2.7.5-3.5,1.5c-.8,1-1.2,2.3-1.2,4s.4,3,1.2,3.9c.8,1,2,1.5,3.5,1.5s2.7-.5,3.5-1.5Z"/>
      <path class="cls-1" d="M83.2,19h10.8v5.8h-17.3V.4h6.5v18.6Z"/>
      <path class="cls-1" d="M120.8,14.4c.8,1.1,1.2,2.3,1.2,3.7,0,2.1-.7,3.8-2.1,4.9-1.4,1.2-3.4,1.7-6.1,1.7h-12.8V.4h12.4c2.5,0,4.4.5,5.8,1.6,1.4,1.1,2.1,2.6,2.1,4.7s-.4,2.6-1.1,3.6-1.7,1.6-3,1.9c1.5.3,2.6,1,3.4,2.1ZM108.7,9.9h3c.7,0,1.2-.1,1.5-.4.3-.3.5-.7.5-1.3s-.2-1-.5-1.3c-.3-.3-.8-.4-1.5-.4h-3v3.4ZM113.7,18.2c.3-.3.5-.7.5-1.3,0-1.2-.7-1.8-2-1.8h-3.5v3.4h3.5c.7,0,1.2-.1,1.5-.4Z"/>
      <path class="cls-1" d="M136.8,24.8l-4.6-8.7h0v8.7h-7.6V.4h11.3c2,0,3.7.3,5.1,1,1.4.7,2.4,1.7,3.1,2.9.7,1.2,1,2.6,1,4.1s-.5,3.1-1.4,4.3c-.9,1.3-2.2,2.2-3.9,2.7l5.3,9.3h-8.4ZM132.2,10.9h3c.7,0,1.3-.2,1.7-.5.4-.3.6-.9.6-1.6s-.2-1.1-.6-1.5c-.4-.4-.9-.6-1.6-.6h-3v4.1Z"/>
      <path class="cls-1" d="M163.2,21.1h-8.1l-1.2,3.7h-8L154.8.4h8.8l8.9,24.3h-8l-1.2-3.7ZM161.3,15.3l-2.2-6.8-2.2,6.8h4.4Z"/>
      <path class="cls-1" d="M197.5,24.8h-7.6l-8.1-12.2v12.2h-7.6V.4h7.6l8.1,12.4V.4h7.6v24.3Z"/>
      <path class="cls-1" d="M217.8,2c1.9,1,3.4,2.5,4.4,4.3,1,1.8,1.5,3.9,1.5,6.3s-.5,4.4-1.5,6.3c-1,1.9-2.5,3.3-4.4,4.4-1.9,1.1-4.1,1.6-6.7,1.6h-10.1V.4h10.1c2.5,0,4.8.5,6.7,1.5ZM214.5,16.5c1-.9,1.5-2.3,1.5-4s-.5-3.1-1.5-4c-1-.9-2.4-1.4-4.1-1.4h-1.8v10.9h1.8c1.7,0,3.1-.5,4.1-1.4Z"/>
    </g>
    <rect class="cls-1" x="89.9" y=".8" width="4.1" height="10.9"/>
  </g>
</svg>