<?xml version="1.0" encoding="UTF-8"?>
<svg id="Camada_1" data-name="Camada 1" xmlns="http://www.w3.org/2000/svg" viewBox="0 0 223.76 25">
  <defs>
    <style>
      .cls-1 {
        fill: #fff;
        stroke-width: 0px;
      }
    </style>
  </defs>
  <g>
    <path class="cls-1" d="M20.5.41v6.05h-6.47v18.29h-7.63V6.47H0V.41h20.5Z"/>
    <path class="cls-1" d="M28.11,23.38c-1.91-1.08-3.43-2.57-4.56-4.47-1.12-1.9-1.69-4.05-1.69-6.43s.56-4.53,1.69-6.43c1.12-1.9,2.64-3.39,4.56-4.45,1.91-1.07,4.02-1.6,6.31-1.6s4.39.53,6.29,1.6c1.9,1.07,3.41,2.55,4.52,4.45,1.11,1.9,1.67,4.05,1.67,6.43s-.56,4.53-1.67,6.43c-1.11,1.9-2.63,3.39-4.54,4.47-1.91,1.08-4.01,1.62-6.28,1.62s-4.4-.54-6.31-1.62ZM37.93,16.42c.82-.97,1.24-2.29,1.24-3.94s-.41-3-1.24-3.97c-.83-.97-1.99-1.46-3.51-1.46s-2.72.49-3.54,1.46c-.82.97-1.24,2.3-1.24,3.97s.41,2.96,1.24,3.94c.83.97,2.01,1.46,3.54,1.46s2.68-.49,3.51-1.46Z"/>
    <path class="cls-1" d="M55.21,23.38c-1.91-1.08-3.43-2.57-4.56-4.47-1.12-1.9-1.69-4.05-1.69-6.43s.56-4.53,1.69-6.43c1.12-1.9,2.64-3.39,4.56-4.45,1.91-1.07,4.02-1.6,6.31-1.6s4.39.53,6.29,1.6c1.9,1.07,3.41,2.55,4.52,4.45,1.11,1.9,1.67,4.05,1.67,6.43s-.56,4.53-1.67,6.43c-1.11,1.9-2.63,3.39-4.54,4.47-1.91,1.08-4.01,1.62-6.28,1.62s-4.4-.54-6.31-1.62ZM65.03,16.42c.82-.97,1.24-2.29,1.24-3.94s-.41-3-1.24-3.97c-.83-.97-1.99-1.46-3.51-1.46s-2.72.49-3.54,1.46c-.82.97-1.24,2.3-1.24,3.97s.41,2.96,1.24,3.94c.83.97,2.01,1.46,3.54,1.46s2.68-.49,3.51-1.46Z"/>
    <path class="cls-1" d="M83.24,18.98h10.8v5.78h-17.29V.41h6.49v18.57Z"/>
    <path class="cls-1" d="M120.75,14.39c.81,1.07,1.22,2.3,1.22,3.7,0,2.13-.71,3.78-2.12,4.93-1.41,1.16-3.43,1.74-6.07,1.74h-12.76V.41h12.41c2.48,0,4.42.54,5.85,1.62,1.42,1.08,2.13,2.65,2.13,4.71,0,1.42-.37,2.62-1.12,3.59-.74.97-1.74,1.62-2.97,1.94,1.47.34,2.61,1.05,3.42,2.12ZM108.67,9.9h2.96c.69,0,1.2-.14,1.53-.41.33-.28.5-.7.5-1.27s-.17-1.04-.5-1.32c-.33-.29-.84-.43-1.53-.43h-2.96v3.44ZM113.67,18.24c.33-.26.5-.69.5-1.29,0-1.17-.68-1.75-2.03-1.75h-3.47v3.44h3.47c.69,0,1.2-.13,1.53-.4Z"/>
    <path class="cls-1" d="M136.79,24.76l-4.57-8.73h-.03v8.73h-7.63V.41h11.35c1.97,0,3.66.35,5.06,1.05,1.4.7,2.45,1.65,3.15,2.85.7,1.2,1.05,2.56,1.05,4.08,0,1.63-.45,3.07-1.36,4.33-.91,1.26-2.21,2.17-3.9,2.72l5.3,9.32h-8.39ZM132.19,10.94h3.03c.73,0,1.28-.17,1.65-.5.37-.33.55-.85.55-1.56,0-.64-.19-1.15-.57-1.51-.38-.37-.92-.55-1.63-.55h-3.03v4.13Z"/>
    <path class="cls-1" d="M163.2,21.08h-8.12l-1.2,3.68h-8.01L154.78.41h8.8l8.87,24.35h-8.05l-1.2-3.68ZM161.35,15.34l-2.2-6.77-2.2,6.77h4.4Z"/>
    <path class="cls-1" d="M197.52,24.76h-7.63l-8.08-12.24v12.24h-7.63V.41h7.63l8.08,12.45V.41h7.63v24.35Z"/>
    <path class="cls-1" d="M217.79,1.96c1.91,1.03,3.39,2.46,4.42,4.3,1.03,1.83,1.55,3.92,1.55,6.26s-.52,4.4-1.55,6.26c-1.03,1.86-2.51,3.32-4.42,4.38-1.91,1.07-4.14,1.6-6.69,1.6h-10.14V.41h10.14c2.54,0,4.77.52,6.69,1.55ZM214.51,16.54c1.01-.94,1.51-2.28,1.51-4.02s-.5-3.08-1.51-4.02c-1.01-.94-2.37-1.41-4.09-1.41h-1.82v10.87h1.82c1.72,0,3.08-.47,4.09-1.41Z"/>
  </g>
  <rect class="cls-1" x="89.89" y=".76" width="4.15" height="10.94"/>
</svg>