<?xml version="1.0" encoding="UTF-8"?>
<svg id="Camada_2" data-name="Camada 2" xmlns="http://www.w3.org/2000/svg" viewBox="0 0 271 200">
  <defs>
    <style>
      .cls-1 {
        fill: #e0e0e0;
      }

      .cls-1, .cls-2 {
        stroke-width: 0px;
      }

      .cls-2 {
        fill: #606060;
      }
    </style>
  </defs>
  <g id="Camada_1-2" data-name="Camada 1">
    <rect class="cls-1" width="271" height="200" rx="36.18" ry="36.18" transform="translate(271 200) rotate(180)"/>
    <g>
      <path class="cls-2" d="M152.7,102.85l-17.12-12.44-17.12,12.44,6.54-20.13-17.12-12.44h21.16l6.54-20.13,6.54,20.13h21.16l-17.12,12.44,6.54,20.13ZM135.58,86.99l11.87,8.62-4.53-13.95,11.87-8.62h-14.67l-4.53-13.95-4.53,13.95h-14.67l11.87,8.62-4.53,13.95,11.87-8.62Z"/>
      <g>
        <path class="cls-2" d="M49.67,145.98v-23.02h3.29v20.17h12.46v2.85h-15.75Z"/>
        <path class="cls-2" d="M66.84,134.47c0-2.12.32-3.92.97-5.41.65-1.49,1.52-2.7,2.63-3.64,1.11-.94,2.41-1.63,3.89-2.06,1.49-.44,3.08-.66,4.79-.66s3.3.22,4.79.66c1.49.44,2.78,1.13,3.87,2.06,1.1.94,1.96,2.15,2.59,3.64.63,1.49.95,3.29.95,5.41s-.32,3.77-.95,5.24c-.63,1.47-1.5,2.7-2.59,3.67-1.1.97-2.39,1.69-3.87,2.16-1.49.46-3.08.69-4.79.69s-3.3-.23-4.79-.69c-1.49-.46-2.78-1.18-3.89-2.16-1.11-.97-1.99-2.2-2.63-3.67-.65-1.47-.97-3.22-.97-5.24ZM79.11,143.31c1.27,0,2.44-.17,3.53-.51,1.08-.34,2.03-.87,2.83-1.59.8-.72,1.43-1.64,1.88-2.76.45-1.12.68-2.45.68-3.98,0-1.63-.23-3.01-.68-4.15-.45-1.13-1.08-2.05-1.88-2.74s-1.75-1.19-2.83-1.5c-1.08-.3-2.26-.46-3.53-.46s-2.45.15-3.54.46c-1.1.3-2.05.8-2.85,1.5-.8.69-1.44,1.6-1.9,2.72-.46,1.12-.69,2.51-.69,4.17,0,1.56.23,2.89.69,4,.46,1.11,1.1,2.02,1.9,2.74.8.72,1.75,1.25,2.85,1.59,1.1.34,2.28.51,3.54.51Z"/>
        <path class="cls-2" d="M114.96,141.12c-1.12,1.71-2.5,2.98-4.13,3.84-1.63.85-3.29,1.28-4.97,1.28s-3.3-.23-4.79-.69c-1.49-.46-2.78-1.18-3.89-2.16-1.11-.97-1.99-2.2-2.63-3.67-.65-1.47-.97-3.22-.97-5.24s.32-3.94.97-5.46c.65-1.52,1.52-2.78,2.63-3.76,1.11-.99,2.41-1.72,3.89-2.19,1.49-.48,3.08-.71,4.79-.71,1.39,0,2.75.19,4.07.57,1.33.38,2.53.93,3.6,1.64s1.97,1.6,2.7,2.65c.73,1.05,1.21,2.23,1.42,3.54h-3.43c-.61-1.88-1.66-3.26-3.16-4.15-1.5-.89-3.23-1.33-5.21-1.33-1.27,0-2.45.17-3.54.51-1.1.34-2.05.88-2.85,1.63-.8.74-1.44,1.69-1.9,2.85-.46,1.16-.69,2.56-.69,4.22,0,1.56.23,2.89.69,4,.46,1.11,1.1,2.02,1.9,2.74.8.72,1.75,1.25,2.85,1.59,1.1.34,2.28.51,3.54.51.78,0,1.56-.05,2.34-.16.78-.11,1.55-.37,2.3-.79.75-.41,1.49-1.03,2.19-1.85.71-.82,1.36-1.92,1.97-3.31h-7.71v-2.56h10.74v11.33h-2.74v-4.86Z"/>
        <path class="cls-2" d="M120.84,134.47c0-2.12.32-3.92.97-5.41.65-1.49,1.52-2.7,2.63-3.64,1.11-.94,2.41-1.63,3.89-2.06,1.49-.44,3.08-.66,4.79-.66s3.3.22,4.79.66c1.49.44,2.78,1.13,3.87,2.06,1.1.94,1.96,2.15,2.59,3.64.63,1.49.95,3.29.95,5.41s-.32,3.77-.95,5.24c-.63,1.47-1.5,2.7-2.59,3.67-1.1.97-2.39,1.69-3.87,2.16-1.49.46-3.08.69-4.79.69s-3.3-.23-4.79-.69c-1.49-.46-2.78-1.18-3.89-2.16-1.11-.97-1.99-2.2-2.63-3.67-.65-1.47-.97-3.22-.97-5.24ZM133.12,143.31c1.27,0,2.44-.17,3.53-.51,1.08-.34,2.03-.87,2.83-1.59.8-.72,1.43-1.64,1.88-2.76.45-1.12.68-2.45.68-3.98,0-1.63-.23-3.01-.68-4.15-.45-1.13-1.08-2.05-1.88-2.74s-1.75-1.19-2.83-1.5c-1.08-.3-2.26-.46-3.53-.46s-2.45.15-3.54.46c-1.1.3-2.05.8-2.85,1.5-.8.69-1.44,1.6-1.9,2.72-.46,1.12-.69,2.51-.69,4.17,0,1.56.23,2.89.69,4,.46,1.11,1.1,2.02,1.9,2.74.8.72,1.75,1.25,2.85,1.59,1.1.34,2.28.51,3.54.51Z"/>
        <path class="cls-2" d="M154.42,145.98v-20.17h-7.89v-2.85h19.04v2.85h-7.89v20.17h-3.25Z"/>
        <path class="cls-2" d="M172.21,122.96v23.02h-3.22v-23.02h3.22Z"/>
        <path class="cls-2" d="M178.09,145.98v-23.02h10.34c1.17,0,2.25.12,3.25.35,1,.23,1.86.62,2.59,1.17.73.55,1.31,1.27,1.74,2.16.43.89.64,2,.64,3.34,0,1.24-.23,2.31-.68,3.22-.45.9-1.05,1.63-1.79,2.19-.74.56-1.61.97-2.61,1.24-1,.27-2.05.4-3.14.4h-7.05v8.95h-3.29ZM181.38,134.91h6.98c.73,0,1.4-.08,2.01-.24.61-.16,1.14-.43,1.59-.8.45-.38.8-.88,1.04-1.52.24-.63.37-1.41.37-2.34s-.13-1.66-.4-2.21c-.27-.55-.63-.97-1.1-1.26-.46-.29-1-.49-1.61-.58-.61-.1-1.24-.15-1.9-.15h-6.98v9.1Z"/>
        <path class="cls-2" d="M198.92,134.47c0-2.12.32-3.92.97-5.41.65-1.49,1.52-2.7,2.63-3.64,1.11-.94,2.41-1.63,3.89-2.06,1.49-.44,3.08-.66,4.79-.66s3.3.22,4.79.66c1.49.44,2.78,1.13,3.87,2.06,1.1.94,1.96,2.15,2.59,3.64.63,1.49.95,3.29.95,5.41s-.32,3.77-.95,5.24c-.63,1.47-1.5,2.7-2.59,3.67-1.1.97-2.39,1.69-3.87,2.16-1.49.46-3.08.69-4.79.69s-3.3-.23-4.79-.69c-1.49-.46-2.78-1.18-3.89-2.16-1.11-.97-1.99-2.2-2.63-3.67-.65-1.47-.97-3.22-.97-5.24ZM211.19,143.31c1.27,0,2.44-.17,3.53-.51,1.08-.34,2.03-.87,2.83-1.59.8-.72,1.43-1.64,1.88-2.76.45-1.12.68-2.45.68-3.98,0-1.63-.23-3.01-.68-4.15-.45-1.13-1.08-2.05-1.88-2.74s-1.75-1.19-2.83-1.5c-1.08-.3-2.26-.46-3.53-.46s-2.45.15-3.54.46c-1.1.3-2.05.8-2.85,1.5-.8.69-1.44,1.6-1.9,2.72-.46,1.12-.69,2.51-.69,4.17,0,1.56.23,2.89.69,4,.46,1.11,1.1,2.02,1.9,2.74.8.72,1.75,1.25,2.85,1.59,1.1.34,2.28.51,3.54.51Z"/>
      </g>
    </g>
  </g>
</svg>